SplineFontDB: 3.0
FontName: Muli-Medium-Italic
FullName: Muli Medium Italic
FamilyName: Muli
Weight: Medium
Copyright: 2013 (c) vernon adams
Version: 1
ItalicAngle: -5
UnderlinePosition: 0
UnderlineWidth: 0
Ascent: 1638
Descent: 410
sfntRevision: 0x00010000
LayerCount: 2
Layer: 0 1 "Back"  1
Layer: 1 1 "Fore"  0
XUID: [1021 1010 -509755826 9832181]
FSType: 0
OS2Version: 4
OS2_WeightWidthSlopeOnly: 0
OS2_UseTypoMetrics: 1
CreationTime: 1367940493
ModificationTime: 1368034212
PfmFamily: 17
TTFWeight: 500
TTFWidth: 5
LineGap: 0
VLineGap: 0
Panose: 2 0 6 3 0 0 0 0 0 0
OS2TypoAscent: 1978
OS2TypoAOffset: 0
OS2TypoDescent: -679
OS2TypoDOffset: 0
OS2TypoLinegap: 0
OS2WinAscent: 1978
OS2WinAOffset: 0
OS2WinDescent: 679
OS2WinDOffset: 0
HheadAscent: 1978
HheadAOffset: 0
HheadDescent: -679
HheadDOffset: 0
OS2SubXSize: 1331
OS2SubYSize: 1433
OS2SubXOff: 24
OS2SubYOff: 286
OS2SupXSize: 1331
OS2SupYSize: 1433
OS2SupXOff: -85
OS2SupYOff: 983
OS2StrikeYSize: 102
OS2StrikeYPos: 530
OS2Vendor: 'newt'
OS2CodePages: 20000093.00000000
OS2UnicodeRanges: a00000ff.4000204b.00000000.00000000
Lookup: 260 0 0 "'mark' Mark Positioning lookup 0"  {"'mark' Mark Positioning lookup 0 subtable"  } []
Lookup: 258 0 0 "'kern' Horizontal Kerning in Latin lookup 1"  {"'kern' Horizontal Kerning in Latin lookup 1 subtable"  } ['kern' ('DFLT' <'dflt' > 'latn' <'dflt' > ) ]
MarkAttachClasses: 1
DEI: 91125
KernClass2: 11 20 "'kern' Horizontal Kerning in Latin lookup 1 subtable" 
 89 A Agrave Aacute Acircumflex Atilde Adieresis Aring Amacron Abreve Aogonek uni0200 uni0202
 9 F uni1E1E
 14 K Kcommaaccent
 28 L Lacute Lcommaaccent Lcaron
 9 P uni1E56
 37 T Tcommaaccent Tcaron uni021A uni1E6A
 1 V
 37 W Wcircumflex Wgrave Wacute Wdieresis
 37 Y Yacute Ycircumflex Ydieresis Ygrave
 9 f uni1E1F
 89 A Agrave Aacute Acircumflex Atilde Adieresis Aring Amacron Abreve Aogonek uni0200 uni0202
 47 C Ccedilla Cacute Ccircumflex Cdotaccent Ccaron
 52 G Gcircumflex Gbreve Gdotaccent Gcommaaccent uni01F4

StartChar: .notdef
Encoding: 65536 -1 0
Width: 748
Flags: W
LayerCount: 2
UndoRedoHistory
Layer: 1
Undoes
EndUndoes
Redoes
EndRedoes
EndUndoRedoHistory
Fore
SplineSet
136 68 m 1,0,-1
 544 68 l 1,1,-1
 544 1297 l 1,2,-1
 136 1297 l 1,3,-1
 136 68 l 1,0,-1
68 0 m 1,4,-1
 68 1365 l 1,5,-1
 612 1365 l 1,6,-1
 612 0 l 1,7,-1
 68 0 l 1,4,-1
EndSplineSet
EndChar

StartChar: exclam
Encoding: 33 33 4
Width: 612
GlyphClass: 2
Flags: W
LayerCount: 2
UndoRedoHistory
Layer: 1
Undoes
EndUndoes
Redoes
EndRedoes
EndUndoRedoHistory
Fore
SplineSet
301 379 m 1,0,-1
 335 1456 l 1,1,-1
 576 1456 l 1,2,-1
 421 379 l 1,3,-1
 301 379 l 1,0,-1
234 0 m 1,4,-1
 255 234 l 1,5,-1
 446 234 l 1,6,-1
 425 0 l 1,7,-1
 234 0 l 1,4,-1
EndSplineSet
EndChar

StartChar: quotedbl
Encoding: 34 34 5
Width: 764
GlyphClass: 2
Flags: W
LayerCount: 2
UndoRedoHistory
Layer: 1
Undoes
EndUndoes
Redoes
EndRedoes
EndUndoRedoHistory
Fore
SplineSet
551 912 m 1,0,-1
 563 1456 l 1,1,-1
 772 1456 l 1,2,-1
 660 912 l 1,3,-1
 551 912 l 1,0,-1
230 912 m 1,4,-1
 242 1456 l 1,5,-1
 450 1456 l 1,6,-1
 339 912 l 1,7,-1
 230 912 l 1,4,-1
EndSplineSet
EndChar

StartChar: numbersign
Encoding: 35 35 6
Width: 1278
GlyphClass: 2
Flags: W
LayerCount: 2
UndoRedoHistory
Layer: 1
Undoes
EndUndoes
Redoes
EndRedoes
EndUndoRedoHistory
Fore
SplineSet
552 644 m 1,0,-1
 780 644 l 1,1,-1
 855 908 l 1,2,-1
 628 908 l 1,3,-1
 552 644 l 1,0,-1
233 92 m 1,4,-1
 351 503 l 1,5,-1
 104 503 l 1,6,-1
 127 644 l 1,7,-1
 388 644 l 1,8,9
 394 667 394 667 426.5 779 c 128,-1,10
 459 891 459 891 463 908 c 1,11,-1
 207 908 l 1,12,-1
 231 1045 l 1,13,-1
 496 1045 l 1,14,-1
 611 1440 l 1,15,-1
 775 1440 l 1,16,-1
 667 1045 l 1,17,-1
 893 1045 l 1,18,-1
 1002 1440 l 1,19,-1
 1168 1440 l 1,20,-1
 1058 1045 l 1,21,-1
 1298 1045 l 1,22,-1
 1273 908 l 1,23,-1
 1020 908 l 1,24,-1
 945 644 l 1,25,-1
 1197 644 l 1,26,-1
 1174 503 l 1,27,-1
 912 503 l 1,28,-1
 795 92 l 1,29,-1
 630 92 l 1,30,-1
 742 503 l 1,31,-1
 515 503 l 1,32,-1
 402 92 l 1,33,-1
 233 92 l 1,4,-1
EndSplineSet
EndChar

StartChar: dollar
Encoding: 36 36 7
Width: 1209
GlyphClass: 2
Flags: W
LayerCount: 2
UndoRedoHistory
Layer: 1
Undoes
EndUndoes
Redoes
EndRedoes
EndUndoRedoHistory
Fore
SplineSet
1157 428 m 0,0,1
 1157 333 1157 333 1128 256.5 c 128,-1,2
 1099 180 1099 180 1049.5 128.5 c 128,-1,3
 1000 77 1000 77 931.5 42.5 c 128,-1,4
 863 8 863 8 786 -7.5 c 0,5,6
 734.143091841 -17.9387282657 734.143091841 -17.9387282657 678.204171486 -21.347324415 c 1,7,-1
 663 -195 l 1,8,-1
 575 -195 l 1,9,-1
 590.206855158 -22.4021939567 l 1,10,11
 519.623073368 -19.8121005763 519.623073368 -19.8121005763 453 -6 c 0,12,13
 371 11 371 11 317.5 35.5 c 128,-1,14
 264 60 264 60 223 84.5 c 128,-1,15
 182 109 182 109 164 126 c 2,16,-1
 145 143 l 1,17,-1
 250 295 l 1,18,19
 257 289 257 289 270 280 c 128,-1,20
 283 271 283 271 323.5 247 c 128,-1,21
 364 223 364 223 406.5 205 c 128,-1,22
 449 187 449 187 510.5 172 c 0,23,24
 559.065331214 160.154797265 559.065331214 160.154797265 606.071675452 157.663516385 c 1,25,-1
 649.803091712 654.015090926 l 1,26,27
 631.059421017 660.967674241 631.059421017 660.967674241 611 668 c 0,28,29
 540 693 540 693 487 717 c 128,-1,30
 434 741 434 741 383 774.5 c 128,-1,31
 332 808 332 808 300 846.5 c 128,-1,32
 268 885 268 885 248.5 937 c 128,-1,33
 229 989 229 989 229 1052 c 0,34,35
 229 1158 229 1158 271 1241.5 c 128,-1,36
 313 1325 313 1325 386 1377 c 128,-1,37
 459 1429 459 1429 553 1456 c 0,38,39
 632.843391293 1478.93374005 632.843391293 1478.93374005 722.787454821 1482.38761222 c 1,40,-1
 735 1621 l 1,41,-1
 822 1621 l 1,42,-1
 809.78821296 1481.52449519 l 1,43,44
 847.415033521 1479.4585609 847.415033521 1479.4585609 883 1474.5 c 0,45,46
 944 1466 944 1466 987.5 1452 c 128,-1,47
 1031 1438 1031 1438 1067.5 1421.5 c 128,-1,48
 1104 1405 1104 1405 1127 1388 c 128,-1,49
 1150 1371 1150 1371 1166.5 1357 c 128,-1,50
 1183 1343 1183 1343 1190 1334 c 2,51,-1
 1197 1326 l 1,52,-1
 1077 1185 l 1,53,54
 1073 1190 1073 1190 1065.5 1198 c 128,-1,55
 1058 1206 1058 1206 1030 1226 c 128,-1,56
 1002 1246 1002 1246 969.5 1261.5 c 128,-1,57
 937 1277 937 1277 883.5 1289.5 c 0,58,59
 840.537157503 1299.53804731 840.537157503 1299.53804731 794.027478742 1301.51510312 c 1,60,-1
 753.194727604 835.148586969 l 1,61,62
 762.746946802 831.691099151 762.746946802 831.691099151 773 828 c 0,63,64
 867 795 867 795 933 760 c 128,-1,65
 999 725 999 725 1052 678 c 128,-1,66
 1105 631 1105 631 1131 569 c 128,-1,67
 1157 507 1157 507 1157 428 c 0,0,1
694.104879817 160.260765709 m 1,68,69
 795.788633675 171.389531699 795.788633675 171.389531699 856.5 220.5 c 0,70,71
 935 284 935 284 935 406 c 0,72,73
 935 497 935 497 860 552 c 0,74,75
 815.003060571 584.997755581 815.003060571 584.997755581 734.370968921 620.155217358 c 1,76,-1
 694.104879817 160.260765709 l 1,68,69
706.591906442 1298.56813811 m 1,77,78
 680.773974238 1295.71777016 680.773974238 1295.71777016 656.5 1290.5 c 0,79,80
 603 1279 603 1279 556 1254.5 c 128,-1,81
 509 1230 509 1230 481.5 1185 c 128,-1,82
 454 1140 454 1140 454 1079 c 0,83,84
 454 1039 454 1039 469.5 1007 c 128,-1,85
 485 975 485 975 506.5 953.5 c 128,-1,86
 528 932 528 932 575.5 908 c 128,-1,87
 623 884 623 884 660.5 869.5 c 0,88,89
 664.31460479 868.025019481 664.31460479 868.025019481 668.517241839 866.420694876 c 1,90,-1
 706.591906442 1298.56813811 l 1,77,78
EndSplineSet
EndChar

StartChar: percent
Encoding: 37 37 8
Width: 1850
GlyphClass: 2
Flags: W
LayerCount: 2
UndoRedoHistory
Layer: 1
Undoes
EndUndoes
Redoes
EndRedoes
EndUndoRedoHistory
Fore
SplineSet
1452 735 m 0,0,1
 1603 735 1603 735 1686 642.5 c 128,-1,2
 1769 550 1769 550 1769 402 c 0,3,4
 1769 217 1769 217 1662.5 96.5 c 128,-1,5
 1556 -24 1556 -24 1383 -24 c 0,6,7
 1233 -24 1233 -24 1149 68 c 128,-1,8
 1065 160 1065 160 1065 308 c 0,9,10
 1065 491 1065 491 1172 613 c 128,-1,11
 1279 735 1279 735 1452 735 c 0,0,1
1594 401 m 0,12,13
 1594 491 1594 491 1557 546.5 c 128,-1,14
 1520 602 1520 602 1440 602 c 0,15,16
 1341 602 1341 602 1290.5 517.5 c 128,-1,17
 1240 433 1240 433 1240 311 c 0,18,19
 1240 219 1240 219 1278.5 164 c 128,-1,20
 1317 109 1317 109 1396 109 c 0,21,22
 1493 109 1493 109 1543.5 193 c 128,-1,23
 1594 277 1594 277 1594 401 c 0,12,13
402 0 m 1,24,-1
 1398 1456 l 1,25,-1
 1571 1456 l 1,26,-1
 574 0 l 1,27,-1
 402 0 l 1,24,-1
600 1474 m 0,28,29
 752 1474 752 1474 835 1381.5 c 128,-1,30
 918 1289 918 1289 918 1141 c 0,31,32
 918 956 918 956 811.5 835.5 c 128,-1,33
 705 715 705 715 532 715 c 0,34,35
 381 715 381 715 297 807 c 128,-1,36
 213 899 213 899 213 1047 c 0,37,38
 213 1231 213 1231 320 1352.5 c 128,-1,39
 427 1474 427 1474 600 1474 c 0,28,29
743 1139 m 0,40,41
 743 1229 743 1229 705.5 1285 c 128,-1,42
 668 1341 668 1341 588 1341 c 0,43,44
 489 1341 489 1341 439 1256.5 c 128,-1,45
 389 1172 389 1172 389 1050 c 0,46,47
 389 958 389 958 427 903.5 c 128,-1,48
 465 849 465 849 544 849 c 0,49,50
 641 849 641 849 692 932.5 c 128,-1,51
 743 1016 743 1016 743 1139 c 0,40,41
EndSplineSet
EndChar

StartChar: ampersand
Encoding: 38 38 9
Width: 1576
GlyphClass: 2
Flags: W
LayerCount: 2
UndoRedoHistory
Layer: 1
Undoes
EndUndoes
Redoes
EndRedoes
EndUndoRedoHistory
Fore
SplineSet
776 1314 m 0,0,1
 701 1314 701 1314 647 1272.5 c 128,-1,2
 593 1231 593 1231 593 1155 c 0,3,4
 593 1052 593 1052 703 931 c 1,5,6
 809 992 809 992 865.5 1052.5 c 128,-1,7
 922 1113 922 1113 922 1189 c 0,8,9
 922 1251 922 1251 878.5 1282.5 c 128,-1,10
 835 1314 835 1314 776 1314 c 0,0,1
641 731 m 1,11,12
 566 688 566 688 516 644.5 c 128,-1,13
 466 601 466 601 433 535 c 128,-1,14
 400 469 400 469 400 389 c 0,15,16
 400 281 400 281 473.5 212.5 c 128,-1,17
 547 144 547 144 672 144 c 0,18,19
 776 144 776 144 858 181.5 c 128,-1,20
 940 219 940 219 1017 289 c 1,21,-1
 641 731 l 1,11,12
391 1152 m 0,22,23
 391 1256 391 1256 449 1332 c 128,-1,24
 507 1408 507 1408 594 1443.5 c 128,-1,25
 681 1479 681 1479 782 1479 c 0,26,27
 872 1479 872 1479 948 1450.5 c 128,-1,28
 1024 1422 1024 1422 1075 1359.5 c 128,-1,29
 1126 1297 1126 1297 1126 1210 c 0,30,31
 1126 1088 1126 1088 1043.5 996 c 128,-1,32
 961 904 961 904 804 813 c 1,33,-1
 1139 422 l 1,34,35
 1264 602 1264 602 1291 904 c 1,36,-1
 1482 869 l 1,37,38
 1466 711 1466 711 1409 554 c 128,-1,39
 1352 397 1352 397 1263 284 c 1,40,41
 1322 221 1322 221 1392.5 178.5 c 128,-1,42
 1463 136 1463 136 1580 108 c 1,43,-1
 1415 -16 l 1,44,45
 1330 -3 1330 -3 1263 44.5 c 128,-1,46
 1196 92 1196 92 1132 162 c 1,47,48
 926 -27 926 -27 658 -27 c 0,49,50
 448 -27 448 -27 319 77 c 128,-1,51
 190 181 190 181 190 363 c 0,52,53
 190 454 190 454 215.5 528.5 c 128,-1,54
 241 603 241 603 291.5 662 c 128,-1,55
 342 721 342 721 399.5 764.5 c 128,-1,56
 457 808 457 808 540 855 c 1,57,58
 490 916 490 916 463.5 952 c 128,-1,59
 437 988 437 988 414 1043 c 128,-1,60
 391 1098 391 1098 391 1152 c 0,22,23
EndSplineSet
EndChar

StartChar: quotesingle
Encoding: 39 39 10
Width: 554
GlyphClass: 2
Flags: W
LayerCount: 2
UndoRedoHistory
Layer: 1
Undoes
EndUndoes
Redoes
EndRedoes
EndUndoRedoHistory
Fore
SplineSet
277 974 m 1,0,-1
 281 1456 l 1,1,-1
 508 1456 l 1,2,-1
 439 974 l 1,3,-1
 277 974 l 1,0,-1
EndSplineSet
EndChar

StartChar: parenleft
Encoding: 40 40 11
Width: 636
GlyphClass: 2
Flags: W
LayerCount: 2
UndoRedoHistory
Layer: 1
Undoes
EndUndoes
Redoes
EndRedoes
EndUndoRedoHistory
Fore
SplineSet
400 -181 m 1,0,1
 187 194 187 194 187 558 c 0,2,3
 187 738 187 738 235.5 909.5 c 128,-1,4
 284 1081 284 1081 357 1215 c 128,-1,5
 430 1349 430 1349 543 1506 c 1,6,-1
 735 1506 l 1,7,8
 567 1272 567 1272 478.5 1042 c 128,-1,9
 390 812 390 812 390 558 c 0,10,11
 390 378 390 378 442.5 185 c 128,-1,12
 495 -8 495 -8 588 -181 c 1,13,-1
 400 -181 l 1,0,1
EndSplineSet
EndChar

StartChar: parenright
Encoding: 41 41 12
Width: 634
GlyphClass: 2
Flags: W
LayerCount: 2
UndoRedoHistory
Layer: 1
Undoes
EndUndoes
Redoes
EndRedoes
EndUndoRedoHistory
Fore
SplineSet
46 -181 m 1,0,1
 205 43 205 43 295.5 276.5 c 128,-1,2
 386 510 386 510 386 769 c 0,3,4
 386 947 386 947 335 1140 c 128,-1,5
 284 1333 284 1333 189 1506 c 1,6,-1
 379 1506 l 1,7,8
 588 1134 588 1134 588 765 c 0,9,10
 588 627 588 627 562.5 498 c 128,-1,11
 537 369 537 369 487.5 251 c 128,-1,12
 438 133 438 133 380 32.5 c 128,-1,13
 322 -68 322 -68 242 -181 c 1,14,-1
 46 -181 l 1,0,1
EndSplineSet
EndChar

StartChar: asterisk
Encoding: 42 42 13
Width: 1094
GlyphClass: 2
Flags: W
LayerCount: 2
UndoRedoHistory
Layer: 1
Undoes
EndUndoes
Redoes
EndRedoes
EndUndoRedoHistory
Fore
SplineSet
774 696 m 1,0,-1
 636 949 l 1,1,-1
 455 699 l 1,2,-1
 310 800 l 1,3,-1
 530 1032 l 1,4,-1
 266 1127 l 1,5,-1
 333 1283 l 1,6,-1
 586 1163 l 1,7,-1
 579 1456 l 1,8,-1
 769 1456 l 1,9,-1
 720 1165 l 1,10,-1
 971 1284 l 1,11,-1
 1031 1133 l 1,12,-1
 756 1034 l 1,13,-1
 938 795 l 1,14,-1
 774 696 l 1,0,-1
EndSplineSet
EndChar

StartChar: plus
Encoding: 43 43 14
Width: 1223
GlyphClass: 2
Flags: W
LayerCount: 2
UndoRedoHistory
Layer: 1
Undoes
EndUndoes
Redoes
EndRedoes
EndUndoRedoHistory
Fore
SplineSet
531 100 m 1,0,-1
 567 508 l 1,1,-1
 176 508 l 1,2,-1
 191 679 l 1,3,-1
 584 679 l 1,4,-1
 621 1088 l 1,5,-1
 809 1088 l 1,6,-1
 773 679 l 1,7,-1
 1166 679 l 1,8,-1
 1151 508 l 1,9,-1
 757 508 l 1,10,-1
 721 100 l 1,11,-1
 531 100 l 1,0,-1
EndSplineSet
EndChar

StartChar: comma
Encoding: 44 44 15
Width: 525
GlyphClass: 2
Flags: W
LayerCount: 2
UndoRedoHistory
Layer: 1
Undoes
EndUndoes
Redoes
EndRedoes
EndUndoRedoHistory
Fore
SplineSet
49 -272 m 1,0,-1
 210 248 l 1,1,-1
 432 248 l 1,2,-1
 218 -272 l 1,3,-1
 49 -272 l 1,0,-1
EndSplineSet
EndChar

StartChar: hyphen
Encoding: 45 45 16
Width: 738
GlyphClass: 2
Flags: W
LayerCount: 2
UndoRedoHistory
Layer: 1
Undoes
EndUndoes
Redoes
EndRedoes
EndUndoRedoHistory
Fore
SplineSet
131 472 m 1,0,-1
 145 633 l 1,1,-1
 711 633 l 1,2,-1
 697 472 l 1,3,-1
 131 472 l 1,0,-1
EndSplineSet
EndChar

StartChar: period
Encoding: 46 46 17
Width: 542
GlyphClass: 2
Flags: W
LayerCount: 2
UndoRedoHistory
Layer: 1
Undoes
EndUndoes
Redoes
EndRedoes
EndUndoRedoHistory
Fore
SplineSet
145 0 m 1,0,-1
 165 239 l 1,1,-1
 416 239 l 1,2,-1
 396 0 l 1,3,-1
 145 0 l 1,0,-1
EndSplineSet
EndChar

StartChar: slash
Encoding: 47 47 18
Width: 965
GlyphClass: 2
Flags: W
LayerCount: 2
UndoRedoHistory
Layer: 1
Undoes
EndUndoes
Redoes
EndRedoes
EndUndoRedoHistory
Fore
SplineSet
125 0 m 1,0,-1
 799 1456 l 1,1,-1
 987 1456 l 1,2,-1
 313 0 l 1,3,-1
 125 0 l 1,0,-1
EndSplineSet
EndChar

StartChar: zero
Encoding: 48 48 19
Width: 1240
GlyphClass: 2
Flags: W
LayerCount: 2
UndoRedoHistory
Layer: 1
Undoes
EndUndoes
Redoes
EndRedoes
EndUndoRedoHistory
Fore
SplineSet
625 -23 m 0,0,1
 410 -23 410 -23 297 143 c 128,-1,2
 184 309 184 309 184 596 c 0,3,4
 184 858 184 858 251 1057.5 c 128,-1,5
 318 1257 318 1257 449 1370 c 128,-1,6
 580 1483 580 1483 759 1483 c 0,7,8
 975 1483 975 1483 1084 1326 c 128,-1,9
 1193 1169 1193 1169 1193 885 c 0,10,11
 1193 693 1193 693 1156 529 c 128,-1,12
 1119 365 1119 365 1049 241.5 c 128,-1,13
 979 118 979 118 870 47.5 c 128,-1,14
 761 -23 761 -23 625 -23 c 0,0,1
644 157 m 0,15,16
 730 157 730 157 796 219 c 128,-1,17
 862 281 862 281 900 387 c 128,-1,18
 938 493 938 493 956.5 619.5 c 128,-1,19
 975 746 975 746 975 889 c 0,20,21
 975 1302 975 1302 744 1302 c 0,22,23
 672 1302 672 1302 613 1260.5 c 128,-1,24
 554 1219 554 1219 515 1150 c 128,-1,25
 476 1081 476 1081 449.5 986.5 c 128,-1,26
 423 892 423 892 411.5 790.5 c 128,-1,27
 400 689 400 689 400 579 c 0,28,29
 400 157 400 157 644 157 c 0,15,16
EndSplineSet
EndChar

StartChar: one
Encoding: 49 49 20
Width: 1237
GlyphClass: 2
Flags: W
LayerCount: 2
UndoRedoHistory
Layer: 1
Undoes
EndUndoes
Redoes
EndRedoes
EndUndoRedoHistory
Fore
SplineSet
311 0 m 1,0,-1
 326 170 l 1,1,-1
 578 170 l 1,2,-1
 670 1228 l 1,3,4
 549 1166 549 1166 389 1106 c 1,5,-1
 406 1297 l 1,6,7
 533 1342 533 1342 728 1450 c 1,8,-1
 907 1471 l 1,9,-1
 793 169 l 1,10,-1
 1035 169 l 1,11,-1
 1020 0 l 1,12,-1
 311 0 l 1,0,-1
EndSplineSet
EndChar

StartChar: two
Encoding: 50 50 21
Width: 1237
GlyphClass: 2
Flags: W
LayerCount: 2
UndoRedoHistory
Layer: 1
Undoes
EndUndoes
Redoes
EndRedoes
EndUndoRedoHistory
Fore
SplineSet
168 0 m 1,0,-1
 183 164 l 1,1,-1
 682 651 l 2,2,3
 753 720 753 720 797 768 c 128,-1,4
 841 816 841 816 880.5 873 c 128,-1,5
 920 930 920 930 938 985.5 c 128,-1,6
 956 1041 956 1041 956 1103 c 0,7,8
 956 1202 956 1202 895.5 1252.5 c 128,-1,9
 835 1303 835 1303 728 1303 c 0,10,11
 616 1303 616 1303 519 1253 c 128,-1,12
 422 1203 422 1203 360 1107 c 1,13,-1
 247 1228 l 1,14,15
 318 1350 318 1350 450 1416 c 128,-1,16
 582 1482 582 1482 746 1482 c 0,17,18
 940 1482 940 1482 1054 1389 c 128,-1,19
 1168 1296 1168 1296 1168 1121 c 0,20,21
 1168 1035 1168 1035 1142 955.5 c 128,-1,22
 1116 876 1116 876 1062 798.5 c 128,-1,23
 1008 721 1008 721 952.5 659.5 c 128,-1,24
 897 598 897 598 810 514 c 2,25,-1
 456 174 l 1,26,-1
 1092 174 l 1,27,-1
 1076 0 l 1,28,-1
 168 0 l 1,0,-1
EndSplineSet
EndChar

StartChar: three
Encoding: 51 51 22
Width: 1237
GlyphClass: 2
Flags: W
LayerCount: 2
UndoRedoHistory
Layer: 1
Undoes
EndUndoes
Redoes
EndRedoes
EndUndoRedoHistory
Fore
SplineSet
1183 1135 m 0,0,1
 1183 993 1183 993 1099.5 897 c 128,-1,2
 1016 801 1016 801 867 770 c 1,3,4
 1003 743 1003 743 1081.5 655 c 128,-1,5
 1160 567 1160 567 1160 442 c 0,6,7
 1160 335 1160 335 1114 246 c 128,-1,8
 1068 157 1068 157 991.5 99 c 128,-1,9
 915 41 915 41 817 9 c 128,-1,10
 719 -23 719 -23 612 -23 c 0,11,12
 441 -23 441 -23 320 35.5 c 128,-1,13
 199 94 199 94 156 201 c 1,14,-1
 281 341 l 1,15,16
 327 254 327 254 418.5 205.5 c 128,-1,17
 510 157 510 157 627 157 c 0,18,19
 764 157 764 157 854 234 c 128,-1,20
 944 311 944 311 944 443 c 0,21,22
 944 671 944 671 596 671 c 0,23,24
 549 671 549 671 498 668 c 1,25,-1
 510 848 l 1,26,27
 538 847 538 847 596 847 c 0,28,29
 771 847 771 847 865.5 911 c 128,-1,30
 960 975 960 975 960 1125 c 0,31,32
 960 1213 960 1213 896.5 1258 c 128,-1,33
 833 1303 833 1303 726 1303 c 0,34,35
 491 1303 491 1303 358 1129 c 1,36,-1
 247 1263 l 1,37,38
 328 1374 328 1374 458 1428.5 c 128,-1,39
 588 1483 588 1483 754 1483 c 0,40,41
 869 1483 869 1483 965 1444.5 c 128,-1,42
 1061 1406 1061 1406 1122 1325 c 128,-1,43
 1183 1244 1183 1244 1183 1135 c 0,0,1
EndSplineSet
EndChar

StartChar: four
Encoding: 52 52 23
Width: 1237
GlyphClass: 2
Flags: W
LayerCount: 2
UndoRedoHistory
Layer: 1
Undoes
EndUndoes
Redoes
EndRedoes
EndUndoRedoHistory
Fore
SplineSet
350 552 m 1,0,-1
 792 552 l 1,1,-1
 859 1240 l 1,2,-1
 748 1082 l 1,3,-1
 350 552 l 1,0,-1
741 0 m 1,4,-1
 776 399 l 1,5,-1
 140 399 l 1,6,-1
 152 538 l 1,7,-1
 833 1456 l 1,8,-1
 1081 1456 l 1,9,-1
 1001 552 l 1,10,-1
 1209 552 l 1,11,-1
 1194 399 l 1,12,-1
 989 399 l 1,13,-1
 955 0 l 1,14,-1
 741 0 l 1,4,-1
EndSplineSet
EndChar

StartChar: five
Encoding: 53 53 24
Width: 1237
GlyphClass: 2
Flags: W
LayerCount: 2
UndoRedoHistory
Layer: 1
Undoes
EndUndoes
Redoes
EndRedoes
EndUndoRedoHistory
Fore
SplineSet
1169 526 m 0,0,1
 1169 362 1169 362 1095 235.5 c 128,-1,2
 1021 109 1021 109 896.5 43 c 128,-1,3
 772 -23 772 -23 619 -23 c 0,4,5
 494 -23 494 -23 380.5 24 c 128,-1,6
 267 71 267 71 185 163 c 1,7,-1
 304 313 l 1,8,9
 427 157 427 157 631 157 c 0,10,11
 773 157 773 157 862.5 255.5 c 128,-1,12
 952 354 952 354 952 510 c 0,13,14
 952 638 952 638 885.5 712.5 c 128,-1,15
 819 787 819 787 719 787 c 0,16,17
 567 787 567 787 496 662 c 1,18,-1
 305 693 l 1,19,-1
 382 1456 l 1,20,-1
 1174 1456 l 1,21,-1
 1159 1276 l 1,22,-1
 558 1276 l 1,23,-1
 497 855 l 1,24,25
 585 958 585 958 763 958 c 0,26,27
 949 958 949 958 1059 836.5 c 128,-1,28
 1169 715 1169 715 1169 526 c 0,0,1
EndSplineSet
EndChar

StartChar: six
Encoding: 54 54 25
Width: 1237
GlyphClass: 2
Flags: W
LayerCount: 2
UndoRedoHistory
Layer: 1
Undoes
EndUndoes
Redoes
EndRedoes
EndUndoRedoHistory
Fore
SplineSet
742 775 m 0,0,1
 602 775 602 775 515 683.5 c 128,-1,2
 428 592 428 592 428 446 c 0,3,4
 428 311 428 311 497.5 234 c 128,-1,5
 567 157 567 157 685 157 c 0,6,7
 817 157 817 157 899.5 257 c 128,-1,8
 982 357 982 357 982 509 c 0,9,10
 982 629 982 629 921 702 c 128,-1,11
 860 775 860 775 742 775 c 0,0,1
1200 526 m 0,12,13
 1200 287 1200 287 1052 132 c 128,-1,14
 904 -23 904 -23 670 -23 c 0,15,16
 439 -23 439 -23 322 134.5 c 128,-1,17
 205 292 205 292 205 568 c 0,18,19
 205 754 205 754 248.5 919.5 c 128,-1,20
 292 1085 292 1085 373 1210.5 c 128,-1,21
 454 1336 454 1336 578.5 1409.5 c 128,-1,22
 703 1483 703 1483 854 1483 c 0,23,24
 1069 1483 1069 1483 1194 1363 c 1,25,-1
 1109 1208 l 1,26,27
 1000 1302 1000 1302 839 1302 c 0,28,29
 727 1302 727 1302 639 1227 c 128,-1,30
 551 1152 551 1152 502 1035 c 128,-1,31
 453 918 453 918 438 773 c 1,32,33
 570 947 570 947 787 947 c 0,34,35
 974 947 974 947 1087 833 c 128,-1,36
 1200 719 1200 719 1200 526 c 0,12,13
EndSplineSet
EndChar

StartChar: seven
Encoding: 55 55 26
Width: 1240
GlyphClass: 2
Flags: W
LayerCount: 2
UndoRedoHistory
Layer: 1
Undoes
EndUndoes
Redoes
EndRedoes
EndUndoRedoHistory
Fore
SplineSet
326 0 m 1,0,-1
 965 1282 l 1,1,-1
 260 1282 l 1,2,-1
 276 1456 l 1,3,-1
 1218 1456 l 1,4,-1
 1205 1297 l 1,5,-1
 554 0 l 1,6,-1
 326 0 l 1,0,-1
EndSplineSet
EndChar

StartChar: eight
Encoding: 56 56 27
Width: 1237
GlyphClass: 2
Flags: W
LayerCount: 2
UndoRedoHistory
Layer: 1
Undoes
EndUndoes
Redoes
EndRedoes
EndUndoRedoHistory
Fore
SplineSet
748 1313 m 0,0,1
 633 1313 633 1313 555.5 1250.5 c 128,-1,2
 478 1188 478 1188 478 1077 c 0,3,4
 478 990 478 990 538 931 c 128,-1,5
 598 872 598 872 708 847 c 1,6,7
 836 876 836 876 909.5 946 c 128,-1,8
 983 1016 983 1016 983 1123 c 0,9,10
 983 1210 983 1210 915.5 1261.5 c 128,-1,11
 848 1313 848 1313 748 1313 c 0,0,1
696 681 m 1,12,13
 559 653 559 653 473.5 572.5 c 128,-1,14
 388 492 388 492 388 370 c 0,15,16
 388 267 388 267 458.5 208.5 c 128,-1,17
 529 150 529 150 648 150 c 0,18,19
 780 150 780 150 866 221 c 128,-1,20
 952 292 952 292 952 419 c 0,21,22
 952 514 952 514 881 584.5 c 128,-1,23
 810 655 810 655 696 681 c 1,12,13
1162 415 m 0,24,25
 1162 311 1162 311 1117 226 c 128,-1,26
 1072 141 1072 141 997.5 87.5 c 128,-1,27
 923 34 923 34 829 5.5 c 128,-1,28
 735 -23 735 -23 634 -23 c 0,29,30
 503 -23 503 -23 399.5 19.5 c 128,-1,31
 296 62 296 62 234.5 147 c 128,-1,32
 173 232 173 232 173 347 c 0,33,34
 173 495 173 495 257 601.5 c 128,-1,35
 341 708 341 708 491 763 c 1,36,37
 269 860 269 860 269 1071 c 0,38,39
 269 1199 269 1199 336.5 1294 c 128,-1,40
 404 1389 404 1389 515 1436 c 128,-1,41
 626 1483 626 1483 763 1483 c 0,42,43
 959 1483 959 1483 1075.5 1391.5 c 128,-1,44
 1192 1300 1192 1300 1192 1139 c 0,45,46
 1192 1000 1192 1000 1118.5 905.5 c 128,-1,47
 1045 811 1045 811 914 762 c 1,48,49
 1030 716 1030 716 1096 624.5 c 128,-1,50
 1162 533 1162 533 1162 415 c 0,24,25
EndSplineSet
EndChar

StartChar: nine
Encoding: 57 57 28
Width: 1237
GlyphClass: 2
Flags: W
LayerCount: 2
UndoRedoHistory
Layer: 1
Undoes
EndUndoes
Redoes
EndRedoes
EndUndoRedoHistory
Fore
SplineSet
735 1302 m 0,0,1
 601 1302 601 1302 520 1206.5 c 128,-1,2
 439 1111 439 1111 439 959 c 0,3,4
 439 843 439 843 496.5 775 c 128,-1,5
 554 707 554 707 673 707 c 0,6,7
 805 707 805 707 892.5 795.5 c 128,-1,8
 980 884 980 884 980 1037 c 0,9,10
 980 1150 980 1150 916.5 1226 c 128,-1,11
 853 1302 853 1302 735 1302 c 0,0,1
222 943 m 0,12,13
 222 1179 222 1179 369 1331 c 128,-1,14
 516 1483 516 1483 750 1483 c 0,15,16
 965 1483 965 1483 1077 1335.5 c 128,-1,17
 1189 1188 1189 1188 1189 909 c 0,18,19
 1189 697 1189 697 1141 521 c 128,-1,20
 1093 345 1093 345 1009.5 226 c 128,-1,21
 926 107 926 107 811.5 41.5 c 128,-1,22
 697 -24 697 -24 565 -24 c 0,23,24
 394 -24 394 -24 200 77 c 1,25,-1
 289 244 l 1,26,27
 431 158 431 158 564 158 c 0,28,29
 721 158 721 158 828 281.5 c 128,-1,30
 935 405 935 405 956 644 c 1,31,-1
 959 690 l 1,32,33
 854 532 854 532 633 532 c 0,34,35
 441 532 441 532 331.5 644.5 c 128,-1,36
 222 757 222 757 222 943 c 0,12,13
EndSplineSet
EndChar

StartChar: colon
Encoding: 58 58 29
Width: 542
GlyphClass: 2
Flags: W
LayerCount: 2
UndoRedoHistory
Layer: 1
Undoes
EndUndoes
Redoes
EndRedoes
EndUndoRedoHistory
Fore
SplineSet
164 0 m 1,0,-1
 185 238 l 1,1,-1
 418 238 l 1,2,-1
 397 0 l 1,3,-1
 164 0 l 1,0,-1
229 862 m 1,4,-1
 250 1100 l 1,5,-1
 483 1100 l 1,6,-1
 462 862 l 1,7,-1
 229 862 l 1,4,-1
EndSplineSet
EndChar

StartChar: semicolon
Encoding: 59 59 30
Width: 542
GlyphClass: 2
Flags: W
LayerCount: 2
UndoRedoHistory
Layer: 1
Undoes
EndUndoes
Redoes
EndRedoes
EndUndoRedoHistory
Fore
SplineSet
229 862 m 1,0,-1
 250 1100 l 1,1,-1
 483 1100 l 1,2,-1
 462 862 l 1,3,-1
 229 862 l 1,0,-1
47 -247 m 1,4,-1
 196 236 l 1,5,-1
 428 236 l 1,6,-1
 216 -247 l 1,7,-1
 47 -247 l 1,4,-1
EndSplineSet
EndChar

StartChar: less
Encoding: 60 60 31
Width: 1329
GlyphClass: 2
Flags: W
LayerCount: 2
UndoRedoHistory
Layer: 1
Undoes
EndUndoes
Redoes
EndRedoes
EndUndoRedoHistory
Fore
SplineSet
1109 38 m 1,0,-1
 184 516 l 1,1,-1
 192 617 l 1,2,-1
 1206 1084 l 1,3,-1
 1189 895 l 1,4,-1
 448 564 l 1,5,-1
 1126 224 l 1,6,-1
 1109 38 l 1,0,-1
EndSplineSet
EndChar

StartChar: equal
Encoding: 61 61 32
Width: 1330
GlyphClass: 2
Flags: W
LayerCount: 2
UndoRedoHistory
Layer: 1
Undoes
EndUndoes
Redoes
EndRedoes
EndUndoRedoHistory
Fore
SplineSet
180 274 m 1,0,-1
 195 441 l 1,1,-1
 1200 441 l 1,2,-1
 1186 274 l 1,3,-1
 180 274 l 1,0,-1
214 666 m 1,4,-1
 229 833 l 1,5,-1
 1233 833 l 1,6,-1
 1218 666 l 1,7,-1
 214 666 l 1,4,-1
EndSplineSet
EndChar

StartChar: greater
Encoding: 62 62 33
Width: 1329
GlyphClass: 2
Flags: W
LayerCount: 2
UndoRedoHistory
Layer: 1
Undoes
EndUndoes
Redoes
EndRedoes
EndUndoRedoHistory
Fore
SplineSet
211 43 m 1,0,-1
 228 234 l 1,1,-1
 962 556 l 1,2,-1
 291 903 l 1,3,-1
 308 1090 l 1,4,-1
 1234 600 l 1,5,-1
 1224 494 l 1,6,-1
 211 43 l 1,0,-1
EndSplineSet
EndChar

StartChar: question
Encoding: 63 63 34
Width: 1049
GlyphClass: 2
Flags: W
LayerCount: 2
UndoRedoHistory
Layer: 1
Undoes
EndUndoes
Redoes
EndRedoes
EndUndoRedoHistory
Fore
SplineSet
355 0 m 1,0,-1
 376 234 l 1,1,-1
 567 234 l 1,2,-1
 546 0 l 1,3,-1
 355 0 l 1,0,-1
386 382 m 1,4,-1
 396 537 l 1,5,6
 401 590 401 590 426.5 639.5 c 128,-1,7
 452 689 452 689 490 728.5 c 128,-1,8
 528 768 528 768 572 806.5 c 128,-1,9
 616 845 616 845 659.5 883 c 128,-1,10
 703 921 703 921 739 959.5 c 128,-1,11
 775 998 775 998 797 1044 c 128,-1,12
 819 1090 819 1090 819 1139 c 0,13,14
 819 1222 819 1222 756 1263 c 128,-1,15
 693 1304 693 1304 592 1304 c 0,16,17
 455 1304 455 1304 298 1229 c 1,18,-1
 313 1411 l 1,19,20
 472 1481 472 1481 634 1481 c 0,21,22
 811 1481 811 1481 920 1400 c 128,-1,23
 1029 1319 1029 1319 1029 1165 c 0,24,25
 1029 1097 1029 1097 1005.5 1038.5 c 128,-1,26
 982 980 982 980 944.5 936.5 c 128,-1,27
 907 893 907 893 861 852.5 c 128,-1,28
 815 812 815 812 768 772.5 c 128,-1,29
 721 733 721 733 681 691.5 c 128,-1,30
 641 650 641 650 613 595 c 128,-1,31
 585 540 585 540 580 478 c 0,32,33
 580 475 580 475 571 382 c 1,34,-1
 386 382 l 1,4,-1
EndSplineSet
EndChar

StartChar: at
Encoding: 64 64 35
Width: 1722
GlyphClass: 2
Flags: W
LayerCount: 2
UndoRedoHistory
Layer: 1
Undoes
EndUndoes
Redoes
EndRedoes
EndUndoRedoHistory
Fore
SplineSet
1047 1350 m 0,0,1
 908 1350 908 1350 779.5 1298 c 128,-1,2
 651 1246 651 1246 552 1153 c 128,-1,3
 453 1060 453 1060 393.5 920 c 128,-1,4
 334 780 334 780 334 616 c 0,5,6
 334 444 334 444 413 315 c 128,-1,7
 492 186 492 186 624.5 120.5 c 128,-1,8
 757 55 757 55 921 55 c 0,9,10
 1181 55 1181 55 1401 208 c 1,11,-1
 1462 122 l 1,12,13
 1348 26 1348 26 1200.5 -27.5 c 128,-1,14
 1053 -81 1053 -81 897 -81 c 0,15,16
 685 -81 685 -81 519.5 4 c 128,-1,17
 354 89 354 89 261 246 c 128,-1,18
 168 403 168 403 168 607 c 0,19,20
 168 761 168 761 215.5 899.5 c 128,-1,21
 263 1038 263 1038 346.5 1142.5 c 128,-1,22
 430 1247 430 1247 540 1323.5 c 128,-1,23
 650 1400 650 1400 780 1439.5 c 128,-1,24
 910 1479 910 1479 1047 1479 c 0,25,26
 1235 1479 1235 1479 1382 1402 c 128,-1,27
 1529 1325 1529 1325 1610.5 1186 c 128,-1,28
 1692 1047 1692 1047 1692 869 c 0,29,30
 1692 715 1692 715 1633.5 574 c 128,-1,31
 1575 433 1575 433 1475 347 c 128,-1,32
 1375 261 1375 261 1263 261 c 0,33,34
 1169 261 1169 261 1121.5 310 c 128,-1,35
 1074 359 1074 359 1073 444 c 1,36,37
 1076 484 1076 484 1077 490 c 1,38,39
 1022 392 1022 392 946 333.5 c 128,-1,40
 870 275 870 275 781 275 c 0,41,42
 670 275 670 275 595 355.5 c 128,-1,43
 520 436 520 436 520 582 c 0,44,45
 520 697 520 697 566 805 c 128,-1,46
 612 913 612 913 683 988.5 c 128,-1,47
 754 1064 754 1064 840 1109.5 c 128,-1,48
 926 1155 926 1155 1006 1155 c 0,49,50
 1077 1155 1077 1155 1127.5 1117.5 c 128,-1,51
 1178 1080 1178 1080 1196 1008 c 1,52,-1
 1225 1118 l 1,53,-1
 1397 1118 l 1,54,-1
 1290 743 l 2,55,56
 1281 711 1281 711 1264 655 c 128,-1,57
 1247 599 1247 599 1241.5 578.5 c 128,-1,58
 1236 558 1236 558 1230.5 528 c 128,-1,59
 1225 498 1225 498 1225 473 c 0,60,61
 1225 382 1225 382 1291 382 c 0,62,63
 1350 382 1350 382 1411 447.5 c 128,-1,64
 1472 513 1472 513 1513.5 627.5 c 128,-1,65
 1555 742 1555 742 1555 867 c 0,66,67
 1555 1090 1555 1090 1412.5 1220 c 128,-1,68
 1270 1350 1270 1350 1047 1350 c 0,0,1
1013 991 m 0,69,70
 936 991 936 991 864 926.5 c 128,-1,71
 792 862 792 862 749.5 765 c 128,-1,72
 707 668 707 668 707 575 c 0,73,74
 707 508 707 508 738.5 469.5 c 128,-1,75
 770 431 770 431 829 431 c 0,76,77
 902 431 902 431 970.5 493.5 c 128,-1,78
 1039 556 1039 556 1081 657 c 128,-1,79
 1123 758 1123 758 1123 863 c 0,80,81
 1123 991 1123 991 1013 991 c 0,69,70
EndSplineSet
EndChar

StartChar: A
Encoding: 65 65 36
Width: 1405
GlyphClass: 2
Flags: W
AnchorPoint: "Anchor-1" 1261 4 basechar 0
LayerCount: 2
UndoRedoHistory
Layer: 1
Undoes
EndUndoes
Redoes
EndRedoes
EndUndoRedoHistory
Fore
SplineSet
24 0 m 1,0,-1
 713 1456 l 1,1,-1
 932 1456 l 1,2,-1
 1387 0 l 1,3,-1
 1156 0 l 1,4,-1
 1038 378 l 1,5,-1
 432 378 l 1,6,-1
 261 0 l 1,7,-1
 24 0 l 1,0,-1
509 561 m 1,8,-1
 983 561 l 1,9,-1
 868 1002 l 1,10,-1
 804 1232 l 1,11,-1
 703 1002 l 1,12,-1
 509 561 l 1,8,-1
EndSplineSet
EndChar

StartChar: B
Encoding: 66 66 37
Width: 1339
GlyphClass: 2
Flags: W
LayerCount: 2
UndoRedoHistory
Layer: 1
Undoes
EndUndoes
Redoes
EndRedoes
EndUndoRedoHistory
Fore
SplineSet
689 853 m 2,0,1
 1035 853 1035 853 1035 1095 c 0,2,3
 1035 1151 1035 1151 1012 1188.5 c 128,-1,4
 989 1226 989 1226 943 1246.5 c 128,-1,5
 897 1267 897 1267 840.5 1275.5 c 128,-1,6
 784 1284 784 1284 705 1284 c 2,7,-1
 512 1284 l 1,8,-1
 475 853 l 1,9,-1
 689 853 l 2,0,1
680 172 m 2,10,11
 854 172 854 172 950 249 c 128,-1,12
 1046 326 1046 326 1046 466 c 0,13,14
 1046 586 1046 586 962.5 633.5 c 128,-1,15
 879 681 879 681 693 681 c 2,16,-1
 461 681 l 1,17,-1
 416 172 l 1,18,-1
 680 172 l 2,10,11
1260 1138 m 0,19,20
 1260 1010 1260 1010 1193.5 920.5 c 128,-1,21
 1127 831 1127 831 1002 786 c 1,22,23
 1131 758 1131 758 1200.5 673.5 c 128,-1,24
 1270 589 1270 589 1270 464 c 0,25,26
 1270 377 1270 377 1234 295 c 128,-1,27
 1198 213 1198 213 1131.5 146.5 c 128,-1,28
 1065 80 1065 80 958 40 c 128,-1,29
 851 0 851 0 721 0 c 2,30,-1
 189 0 l 1,31,-1
 317 1456 l 1,32,-1
 669 1456 l 2,33,34
 733 1456 733 1456 780.5 1454.5 c 128,-1,35
 828 1453 828 1453 893.5 1446 c 128,-1,36
 959 1439 959 1439 1006.5 1426.5 c 128,-1,37
 1054 1414 1054 1414 1104.5 1390 c 128,-1,38
 1155 1366 1155 1366 1187 1333 c 128,-1,39
 1219 1300 1219 1300 1239.5 1250.5 c 128,-1,40
 1260 1201 1260 1201 1260 1138 c 0,19,20
EndSplineSet
EndChar

StartChar: C
Encoding: 67 67 38
Width: 1402
GlyphClass: 2
Flags: W
AnchorPoint: "Anchor-0" 832 5 basechar 0
LayerCount: 2
UndoRedoHistory
Layer: 1
Undoes
EndUndoes
Redoes
EndRedoes
EndUndoRedoHistory
Fore
SplineSet
841 -23 m 0,0,1
 676 -23 676 -23 545.5 29.5 c 128,-1,2
 415 82 415 82 333 174 c 128,-1,3
 251 266 251 266 208.5 386 c 128,-1,4
 166 506 166 506 166 645 c 0,5,6
 166 777 166 777 200.5 902 c 128,-1,7
 235 1027 235 1027 302.5 1131.5 c 128,-1,8
 370 1236 370 1236 462 1315 c 128,-1,9
 554 1394 554 1394 675.5 1438.5 c 128,-1,10
 797 1483 797 1483 933 1483 c 0,11,12
 1223 1483 1223 1483 1398 1317 c 1,13,-1
 1304 1174 l 1,14,15
 1135 1302 1135 1302 941 1302 c 0,16,17
 815 1302 815 1302 709.5 1249 c 128,-1,18
 604 1196 604 1196 534.5 1107 c 128,-1,19
 465 1018 465 1018 426.5 901 c 128,-1,20
 388 784 388 784 388 655 c 0,21,22
 388 552 388 552 415.5 464 c 128,-1,23
 443 376 443 376 498 306.5 c 128,-1,24
 553 237 553 237 644.5 197 c 128,-1,25
 736 157 736 157 854 157 c 0,26,27
 960 157 960 157 1071 196.5 c 128,-1,28
 1182 236 1182 236 1275 308 c 1,29,-1
 1330 134 l 1,30,31
 1117 -23 1117 -23 841 -23 c 0,0,1
EndSplineSet
EndChar

StartChar: D
Encoding: 68 68 39
Width: 1535
GlyphClass: 2
Flags: W
LayerCount: 2
UndoRedoHistory
Layer: 1
Undoes
EndUndoes
Redoes
EndRedoes
EndUndoRedoHistory
Fore
SplineSet
189 0 m 1,0,-1
 317 1456 l 1,1,-1
 659 1456 l 2,2,3
 857 1456 857 1456 1010 1419 c 128,-1,4
 1163 1382 1163 1382 1273 1305 c 128,-1,5
 1383 1228 1383 1228 1440.5 1105.5 c 128,-1,6
 1498 983 1498 983 1498 817 c 0,7,8
 1498 425 1498 425 1265.5 212.5 c 128,-1,9
 1033 0 1033 0 617 0 c 2,10,-1
 189 0 l 1,0,-1
647 172 m 2,11,12
 953 172 953 172 1114 340 c 128,-1,13
 1275 508 1275 508 1275 808 c 0,14,15
 1275 1052 1275 1052 1127 1168 c 128,-1,16
 979 1284 979 1284 666 1284 c 2,17,-1
 514 1284 l 1,18,-1
 416 172 l 1,19,-1
 647 172 l 2,11,12
EndSplineSet
EndChar

StartChar: E
Encoding: 69 69 40
Width: 1197
GlyphClass: 2
Flags: W
AnchorPoint: "Anchor-1" 881 4 basechar 0
LayerCount: 2
UndoRedoHistory
Layer: 1
Undoes
EndUndoes
Redoes
EndRedoes
EndUndoRedoHistory
Fore
SplineSet
188 0 m 1,0,-1
 316 1456 l 1,1,-1
 1202 1456 l 1,2,-1
 1187 1284 l 1,3,-1
 511 1284 l 1,4,-1
 474 848 l 1,5,-1
 1112 848 l 1,6,-1
 1096 676 l 1,7,-1
 459 676 l 1,8,-1
 416 172 l 1,9,-1
 1121 172 l 1,10,-1
 1104 0 l 1,11,-1
 188 0 l 1,0,-1
EndSplineSet
EndChar

StartChar: F
Encoding: 70 70 41
Width: 1126
GlyphClass: 2
Flags: W
LayerCount: 2
UndoRedoHistory
Layer: 1
Undoes
EndUndoes
Redoes
EndRedoes
EndUndoRedoHistory
Fore
SplineSet
189 0 m 1,0,-1
 317 1456 l 1,1,-1
 1165 1456 l 1,2,-1
 1150 1284 l 1,3,-1
 512 1284 l 1,4,-1
 473 846 l 1,5,-1
 1077 846 l 1,6,-1
 1062 674 l 1,7,-1
 458 674 l 1,8,-1
 400 0 l 1,9,-1
 189 0 l 1,0,-1
EndSplineSet
EndChar

StartChar: G
Encoding: 71 71 42
Width: 1522
GlyphClass: 2
Flags: W
LayerCount: 2
UndoRedoHistory
Layer: 1
Undoes
EndUndoes
Redoes
EndRedoes
EndUndoRedoHistory
Fore
SplineSet
843 -23 m 0,0,1
 512 -23 512 -23 337.5 147 c 128,-1,2
 163 317 163 317 163 612 c 0,3,4
 163 855 163 855 265 1052.5 c 128,-1,5
 367 1250 367 1250 558 1366.5 c 128,-1,6
 749 1483 749 1483 995 1483 c 0,7,8
 1082 1483 1082 1483 1161.5 1468 c 128,-1,9
 1241 1453 1241 1453 1293 1431.5 c 128,-1,10
 1345 1410 1345 1410 1384.5 1389 c 128,-1,11
 1424 1368 1424 1368 1442 1353 c 2,12,-1
 1459 1338 l 1,13,-1
 1368 1182 l 1,14,15
 1363 1187 1363 1187 1352.5 1195 c 128,-1,16
 1342 1203 1342 1203 1306.5 1223.5 c 128,-1,17
 1271 1244 1271 1244 1230 1260 c 128,-1,18
 1189 1276 1189 1276 1122 1289 c 128,-1,19
 1055 1302 1055 1302 983 1302 c 0,20,21
 845 1302 845 1302 730.5 1247.5 c 128,-1,22
 616 1193 616 1193 541.5 1101.5 c 128,-1,23
 467 1010 467 1010 426 890 c 128,-1,24
 385 770 385 770 385 638 c 0,25,26
 385 415 385 415 508 286 c 128,-1,27
 631 157 631 157 871 157 c 0,28,29
 1038 157 1038 157 1180 207 c 1,30,-1
 1214 602 l 1,31,-1
 845 602 l 1,32,-1
 860 774 l 1,33,-1
 1429 774 l 1,34,-1
 1372 87 l 1,35,36
 1134 -23 1134 -23 843 -23 c 0,0,1
EndSplineSet
EndChar

StartChar: H
Encoding: 72 72 43
Width: 1537
GlyphClass: 2
Flags: W
LayerCount: 2
UndoRedoHistory
Layer: 1
Undoes
EndUndoes
Redoes
EndRedoes
EndUndoRedoHistory
Fore
SplineSet
189 0 m 1,0,-1
 317 1456 l 1,1,-1
 527 1456 l 1,2,-1
 474 830 l 1,3,-1
 1211 830 l 1,4,-1
 1266 1456 l 1,5,-1
 1476 1456 l 1,6,-1
 1348 0 l 1,7,-1
 1140 0 l 1,8,-1
 1196 657 l 1,9,-1
 460 657 l 1,10,-1
 402 0 l 1,11,-1
 189 0 l 1,0,-1
EndSplineSet
EndChar

StartChar: I
Encoding: 73 73 44
Width: 581
GlyphClass: 2
Flags: W
AnchorPoint: "Anchor-1" 291 0 basechar 0
LayerCount: 2
UndoRedoHistory
Layer: 1
Undoes
EndUndoes
Redoes
EndRedoes
EndUndoRedoHistory
Fore
SplineSet
182 0 m 1,0,-1
 310 1456 l 1,1,-1
 520 1456 l 1,2,-1
 392 0 l 1,3,-1
 182 0 l 1,0,-1
EndSplineSet
EndChar

StartChar: J
Encoding: 74 74 45
Width: 750
GlyphClass: 2
Flags: W
LayerCount: 2
UndoRedoHistory
Layer: 1
Undoes
EndUndoes
Redoes
EndRedoes
EndUndoRedoHistory
Fore
SplineSet
173 -350 m 0,0,1
 45 -350 45 -350 -92 -298 c 1,2,-1
 -45 -133 l 1,3,4
 71 -171 71 -171 157 -171 c 0,5,6
 260 -171 260 -171 303 -106.5 c 128,-1,7
 346 -42 346 -42 358 98 c 2,8,-1
 477 1456 l 1,9,-1
 690 1456 l 1,10,-1
 571 99 l 2,11,12
 552 -123 552 -123 450.5 -236.5 c 128,-1,13
 349 -350 349 -350 173 -350 c 0,0,1
EndSplineSet
EndChar

StartChar: K
Encoding: 75 75 46
Width: 1299
GlyphClass: 2
Flags: W
LayerCount: 2
UndoRedoHistory
Layer: 1
Undoes
EndUndoes
Redoes
EndRedoes
EndUndoRedoHistory
Fore
SplineSet
189 0 m 1,0,-1
 317 1456 l 1,1,-1
 527 1456 l 1,2,-1
 469 803 l 1,3,-1
 1128 1456 l 1,4,-1
 1391 1456 l 1,5,-1
 676 749 l 1,6,-1
 1308 0 l 1,7,-1
 1036 0 l 1,8,-1
 460 682 l 1,9,-1
 401 0 l 1,10,-1
 189 0 l 1,0,-1
EndSplineSet
EndChar

StartChar: L
Encoding: 76 76 47
Width: 1114
GlyphClass: 2
Flags: W
LayerCount: 2
UndoRedoHistory
Layer: 1
Undoes
EndUndoes
Redoes
EndRedoes
EndUndoRedoHistory
Fore
SplineSet
187 0 m 1,0,-1
 315 1456 l 1,1,-1
 525 1456 l 1,2,-1
 412 172 l 1,3,-1
 1088 172 l 1,4,-1
 1073 0 l 1,5,-1
 187 0 l 1,0,-1
EndSplineSet
EndChar

StartChar: M
Encoding: 77 77 48
Width: 1929
GlyphClass: 2
Flags: W
LayerCount: 2
UndoRedoHistory
Layer: 1
Undoes
EndUndoes
Redoes
EndRedoes
EndUndoRedoHistory
Fore
SplineSet
189 0 m 1,0,-1
 317 1456 l 1,1,-1
 570 1456 l 1,2,-1
 914 505 l 1,3,-1
 992 289 l 1,4,-1
 1109 510 l 1,5,-1
 1623 1456 l 1,6,-1
 1868 1456 l 1,7,-1
 1740 0 l 1,8,-1
 1540 0 l 1,9,-1
 1639 1112 l 1,10,-1
 1542 932 l 1,11,-1
 1043 0 l 1,12,-1
 891 0 l 1,13,-1
 553 949 l 1,14,-1
 492 1125 l 1,15,-1
 394 0 l 1,16,-1
 189 0 l 1,0,-1
EndSplineSet
EndChar

StartChar: N
Encoding: 78 78 49
Width: 1582
GlyphClass: 2
Flags: W
LayerCount: 2
UndoRedoHistory
Layer: 1
Undoes
EndUndoes
Redoes
EndRedoes
EndUndoRedoHistory
Fore
SplineSet
189 0 m 1,0,-1
 317 1456 l 1,1,-1
 544 1456 l 1,2,-1
 1130 457 l 1,3,-1
 1218 306 l 1,4,-1
 1319 1456 l 1,5,-1
 1522 1456 l 1,6,-1
 1394 0 l 1,7,-1
 1166 0 l 1,8,-1
 577 996 l 1,9,-1
 490 1148 l 1,10,-1
 390 0 l 1,11,-1
 189 0 l 1,0,-1
EndSplineSet
EndChar

StartChar: O
Encoding: 79 79 50
Width: 1638
GlyphClass: 2
Flags: W
AnchorPoint: "Anchor-1" 838 5 basechar 0
LayerCount: 2
UndoRedoHistory
Layer: 1
Undoes
EndUndoes
Redoes
EndRedoes
EndUndoRedoHistory
Fore
SplineSet
1601 821 m 0,0,1
 1601 572 1601 572 1506 381 c 128,-1,2
 1411 190 1411 190 1233.5 83.5 c 128,-1,3
 1056 -23 1056 -23 820 -23 c 0,4,5
 509 -23 509 -23 337.5 152.5 c 128,-1,6
 166 328 166 328 166 633 c 0,7,8
 166 818 166 818 222 975.5 c 128,-1,9
 278 1133 278 1133 380 1245 c 128,-1,10
 482 1357 482 1357 630.5 1420 c 128,-1,11
 779 1483 779 1483 957 1483 c 0,12,13
 1260 1483 1260 1483 1430.5 1305 c 128,-1,14
 1601 1127 1601 1127 1601 821 c 0,0,1
936 1303 m 0,15,16
 768 1303 768 1303 643 1211.5 c 128,-1,17
 518 1120 518 1120 456 972.5 c 128,-1,18
 394 825 394 825 394 646 c 0,19,20
 394 503 394 503 440 395 c 128,-1,21
 486 287 486 287 586.5 222 c 128,-1,22
 687 157 687 157 832 157 c 0,23,24
 960 157 960 157 1063 207 c 128,-1,25
 1166 257 1166 257 1233 345.5 c 128,-1,26
 1300 434 1300 434 1336 554 c 128,-1,27
 1372 674 1372 674 1372 815 c 0,28,29
 1372 1036 1372 1036 1261.5 1169.5 c 128,-1,30
 1151 1303 1151 1303 936 1303 c 0,15,16
EndSplineSet
EndChar

StartChar: P
Encoding: 80 80 51
Width: 1272
GlyphClass: 2
Flags: W
LayerCount: 2
UndoRedoHistory
Layer: 1
Undoes
EndUndoes
Redoes
EndRedoes
EndUndoRedoHistory
Fore
SplineSet
719 829 m 2,0,1
 803 829 803 829 863.5 840.5 c 128,-1,2
 924 852 924 852 973 879.5 c 128,-1,3
 1022 907 1022 907 1047 958.5 c 128,-1,4
 1072 1010 1072 1010 1072 1086 c 0,5,6
 1072 1131 1072 1131 1060.5 1164 c 128,-1,7
 1049 1197 1049 1197 1024.5 1218.5 c 128,-1,8
 1000 1240 1000 1240 971.5 1253.5 c 128,-1,9
 943 1267 943 1267 898 1273.5 c 128,-1,10
 853 1280 853 1280 812.5 1282 c 128,-1,11
 772 1284 772 1284 712 1284 c 2,12,-1
 512 1284 l 1,13,-1
 474 829 l 1,14,-1
 719 829 l 2,0,1
1294 1111 m 0,15,16
 1294 1007 1294 1007 1265 928 c 128,-1,17
 1236 849 1236 849 1185.5 798 c 128,-1,18
 1135 747 1135 747 1058.5 715 c 128,-1,19
 982 683 982 683 894.5 670 c 128,-1,20
 807 657 807 657 697 657 c 2,21,-1
 459 657 l 1,22,-1
 403 0 l 1,23,-1
 189 0 l 1,24,-1
 317 1456 l 1,25,-1
 704 1456 l 2,26,27
 782 1456 782 1456 839 1453.5 c 128,-1,28
 896 1451 896 1451 961.5 1442.5 c 128,-1,29
 1027 1434 1027 1434 1072.5 1419.5 c 128,-1,30
 1118 1405 1118 1405 1162.5 1379 c 128,-1,31
 1207 1353 1207 1353 1234 1317 c 128,-1,32
 1261 1281 1261 1281 1277.5 1229 c 128,-1,33
 1294 1177 1294 1177 1294 1111 c 0,15,16
EndSplineSet
EndChar

StartChar: Q
Encoding: 81 81 52
Width: 1638
GlyphClass: 2
Flags: W
LayerCount: 2
UndoRedoHistory
Layer: 1
Undoes
EndUndoes
Redoes
EndRedoes
EndUndoRedoHistory
Fore
SplineSet
1601 821 m 0,0,1
 1601 572 1601 572 1506 381 c 128,-1,2
 1411 190 1411 190 1233.5 83.5 c 0,3,4
 1157.84685112 38.1081106713 1157.84685112 38.1081106713 1071.56664133 12.0629219701 c 1,5,6
 1101.60419963 -58.3553521758 1101.60419963 -58.3553521758 1151 -132 c 0,7,8
 1206 -214 1206 -214 1246 -258 c 2,9,-1
 1286 -301 l 1,10,-1
 1150 -434 l 1,11,12
 1143 -426 1143 -426 1130 -412 c 128,-1,13
 1117 -398 1117 -398 1080 -353.5 c 128,-1,14
 1043 -309 1043 -309 1010 -262 c 128,-1,15
 977 -215 977 -215 937 -145.5 c 0,16,17
 900.725687167 -82.4733814522 900.725687167 -82.4733814522 875.142458727 -21.5027406724 c 1,18,19
 847.982448475 -23 847.982448475 -23 820 -23 c 0,20,21
 509 -23 509 -23 337.5 152.5 c 128,-1,22
 166 328 166 328 166 633 c 0,23,24
 166 818 166 818 222 975.5 c 128,-1,25
 278 1133 278 1133 380 1245 c 128,-1,26
 482 1357 482 1357 630.5 1420 c 128,-1,27
 779 1483 779 1483 957 1483 c 0,28,29
 1260 1483 1260 1483 1430.5 1305 c 128,-1,30
 1601 1127 1601 1127 1601 821 c 0,0,1
936 1303 m 0,31,32
 768 1303 768 1303 643 1211.5 c 128,-1,33
 518 1120 518 1120 456 972.5 c 128,-1,34
 394 825 394 825 394 646 c 0,35,36
 394 503 394 503 440 395 c 128,-1,37
 486 287 486 287 586.5 222 c 128,-1,38
 687 157 687 157 832 157 c 0,39,40
 960 157 960 157 1063 207 c 128,-1,41
 1166 257 1166 257 1233 345.5 c 128,-1,42
 1300 434 1300 434 1336 554 c 128,-1,43
 1372 674 1372 674 1372 815 c 0,44,45
 1372 1036 1372 1036 1261.5 1169.5 c 128,-1,46
 1151 1303 1151 1303 936 1303 c 0,31,32
EndSplineSet
EndChar

StartChar: R
Encoding: 82 82 53
Width: 1351
GlyphClass: 2
Flags: W
LayerCount: 2
UndoRedoHistory
Layer: 1
Undoes
EndUndoes
Redoes
EndRedoes
EndUndoRedoHistory
Fore
SplineSet
735 815 m 2,0,1
 1052 815 1052 815 1052 1086 c 0,2,3
 1052 1195 1052 1195 983.5 1239.5 c 128,-1,4
 915 1284 915 1284 777 1284 c 2,5,-1
 512 1284 l 1,6,-1
 472 815 l 1,7,-1
 735 815 l 2,0,1
189 0 m 1,8,-1
 317 1456 l 1,9,-1
 728 1456 l 2,10,11
 786 1456 786 1456 831 1454 c 128,-1,12
 876 1452 876 1452 934.5 1444 c 128,-1,13
 993 1436 993 1436 1037 1421.5 c 128,-1,14
 1081 1407 1081 1407 1126.5 1381 c 128,-1,15
 1172 1355 1172 1355 1201.5 1319 c 128,-1,16
 1231 1283 1231 1283 1249.5 1229.5 c 128,-1,17
 1268 1176 1268 1176 1268 1108 c 0,18,19
 1268 949 1268 949 1198 845 c 128,-1,20
 1128 741 1128 741 971 695 c 1,21,22
 976 693 976 693 984 689 c 128,-1,23
 992 685 992 685 1016 665.5 c 128,-1,24
 1040 646 1040 646 1062 618 c 128,-1,25
 1084 590 1084 590 1111.5 535.5 c 128,-1,26
 1139 481 1139 481 1159 413 c 2,27,-1
 1282 0 l 1,28,-1
 1056 0 l 1,29,-1
 933 428 l 2,30,31
 907 515 907 515 883 557.5 c 128,-1,32
 859 600 859 600 814.5 621.5 c 128,-1,33
 770 643 770 643 692 643 c 2,34,-1
 459 643 l 1,35,-1
 402 0 l 1,36,-1
 189 0 l 1,8,-1
EndSplineSet
EndChar

StartChar: S
Encoding: 83 83 54
Width: 1230
GlyphClass: 2
Flags: W
LayerCount: 2
UndoRedoHistory
Layer: 1
Undoes
EndUndoes
Redoes
EndRedoes
EndUndoRedoHistory
Fore
SplineSet
1157 428 m 0,0,1
 1157 333 1157 333 1128 256.5 c 128,-1,2
 1099 180 1099 180 1049.5 128.5 c 128,-1,3
 1000 77 1000 77 931.5 42.5 c 128,-1,4
 863 8 863 8 786 -7.5 c 128,-1,5
 709 -23 709 -23 623 -23 c 0,6,7
 535 -23 535 -23 453 -6 c 128,-1,8
 371 11 371 11 317.5 35.5 c 128,-1,9
 264 60 264 60 223 84.5 c 128,-1,10
 182 109 182 109 164 126 c 2,11,-1
 145 143 l 1,12,-1
 250 295 l 1,13,14
 257 289 257 289 270 280 c 128,-1,15
 283 271 283 271 323.5 247 c 128,-1,16
 364 223 364 223 406.5 205 c 128,-1,17
 449 187 449 187 510.5 172 c 128,-1,18
 572 157 572 157 631 157 c 0,19,20
 778 157 778 157 856.5 220.5 c 128,-1,21
 935 284 935 284 935 406 c 0,22,23
 935 497 935 497 860 552 c 128,-1,24
 785 607 785 607 611 668 c 0,25,26
 540 693 540 693 487 717 c 128,-1,27
 434 741 434 741 383 774.5 c 128,-1,28
 332 808 332 808 300 846.5 c 128,-1,29
 268 885 268 885 248.5 937 c 128,-1,30
 229 989 229 989 229 1052 c 0,31,32
 229 1158 229 1158 271 1241.5 c 128,-1,33
 313 1325 313 1325 386 1377 c 128,-1,34
 459 1429 459 1429 553 1456 c 128,-1,35
 647 1483 647 1483 755 1483 c 0,36,37
 822 1483 822 1483 883 1474.5 c 128,-1,38
 944 1466 944 1466 987.5 1452 c 128,-1,39
 1031 1438 1031 1438 1067.5 1421.5 c 128,-1,40
 1104 1405 1104 1405 1127 1388 c 128,-1,41
 1150 1371 1150 1371 1166.5 1357 c 128,-1,42
 1183 1343 1183 1343 1190 1334 c 2,43,-1
 1197 1326 l 1,44,-1
 1077 1185 l 1,45,46
 1073 1190 1073 1190 1065.5 1198 c 128,-1,47
 1058 1206 1058 1206 1030 1226 c 128,-1,48
 1002 1246 1002 1246 969.5 1261.5 c 128,-1,49
 937 1277 937 1277 883.5 1289.5 c 128,-1,50
 830 1302 830 1302 771 1302 c 0,51,52
 710 1302 710 1302 656.5 1290.5 c 128,-1,53
 603 1279 603 1279 556 1254.5 c 128,-1,54
 509 1230 509 1230 481.5 1185 c 128,-1,55
 454 1140 454 1140 454 1079 c 0,56,57
 454 1039 454 1039 469.5 1007 c 128,-1,58
 485 975 485 975 506.5 953.5 c 128,-1,59
 528 932 528 932 575.5 908 c 128,-1,60
 623 884 623 884 660.5 869.5 c 128,-1,61
 698 855 698 855 773 828 c 0,62,63
 867 795 867 795 933 760 c 128,-1,64
 999 725 999 725 1052 678 c 128,-1,65
 1105 631 1105 631 1131 569 c 128,-1,66
 1157 507 1157 507 1157 428 c 0,0,1
EndSplineSet
EndChar

StartChar: T
Encoding: 84 84 55
Width: 1155
GlyphClass: 2
Flags: W
AnchorPoint: "Anchor-0" 571 0 basechar 0
LayerCount: 2
UndoRedoHistory
Layer: 1
Undoes
EndUndoes
Redoes
EndRedoes
EndUndoRedoHistory
Fore
SplineSet
472 0 m 1,0,-1
 583 1284 l 1,1,-1
 124 1284 l 1,2,-1
 140 1456 l 1,3,-1
 1274 1456 l 1,4,-1
 1259 1284 l 1,5,-1
 793 1284 l 1,6,-1
 682 0 l 1,7,-1
 472 0 l 1,0,-1
EndSplineSet
EndChar

StartChar: U
Encoding: 85 85 56
Width: 1493
GlyphClass: 2
Flags: W
AnchorPoint: "Anchor-1" 829 -1 basechar 0
LayerCount: 2
UndoRedoHistory
Layer: 1
Undoes
EndUndoes
Redoes
EndRedoes
EndUndoRedoHistory
Fore
SplineSet
743 -23 m 0,0,1
 595 -23 595 -23 490 12 c 128,-1,2
 385 47 385 47 325 114 c 128,-1,3
 265 181 265 181 238 266 c 128,-1,4
 211 351 211 351 211 462 c 0,5,6
 211 513 211 513 215 557 c 2,7,-1
 294 1456 l 1,8,-1
 508 1456 l 1,9,-1
 429 550 l 2,10,11
 426 512 426 512 426 478 c 0,12,13
 426 309 426 309 509 233 c 128,-1,14
 592 157 592 157 762 157 c 0,15,16
 1128 157 1128 157 1162 547 c 2,17,-1
 1242 1456 l 1,18,-1
 1456 1456 l 1,19,-1
 1377 562 l 1,20,21
 1324 -23 1324 -23 743 -23 c 0,0,1
EndSplineSet
EndChar

StartChar: V
Encoding: 86 86 57
Width: 1315
GlyphClass: 2
Flags: W
LayerCount: 2
UndoRedoHistory
Layer: 1
Undoes
EndUndoes
Redoes
EndRedoes
EndUndoRedoHistory
Fore
SplineSet
556 0 m 1,0,-1
 155 1456 l 1,1,-1
 387 1456 l 1,2,-1
 633 472 l 1,3,-1
 689 265 l 1,4,-1
 781 472 l 1,5,-1
 1198 1456 l 1,6,-1
 1417 1456 l 1,7,-1
 769 0 l 1,8,-1
 556 0 l 1,0,-1
EndSplineSet
EndChar

StartChar: W
Encoding: 87 87 58
Width: 2031
GlyphClass: 2
Flags: W
LayerCount: 2
UndoRedoHistory
Layer: 1
Undoes
EndUndoes
Redoes
EndRedoes
EndUndoRedoHistory
Fore
SplineSet
428 0 m 1,0,-1
 158 1456 l 1,1,-1
 380 1456 l 1,2,-1
 543 500 l 1,3,-1
 584 252 l 1,4,-1
 673 487 l 1,5,-1
 1043 1456 l 1,6,-1
 1253 1456 l 1,7,-1
 1460 492 l 1,8,-1
 1510 255 l 1,9,-1
 1587 487 l 1,10,-1
 1908 1456 l 1,11,-1
 2122 1456 l 1,12,-1
 1606 0 l 1,13,-1
 1367 0 l 1,14,-1
 1121 1181 l 1,15,-1
 667 0 l 1,16,-1
 428 0 l 1,0,-1
EndSplineSet
EndChar

StartChar: X
Encoding: 88 88 59
Width: 1318
GlyphClass: 2
Flags: W
LayerCount: 2
UndoRedoHistory
Layer: 1
Undoes
EndUndoes
Redoes
EndRedoes
EndUndoRedoHistory
Fore
SplineSet
1045 0 m 1,0,-1
 707 570 l 1,1,-1
 264 0 l 1,2,-1
 24 0 l 1,3,-1
 599 736 l 1,4,-1
 173 1456 l 1,5,-1
 421 1456 l 1,6,-1
 739 912 l 1,7,-1
 1157 1456 l 1,8,-1
 1391 1456 l 1,9,-1
 846 747 l 1,10,-1
 1291 0 l 1,11,-1
 1045 0 l 1,0,-1
EndSplineSet
EndChar

StartChar: Y
Encoding: 89 89 60
Width: 1258
GlyphClass: 2
Flags: W
LayerCount: 2
UndoRedoHistory
Layer: 1
Undoes
EndUndoes
Redoes
EndRedoes
EndUndoRedoHistory
Fore
SplineSet
520 0 m 1,0,-1
 571 582 l 1,1,-1
 142 1456 l 1,2,-1
 374 1456 l 1,3,-1
 697 774 l 1,4,-1
 1130 1456 l 1,5,-1
 1370 1456 l 1,6,-1
 782 585 l 1,7,-1
 731 0 l 1,8,-1
 520 0 l 1,0,-1
EndSplineSet
EndChar

StartChar: Z
Encoding: 90 90 61
Width: 1198
GlyphClass: 2
Flags: W
LayerCount: 2
UndoRedoHistory
Layer: 1
Undoes
EndUndoes
Redoes
EndRedoes
EndUndoRedoHistory
Fore
SplineSet
95 0 m 1,0,-1
 106 113 l 1,1,-1
 943 1276 l 1,2,-1
 237 1276 l 1,3,-1
 252 1456 l 1,4,-1
 1243 1456 l 1,5,-1
 1234 1347 l 1,6,-1
 388 180 l 1,7,-1
 1130 180 l 1,8,-1
 1114 0 l 1,9,-1
 95 0 l 1,0,-1
EndSplineSet
EndChar

StartChar: bracketleft
Encoding: 91 91 62
Width: 689
GlyphClass: 2
Flags: W
LayerCount: 2
UndoRedoHistory
Layer: 1
Undoes
EndUndoes
Redoes
EndRedoes
EndUndoRedoHistory
Fore
SplineSet
158 -231 m 1,0,-1
 305 1456 l 1,1,-1
 719 1456 l 1,2,-1
 705 1302 l 1,3,-1
 496 1302 l 1,4,-1
 376 -77 l 1,5,-1
 586 -77 l 1,6,-1
 572 -231 l 1,7,-1
 158 -231 l 1,0,-1
EndSplineSet
EndChar

StartChar: backslash
Encoding: 92 92 63
Width: 825
GlyphClass: 2
Flags: W
LayerCount: 2
UndoRedoHistory
Layer: 1
Undoes
EndUndoes
Redoes
EndRedoes
EndUndoRedoHistory
Fore
SplineSet
636 -44 m 1,0,-1
 151 1456 l 1,1,-1
 363 1456 l 1,2,-1
 846 -44 l 1,3,-1
 636 -44 l 1,0,-1
EndSplineSet
EndChar

StartChar: bracketright
Encoding: 93 93 64
Width: 675
GlyphClass: 2
Flags: W
LayerCount: 2
UndoRedoHistory
Layer: 1
Undoes
EndUndoes
Redoes
EndRedoes
EndUndoRedoHistory
Fore
SplineSet
82 -231 m 1,0,-1
 96 -77 l 1,1,-1
 302 -77 l 1,2,-1
 423 1302 l 1,3,-1
 216 1302 l 1,4,-1
 230 1456 l 1,5,-1
 642 1456 l 1,6,-1
 494 -231 l 1,7,-1
 82 -231 l 1,0,-1
EndSplineSet
EndChar

StartChar: asciicircum
Encoding: 94 94 65
Width: 1301
GlyphClass: 2
Flags: W
LayerCount: 2
UndoRedoHistory
Layer: 1
Undoes
EndUndoes
Redoes
EndRedoes
EndUndoRedoHistory
Fore
SplineSet
158 571 m 1,0,-1
 720 1456 l 1,1,-1
 849 1456 l 1,2,-1
 1263 571 l 1,3,-1
 1062 571 l 1,4,-1
 763 1232 l 1,5,-1
 361 571 l 1,6,-1
 158 571 l 1,0,-1
EndSplineSet
EndChar

StartChar: underscore
Encoding: 95 95 66
Width: 961
GlyphClass: 2
Flags: W
LayerCount: 2
UndoRedoHistory
Layer: 1
Undoes
EndUndoes
Redoes
EndRedoes
EndUndoRedoHistory
Fore
SplineSet
-15 -215 m 1,0,-1
 -1 -55 l 1,1,-1
 976 -55 l 1,2,-1
 962 -215 l 1,3,-1
 -15 -215 l 1,0,-1
EndSplineSet
EndChar

StartChar: grave
Encoding: 96 96 67
Width: 600
GlyphClass: 2
Flags: W
LayerCount: 2
UndoRedoHistory
Layer: 1
Undoes
EndUndoes
Redoes
EndRedoes
EndUndoRedoHistory
Fore
SplineSet
416 1170 m 1,0,-1
 103 1487 l 1,1,-1
 366 1487 l 1,2,-1
 591 1170 l 1,3,-1
 416 1170 l 1,0,-1
EndSplineSet
EndChar

StartChar: a
Encoding: 97 97 68
Width: 1265
GlyphClass: 2
Flags: W
AnchorPoint: "Anchor-1" 1003 -1 basechar 0
LayerCount: 2
UndoRedoHistory
Layer: 1
Undoes
EndUndoes
Redoes
EndRedoes
EndUndoRedoHistory
Fore
SplineSet
141 460 m 0,0,1
 141 554 141 554 163.5 642 c 128,-1,2
 186 730 186 730 231 804 c 128,-1,3
 276 878 276 878 338 933.5 c 128,-1,4
 400 989 400 989 483 1020 c 128,-1,5
 566 1051 566 1051 661 1051 c 0,6,7
 795 1051 795 1051 884 984.5 c 128,-1,8
 973 918 973 918 991 821 c 1,9,-1
 1003 1026 l 1,10,-1
 1202 1026 l 1,11,-1
 1112 0 l 1,12,-1
 909 0 l 1,13,-1
 935 217 l 1,14,15
 901 109 901 109 808.5 43 c 128,-1,16
 716 -23 716 -23 583 -23 c 0,17,18
 475 -23 475 -23 389 18 c 128,-1,19
 303 59 303 59 250 128 c 128,-1,20
 197 197 197 197 169 282 c 128,-1,21
 141 367 141 367 141 460 c 0,0,1
630 141 m 0,22,23
 791 141 791 141 878 257.5 c 128,-1,24
 965 374 965 374 965 582 c 0,25,26
 965 725 965 725 896 805.5 c 128,-1,27
 827 886 827 886 690 886 c 0,28,29
 582 886 582 886 503 828.5 c 128,-1,30
 424 771 424 771 385.5 676 c 128,-1,31
 347 581 347 581 347 460 c 0,32,33
 347 368 347 368 374.5 298.5 c 128,-1,34
 402 229 402 229 467.5 185 c 128,-1,35
 533 141 533 141 630 141 c 0,22,23
EndSplineSet
EndChar

StartChar: b
Encoding: 98 98 69
Width: 1267
GlyphClass: 2
Flags: W
LayerCount: 2
UndoRedoHistory
Layer: 1
Undoes
EndUndoes
Redoes
EndRedoes
EndUndoRedoHistory
Fore
SplineSet
403 469 m 0,0,1
 403 319 403 319 477.5 230 c 128,-1,2
 552 141 552 141 689 141 c 0,3,4
 834 141 834 141 920.5 264 c 128,-1,5
 1007 387 1007 387 1007 578 c 0,6,7
 1007 719 1007 719 940.5 802.5 c 128,-1,8
 874 886 874 886 748 886 c 0,9,10
 594 886 594 886 498.5 770 c 128,-1,11
 403 654 403 654 403 469 c 0,0,1
713 -23 m 0,12,13
 653 -23 653 -23 600 -7 c 128,-1,14
 547 9 547 9 511.5 32 c 128,-1,15
 476 55 476 55 447 85 c 128,-1,16
 418 115 418 115 402.5 139 c 128,-1,17
 387 163 387 163 378 185 c 1,18,-1
 364 0 l 1,19,-1
 156 0 l 1,20,21
 180 180 180 180 188 271 c 2,22,-1
 293 1476 l 1,23,-1
 496 1476 l 1,24,-1
 440 857 l 1,25,26
 480 935 480 935 576.5 993 c 128,-1,27
 673 1051 673 1051 797 1051 c 0,28,29
 988 1051 988 1051 1104.5 920.5 c 128,-1,30
 1221 790 1221 790 1221 582 c 0,31,32
 1221 449 1221 449 1179.5 334 c 128,-1,33
 1138 219 1138 219 1068 142 c 128,-1,34
 998 65 998 65 906 21 c 128,-1,35
 814 -23 814 -23 713 -23 c 0,12,13
EndSplineSet
EndChar

StartChar: c
Encoding: 99 99 70
Width: 1038
GlyphClass: 2
Flags: W
LayerCount: 2
UndoRedoHistory
Layer: 1
Undoes
EndUndoes
Redoes
EndRedoes
EndUndoRedoHistory
Fore
SplineSet
713 886 m 0,0,1
 551 886 551 886 452 769.5 c 128,-1,2
 353 653 353 653 353 459 c 0,3,4
 353 312 353 312 431.5 226.5 c 128,-1,5
 510 141 510 141 648 141 c 0,6,7
 797 141 797 141 932 236 c 1,8,-1
 982 89 l 1,9,10
 824 -23 824 -23 615 -23 c 0,11,12
 393 -23 393 -23 266 107 c 128,-1,13
 139 237 139 237 139 446 c 0,14,15
 139 575 139 575 182 687.5 c 128,-1,16
 225 800 225 800 299.5 880 c 128,-1,17
 374 960 374 960 479 1005.5 c 128,-1,18
 584 1051 584 1051 705 1051 c 0,19,20
 817 1051 817 1051 906.5 1017 c 128,-1,21
 996 983 996 983 1049 919 c 1,22,-1
 953 791 l 1,23,24
 864 886 864 886 713 886 c 0,0,1
EndSplineSet
EndChar

StartChar: d
Encoding: 100 100 71
Width: 1253
GlyphClass: 2
Flags: W
LayerCount: 2
UndoRedoHistory
Layer: 1
Undoes
EndUndoes
Redoes
EndRedoes
EndUndoRedoHistory
Fore
SplineSet
682 886 m 0,0,1
 532 886 532 886 443.5 766 c 128,-1,2
 355 646 355 646 355 457 c 0,3,4
 355 314 355 314 421.5 227.5 c 128,-1,5
 488 141 488 141 615 141 c 0,6,7
 716 141 716 141 791.5 199.5 c 128,-1,8
 867 258 867 258 905 357.5 c 128,-1,9
 943 457 943 457 943 583 c 0,10,11
 943 721 943 721 875.5 803.5 c 128,-1,12
 808 886 808 886 682 886 c 0,0,1
139 444 m 0,13,14
 139 709 139 709 287 880 c 128,-1,15
 435 1051 435 1051 674 1051 c 0,16,17
 782 1051 782 1051 860.5 1005.5 c 128,-1,18
 939 960 939 960 969 893 c 1,19,-1
 1019 1476 l 1,20,-1
 1222 1476 l 1,21,-1
 1117 265 l 2,22,23
 1110 178 1110 178 1101 0 c 1,24,-1
 893 0 l 1,25,-1
 906 164 l 1,26,27
 869 87 869 87 781.5 32 c 128,-1,28
 694 -23 694 -23 570 -23 c 0,29,30
 380 -23 380 -23 259.5 104 c 128,-1,31
 139 231 139 231 139 444 c 0,13,14
EndSplineSet
EndChar

StartChar: e
Encoding: 101 101 72
Width: 1152
GlyphClass: 2
Flags: W
AnchorPoint: "Anchor-1" 755 0 basechar 0
LayerCount: 2
UndoRedoHistory
Layer: 1
Undoes
EndUndoes
Redoes
EndRedoes
EndUndoRedoHistory
Fore
SplineSet
373 624 m 1,0,-1
 933 624 l 1,1,2
 930 754 930 754 860.5 822.5 c 128,-1,3
 791 891 791 891 684 891 c 0,4,5
 571 891 571 891 489 818.5 c 128,-1,6
 407 746 407 746 373 624 c 1,0,-1
692 1052 m 0,7,8
 892 1052 892 1052 999.5 928 c 128,-1,9
 1107 804 1107 804 1107 601 c 0,10,11
 1107 524 1107 524 1097 484 c 1,12,-1
 356 484 l 1,13,14
 356 141 356 141 669 141 c 0,15,16
 757 141 757 141 844 175.5 c 128,-1,17
 931 210 931 210 997 257 c 1,18,-1
 1040 105 l 1,19,20
 865 -23 865 -23 637 -23 c 0,21,22
 421 -23 421 -23 281 109 c 128,-1,23
 141 241 141 241 141 454 c 0,24,25
 141 624 141 624 211.5 761 c 128,-1,26
 282 898 282 898 408 975 c 128,-1,27
 534 1052 534 1052 692 1052 c 0,7,8
EndSplineSet
EndChar

StartChar: f
Encoding: 102 102 73
Width: 725
GlyphClass: 2
Flags: W
LayerCount: 2
UndoRedoHistory
Layer: 1
Undoes
EndUndoes
Redoes
EndRedoes
EndUndoRedoHistory
Fore
SplineSet
239 0 m 1,0,-1
 317 891 l 1,1,-1
 132 891 l 1,2,-1
 144 1026 l 1,3,-1
 329 1026 l 1,4,-1
 338 1123 l 2,5,6
 349 1231 349 1231 371 1295.5 c 128,-1,7
 393 1360 393 1360 443 1406 c 128,-1,8
 493 1452 493 1452 574 1470 c 128,-1,9
 655 1488 655 1488 785 1488 c 2,10,-1
 824 1488 l 1,11,-1
 806 1329 l 1,12,13
 749 1329 749 1329 714.5 1327 c 128,-1,14
 680 1325 680 1325 648.5 1316.5 c 128,-1,15
 617 1308 617 1308 601 1295.5 c 128,-1,16
 585 1283 585 1283 571.5 1257.5 c 128,-1,17
 558 1232 558 1232 552 1200 c 128,-1,18
 546 1168 546 1168 541 1117 c 2,19,-1
 533 1026 l 1,20,-1
 773 1026 l 1,21,-1
 761 891 l 1,22,-1
 521 891 l 1,23,-1
 443 0 l 1,24,-1
 239 0 l 1,0,-1
EndSplineSet
EndChar

StartChar: g
Encoding: 103 103 74
Width: 1238
GlyphClass: 2
Flags: W
LayerCount: 2
UndoRedoHistory
Layer: 1
Undoes
EndUndoes
Redoes
EndRedoes
EndUndoRedoHistory
Fore
SplineSet
613 185 m 0,0,1
 774 185 774 185 860 293.5 c 128,-1,2
 946 402 946 402 946 584 c 0,3,4
 946 723 946 723 879 805 c 128,-1,5
 812 887 812 887 687 887 c 0,6,7
 533 887 533 887 444.5 776 c 128,-1,8
 356 665 356 665 356 478 c 0,9,10
 356 339 356 339 420 262 c 128,-1,11
 484 185 484 185 613 185 c 0,0,1
141 478 m 0,12,13
 141 734 141 734 289.5 892.5 c 128,-1,14
 438 1051 438 1051 676 1051 c 0,15,16
 778 1051 778 1051 860.5 998.5 c 128,-1,17
 943 946 943 946 968 876 c 1,18,-1
 984 1026 l 1,19,-1
 1196 1026 l 1,20,21
 1169 865 1169 865 1157 730 c 2,22,-1
 1105 150 l 2,23,24
 1097 65 1097 65 1080 -7 c 128,-1,25
 1063 -79 1063 -79 1033 -145.5 c 128,-1,26
 1003 -212 1003 -212 957.5 -262.5 c 128,-1,27
 912 -313 912 -313 851.5 -351 c 128,-1,28
 791 -389 791 -389 708.5 -408.5 c 128,-1,29
 626 -428 626 -428 526 -428 c 0,30,31
 305 -428 305 -428 154 -346 c 1,32,-1
 197 -167 l 1,33,34
 346 -259 346 -259 527 -259 c 0,35,36
 697 -259 697 -259 789.5 -187 c 128,-1,37
 882 -115 882 -115 895 37 c 1,38,-1
 906 177 l 1,39,40
 868 108 868 108 782.5 67 c 128,-1,41
 697 26 697 26 582 26 c 0,42,43
 386 26 386 26 263.5 149 c 128,-1,44
 141 272 141 272 141 478 c 0,12,13
EndSplineSet
EndChar

StartChar: h
Encoding: 104 104 75
Width: 1211
GlyphClass: 2
Flags: W
LayerCount: 2
UndoRedoHistory
Layer: 1
Undoes
EndUndoes
Redoes
EndRedoes
EndUndoRedoHistory
Fore
SplineSet
154 0 m 1,0,-1
 283 1476 l 1,1,-1
 487 1476 l 1,2,-1
 435 875 l 1,3,4
 491 961 491 961 584.5 1006 c 128,-1,5
 678 1051 678 1051 778 1051 c 0,6,7
 870 1051 870 1051 937.5 1020 c 128,-1,8
 1005 989 1005 989 1043 934.5 c 128,-1,9
 1081 880 1081 880 1098.5 814 c 128,-1,10
 1116 748 1116 748 1116 670 c 0,11,12
 1116 638 1116 638 1113 605 c 2,13,-1
 1060 0 l 1,14,-1
 855 0 l 1,15,-1
 908 604 l 2,16,17
 911 637 911 637 911 666 c 0,18,19
 911 778 911 778 867 832 c 128,-1,20
 823 886 823 886 729 886 c 0,21,22
 606 886 606 886 513.5 805.5 c 128,-1,23
 421 725 421 725 411 604 c 2,24,-1
 358 0 l 1,25,-1
 154 0 l 1,0,-1
EndSplineSet
EndChar

StartChar: i
Encoding: 105 105 76
Width: 557
GlyphClass: 2
Flags: W
AnchorPoint: "Anchor-1" 279 0 basechar 0
LayerCount: 2
UndoRedoHistory
Layer: 1
Undoes
EndUndoes
Redoes
EndRedoes
EndUndoRedoHistory
Fore
SplineSet
292 1272 m 1,0,-1
 309 1456 l 1,1,-1
 504 1456 l 1,2,-1
 487 1272 l 1,3,-1
 292 1272 l 1,0,-1
177 0 m 1,4,-1
 267 1026 l 1,5,-1
 468 1026 l 1,6,-1
 378 0 l 1,7,-1
 177 0 l 1,4,-1
EndSplineSet
EndChar

StartChar: j
Encoding: 106 106 77
Width: 557
GlyphClass: 2
Flags: W
LayerCount: 2
UndoRedoHistory
Layer: 1
Undoes
EndUndoes
Redoes
EndRedoes
EndUndoRedoHistory
Fore
SplineSet
321 1272 m 1,0,-1
 338 1456 l 1,1,-1
 536 1456 l 1,2,-1
 520 1272 l 1,3,-1
 321 1272 l 1,0,-1
49 -389 m 0,4,5
 -34 -389 -34 -389 -107 -373 c 1,6,-1
 -77 -222 l 1,7,8
 -31 -233 -31 -233 24 -233 c 0,9,10
 121 -233 121 -233 161 -171.5 c 128,-1,11
 201 -110 201 -110 214 43 c 2,12,-1
 300 1026 l 1,13,-1
 504 1026 l 1,14,-1
 415 10 l 2,15,16
 407 -83 407 -83 385 -152.5 c 128,-1,17
 363 -222 363 -222 321.5 -277 c 128,-1,18
 280 -332 280 -332 211.5 -360.5 c 128,-1,19
 143 -389 143 -389 49 -389 c 0,4,5
EndSplineSet
EndChar

StartChar: k
Encoding: 107 107 78
Width: 1093
GlyphClass: 2
Flags: W
LayerCount: 2
UndoRedoHistory
Layer: 1
Undoes
EndUndoes
Redoes
EndRedoes
EndUndoRedoHistory
Fore
SplineSet
154 0 m 1,0,-1
 284 1476 l 1,1,-1
 487 1476 l 1,2,-1
 411 602 l 1,3,-1
 862 1026 l 1,4,-1
 1140 1026 l 1,5,-1
 596 545 l 1,6,-1
 1081 0 l 1,7,-1
 815 0 l 1,8,-1
 400 486 l 1,9,-1
 358 0 l 1,10,-1
 154 0 l 1,0,-1
EndSplineSet
EndChar

StartChar: l
Encoding: 108 108 79
Width: 524
GlyphClass: 2
Flags: W
LayerCount: 2
UndoRedoHistory
Layer: 1
Undoes
EndUndoes
Redoes
EndRedoes
EndUndoRedoHistory
Fore
SplineSet
168 0 m 1,0,-1
 296 1476 l 1,1,-1
 500 1476 l 1,2,-1
 371 0 l 1,3,-1
 168 0 l 1,0,-1
EndSplineSet
EndChar

StartChar: m
Encoding: 109 109 80
Width: 1862
GlyphClass: 2
Flags: W
LayerCount: 2
UndoRedoHistory
Layer: 1
Undoes
EndUndoes
Redoes
EndRedoes
EndUndoRedoHistory
Fore
SplineSet
1457 1051 m 0,0,1
 1609 1051 1609 1051 1688.5 957.5 c 128,-1,2
 1768 864 1768 864 1768 694 c 0,3,4
 1768 649 1768 649 1766 625 c 2,5,-1
 1710 0 l 1,6,-1
 1506 0 l 1,7,-1
 1555 555 l 2,8,9
 1560 615 1560 615 1560 662 c 0,10,11
 1560 711 1560 711 1552.5 749 c 128,-1,12
 1545 787 1545 787 1527.5 819.5 c 128,-1,13
 1510 852 1510 852 1476 869 c 128,-1,14
 1442 886 1442 886 1392 886 c 0,15,16
 1272 886 1272 886 1190 799 c 128,-1,17
 1108 712 1108 712 1096 584 c 2,18,-1
 1045 0 l 1,19,-1
 841 0 l 1,20,-1
 896 631 l 2,21,22
 898 648 898 648 898 682 c 0,23,24
 898 886 898 886 736 886 c 0,25,26
 619 886 619 886 525.5 801.5 c 128,-1,27
 432 717 432 717 422 598 c 2,28,-1
 370 0 l 1,29,-1
 166 0 l 1,30,-1
 230 730 l 2,31,32
 238 825 238 825 244 1026 c 1,33,-1
 457 1026 l 1,34,-1
 436 841 l 1,35,36
 484 931 484 931 585.5 991 c 128,-1,37
 687 1051 687 1051 794 1051 c 0,38,39
 899 1051 899 1051 972 995 c 128,-1,40
 1045 939 1045 939 1069 834 c 1,41,42
 1128 935 1128 935 1233.5 993 c 128,-1,43
 1339 1051 1339 1051 1457 1051 c 0,0,1
EndSplineSet
EndChar

StartChar: n
Encoding: 110 110 81
Width: 1225
GlyphClass: 2
Flags: W
LayerCount: 2
UndoRedoHistory
Layer: 1
Undoes
EndUndoes
Redoes
EndRedoes
EndUndoRedoHistory
Fore
SplineSet
167 0 m 1,0,-1
 229 711 l 2,1,2
 236 791 236 791 240 869.5 c 128,-1,3
 244 948 244 948 244 987 c 2,4,-1
 244 1026 l 1,5,-1
 450 1026 l 1,6,-1
 436 840 l 1,7,8
 488 936 488 936 586.5 993.5 c 128,-1,9
 685 1051 685 1051 804 1051 c 0,10,11
 971 1051 971 1051 1050 957 c 128,-1,12
 1129 863 1129 863 1129 672 c 0,13,14
 1129 641 1129 641 1123 567 c 2,15,-1
 1074 0 l 1,16,-1
 869 0 l 1,17,-1
 918 565 l 2,18,19
 924 639 924 639 924 668 c 0,20,21
 924 779 924 779 882.5 832.5 c 128,-1,22
 841 886 841 886 736 886 c 0,23,24
 625 886 625 886 529 803.5 c 128,-1,25
 433 721 433 721 424 619 c 2,26,-1
 371 0 l 1,27,-1
 167 0 l 1,0,-1
EndSplineSet
EndChar

StartChar: o
Encoding: 111 111 82
Width: 1252
GlyphClass: 2
Flags: W
AnchorPoint: "Anchor-1" 673 -2 basechar 0
LayerCount: 2
UndoRedoHistory
Layer: 1
Undoes
EndUndoes
Redoes
EndRedoes
EndUndoRedoHistory
Fore
SplineSet
1206 575 m 0,0,1
 1206 313 1206 313 1045.5 145 c 128,-1,2
 885 -23 885 -23 627 -23 c 0,3,4
 404 -23 404 -23 272 109.5 c 128,-1,5
 140 242 140 242 140 453 c 0,6,7
 140 716 140 716 303 883.5 c 128,-1,8
 466 1051 466 1051 726 1051 c 0,9,10
 953 1051 953 1051 1079.5 920 c 128,-1,11
 1206 789 1206 789 1206 575 c 0,0,1
707 887 m 0,12,13
 546 887 546 887 450 768.5 c 128,-1,14
 354 650 354 650 354 462 c 0,15,16
 354 317 354 317 428.5 229 c 128,-1,17
 503 141 503 141 644 141 c 0,18,19
 806 141 806 141 899 259.5 c 128,-1,20
 992 378 992 378 992 566 c 0,21,22
 992 712 992 712 918.5 799.5 c 128,-1,23
 845 887 845 887 707 887 c 0,12,13
EndSplineSet
EndChar

StartChar: p
Encoding: 112 112 83
Width: 1256
GlyphClass: 2
Flags: W
LayerCount: 2
UndoRedoHistory
Layer: 1
Undoes
EndUndoes
Redoes
EndRedoes
EndUndoRedoHistory
Fore
SplineSet
742 886 m 0,0,1
 591 886 591 886 500 766 c 128,-1,2
 409 646 409 646 409 454 c 0,3,4
 409 313 409 313 477.5 227 c 128,-1,5
 546 141 546 141 674 141 c 0,6,7
 825 141 825 141 911 262 c 128,-1,8
 997 383 997 383 997 573 c 0,9,10
 997 716 997 716 932 801 c 128,-1,11
 867 886 867 886 742 886 c 0,0,1
1211 591 m 0,12,13
 1211 419 1211 419 1146.5 279 c 128,-1,14
 1082 139 1082 139 964 58 c 128,-1,15
 846 -23 846 -23 697 -23 c 0,16,17
 584 -23 584 -23 494.5 33.5 c 128,-1,18
 405 90 405 90 386 160 c 1,19,-1
 336 -412 l 1,20,-1
 135 -412 l 1,21,-1
 234 721 l 2,22,23
 242 811 242 811 248 1026 c 1,24,-1
 461 1026 l 1,25,-1
 448 858 l 1,26,27
 484 939 484 939 583 995 c 128,-1,28
 682 1051 682 1051 800 1051 c 0,29,30
 991 1051 991 1051 1101 923 c 128,-1,31
 1211 795 1211 795 1211 591 c 0,12,13
EndSplineSet
EndChar

StartChar: q
Encoding: 113 113 84
Width: 1245
GlyphClass: 2
Flags: W
LayerCount: 2
UndoRedoHistory
Layer: 1
Undoes
EndUndoes
Redoes
EndRedoes
EndUndoRedoHistory
Fore
SplineSet
682 886 m 0,0,1
 531 886 531 886 442.5 765.5 c 128,-1,2
 354 645 354 645 354 456 c 0,3,4
 354 313 354 313 420 227 c 128,-1,5
 486 141 486 141 612 141 c 0,6,7
 762 141 762 141 851 265.5 c 128,-1,8
 940 390 940 390 940 581 c 0,9,10
 940 721 940 721 873.5 803.5 c 128,-1,11
 807 886 807 886 682 886 c 0,0,1
140 453 m 0,12,13
 140 715 140 715 288.5 883 c 128,-1,14
 437 1051 437 1051 674 1051 c 0,15,16
 733 1051 733 1051 784.5 1035 c 128,-1,17
 836 1019 836 1019 870.5 992.5 c 128,-1,18
 905 966 905 966 927.5 941 c 128,-1,19
 950 916 950 916 965 890 c 1,20,-1
 978 1026 l 1,21,-1
 1186 1026 l 1,22,23
 1164 869 1164 869 1156 774 c 2,24,-1
 1051 -412 l 1,25,-1
 849 -412 l 1,26,-1
 900 158 l 1,27,28
 874 93 874 93 786 35.5 c 128,-1,29
 698 -22 698 -22 578 -22 c 0,30,31
 372 -22 372 -22 256 111 c 128,-1,32
 140 244 140 244 140 453 c 0,12,13
EndSplineSet
EndChar

StartChar: r
Encoding: 114 114 85
Width: 808
GlyphClass: 2
Flags: W
LayerCount: 2
UndoRedoHistory
Layer: 1
Undoes
EndUndoes
Redoes
EndRedoes
EndUndoRedoHistory
Fore
SplineSet
167 0 m 1,0,-1
 235 773 l 2,1,2
 238 801 238 801 240 864.5 c 128,-1,3
 242 928 242 928 243 977 c 2,4,-1
 244 1026 l 1,5,-1
 457 1026 l 1,6,-1
 444 860 l 1,7,8
 492 954 492 954 566.5 1002.5 c 128,-1,9
 641 1051 641 1051 728 1051 c 0,10,11
 784 1051 784 1051 832 1038 c 1,12,-1
 817 854 l 1,13,14
 754 876 754 876 700 876 c 0,15,16
 588 876 588 876 511 796 c 128,-1,17
 434 716 434 716 422 574 c 2,18,-1
 372 0 l 1,19,-1
 167 0 l 1,0,-1
EndSplineSet
EndChar

StartChar: s
Encoding: 115 115 86
Width: 995
GlyphClass: 2
Flags: W
LayerCount: 2
UndoRedoHistory
Layer: 1
Undoes
EndUndoes
Redoes
EndRedoes
EndUndoRedoHistory
Fore
SplineSet
935 316 m 0,0,1
 935 243 935 243 909.5 183.5 c 128,-1,2
 884 124 884 124 842.5 86.5 c 128,-1,3
 801 49 801 49 745.5 23.5 c 128,-1,4
 690 -2 690 -2 633.5 -12.5 c 128,-1,5
 577 -23 577 -23 519 -23 c 0,6,7
 440 -23 440 -23 367.5 -8.5 c 128,-1,8
 295 6 295 6 246.5 27.5 c 128,-1,9
 198 49 198 49 169 66 c 128,-1,10
 140 83 140 83 126 96 c 1,11,-1
 189 247 l 1,12,13
 236 213 236 213 326.5 175.5 c 128,-1,14
 417 138 417 138 512 138 c 0,15,16
 571 138 571 138 618 152 c 128,-1,17
 665 166 665 166 698 202 c 128,-1,18
 731 238 731 238 731 293 c 0,19,20
 731 331 731 331 701.5 358.5 c 128,-1,21
 672 386 672 386 638 400 c 128,-1,22
 604 414 604 414 520 441 c 0,23,24
 517 442 517 442 515 442.5 c 128,-1,25
 513 443 513 443 510 444 c 128,-1,26
 507 445 507 445 505 446 c 0,27,28
 445 465 445 465 407 479 c 128,-1,29
 369 493 369 493 322 518.5 c 128,-1,30
 275 544 275 544 248 571 c 128,-1,31
 221 598 221 598 202.5 639.5 c 128,-1,32
 184 681 184 681 184 732 c 0,33,34
 184 815 184 815 218 878.5 c 128,-1,35
 252 942 252 942 310.5 978.5 c 128,-1,36
 369 1015 369 1015 438 1033 c 128,-1,37
 507 1051 507 1051 584 1051 c 0,38,39
 787 1051 787 1051 938 962 c 1,40,-1
 871 820 l 1,41,42
 851 831 851 831 817.5 844.5 c 128,-1,43
 784 858 784 858 720 873.5 c 128,-1,44
 656 889 656 889 600 889 c 0,45,46
 505 889 505 889 447 856.5 c 128,-1,47
 389 824 389 824 389 758 c 0,48,49
 389 706 389 706 435.5 678 c 128,-1,50
 482 650 482 650 599 610 c 0,51,52
 605 608 605 608 608 607 c 128,-1,53
 611 606 611 606 616 604 c 128,-1,54
 621 602 621 602 625 601 c 0,55,56
 672 586 672 586 695 577.5 c 128,-1,57
 718 569 718 569 757.5 553 c 128,-1,58
 797 537 797 537 817 523.5 c 128,-1,59
 837 510 837 510 863.5 488 c 128,-1,60
 890 466 890 466 903 442.5 c 128,-1,61
 916 419 916 419 925.5 386.5 c 128,-1,62
 935 354 935 354 935 316 c 0,0,1
EndSplineSet
EndChar

StartChar: t
Encoding: 116 116 87
Width: 776
GlyphClass: 2
Flags: W
AnchorPoint: "Anchor-0" 481 0 basechar 0
LayerCount: 2
UndoRedoHistory
Layer: 1
Undoes
EndUndoes
Redoes
EndRedoes
EndUndoRedoHistory
Fore
SplineSet
713 0 m 1,0,-1
 653 0 l 2,1,2
 566 0 566 0 506 6 c 128,-1,3
 446 12 446 12 392 29.5 c 128,-1,4
 338 47 338 47 307 78.5 c 128,-1,5
 276 110 276 110 258 162 c 128,-1,6
 240 214 240 214 240 287 c 0,7,8
 240 318 240 318 243 355 c 2,9,-1
 290 891 l 1,10,-1
 124 891 l 1,11,-1
 136 1026 l 1,12,-1
 308 1026 l 1,13,-1
 331 1283 l 1,14,-1
 534 1342 l 1,15,-1
 506 1026 l 1,16,-1
 787 1026 l 1,17,-1
 775 891 l 1,18,-1
 494 891 l 1,19,-1
 446 335 l 2,20,21
 444 307 444 307 444 296 c 0,22,23
 444 208 444 208 501.5 182.5 c 128,-1,24
 559 157 559 157 727 157 c 1,25,-1
 713 0 l 1,0,-1
EndSplineSet
EndChar

StartChar: u
Encoding: 117 117 88
Width: 1212
GlyphClass: 2
Flags: W
AnchorPoint: "Anchor-1" 959 0 basechar 0
LayerCount: 2
UndoRedoHistory
Layer: 1
Undoes
EndUndoes
Redoes
EndRedoes
EndUndoRedoHistory
Fore
SplineSet
531 -23 m 0,0,1
 360 -23 360 -23 270 78.5 c 128,-1,2
 180 180 180 180 180 340 c 0,3,4
 180 356 180 356 182 388 c 2,5,-1
 238 1026 l 1,6,-1
 441 1026 l 1,7,-1
 386 388 l 2,8,9
 384 364 384 364 384 353 c 0,10,11
 384 248 384 248 441.5 194.5 c 128,-1,12
 499 141 499 141 602 141 c 0,13,14
 725 141 725 141 798.5 216.5 c 128,-1,15
 872 292 872 292 883 422 c 2,16,-1
 937 1026 l 1,17,-1
 1141 1026 l 1,18,-1
 1074 260 l 2,19,20
 1065 152 1065 152 1061 0 c 1,21,-1
 851 0 l 1,22,-1
 863 182 l 1,23,24
 854 159 854 159 837.5 134.5 c 128,-1,25
 821 110 821 110 792 81 c 128,-1,26
 763 52 763 52 727.5 29.5 c 128,-1,27
 692 7 692 7 640.5 -8 c 128,-1,28
 589 -23 589 -23 531 -23 c 0,0,1
EndSplineSet
EndChar

StartChar: v
Encoding: 118 118 89
Width: 1091
GlyphClass: 2
Flags: W
LayerCount: 2
UndoRedoHistory
Layer: 1
Undoes
EndUndoes
Redoes
EndRedoes
EndUndoRedoHistory
Fore
SplineSet
448 0 m 1,0,-1
 108 1026 l 1,1,-1
 332 1026 l 1,2,-1
 512 416 l 1,3,-1
 570 215 l 1,4,-1
 658 416 l 1,5,-1
 945 1026 l 1,6,-1
 1165 1026 l 1,7,-1
 643 0 l 1,8,-1
 448 0 l 1,0,-1
EndSplineSet
EndChar

StartChar: w
Encoding: 119 119 90
Width: 1642
GlyphClass: 2
Flags: W
LayerCount: 2
UndoRedoHistory
Layer: 1
Undoes
EndUndoes
Redoes
EndRedoes
EndUndoRedoHistory
Fore
SplineSet
370 0 m 1,0,-1
 111 1026 l 1,1,-1
 327 1026 l 1,2,-1
 470 374 l 1,3,-1
 499 240 l 1,4,-1
 552 365 l 1,5,-1
 836 1026 l 1,6,-1
 1023 1026 l 1,7,-1
 1178 360 l 1,8,-1
 1206 239 l 1,9,-1
 1252 358 l 1,10,-1
 1513 1026 l 1,11,-1
 1710 1026 l 1,12,-1
 1265 0 l 1,13,-1
 1083 0 l 1,14,-1
 928 646 l 1,15,-1
 895 782 l 1,16,-1
 835 648 l 1,17,-1
 553 0 l 1,18,-1
 370 0 l 1,0,-1
EndSplineSet
EndChar

StartChar: x
Encoding: 120 120 91
Width: 1037
GlyphClass: 2
Flags: W
LayerCount: 2
UndoRedoHistory
Layer: 1
Undoes
EndUndoes
Redoes
EndRedoes
EndUndoRedoHistory
Fore
SplineSet
44 0 m 1,0,-1
 459 508 l 1,1,-1
 150 1026 l 1,2,-1
 370 1026 l 1,3,-1
 585 660 l 1,4,-1
 880 1026 l 1,5,-1
 1090 1026 l 1,6,-1
 686 528 l 1,7,-1
 1009 0 l 1,8,-1
 791 0 l 1,9,-1
 561 375 l 1,10,-1
 258 0 l 1,11,-1
 44 0 l 1,0,-1
EndSplineSet
EndChar

StartChar: y
Encoding: 121 121 92
Width: 1082
GlyphClass: 2
Flags: W
LayerCount: 2
UndoRedoHistory
Layer: 1
Undoes
EndUndoes
Redoes
EndRedoes
EndUndoRedoHistory
Fore
SplineSet
172 -438 m 1,0,-1
 114 -298 l 1,1,2
 244 -259 244 -259 326 -188.5 c 128,-1,3
 408 -118 408 -118 443 -42 c 2,4,-1
 469 13 l 1,5,-1
 135 1026 l 1,6,-1
 345 1026 l 1,7,-1
 583 227 l 1,8,-1
 934 1026 l 1,9,-1
 1146 1026 l 1,10,-1
 630 -69 l 2,11,12
 485 -377 485 -377 172 -438 c 1,0,-1
EndSplineSet
EndChar

StartChar: z
Encoding: 122 122 93
Width: 966
GlyphClass: 2
Flags: W
LayerCount: 2
UndoRedoHistory
Layer: 1
Undoes
EndUndoes
Redoes
EndRedoes
EndUndoRedoHistory
Fore
SplineSet
126 0 m 1,0,-1
 136 109 l 1,1,-1
 700 862 l 1,2,-1
 197 862 l 1,3,-1
 212 1026 l 1,4,-1
 978 1026 l 1,5,-1
 968 919 l 1,6,-1
 404 164 l 1,7,-1
 917 164 l 1,8,-1
 915 0 l 1,9,-1
 126 0 l 1,0,-1
EndSplineSet
EndChar

StartChar: braceleft
Encoding: 123 123 94
Width: 693
GlyphClass: 2
Flags: W
LayerCount: 2
UndoRedoHistory
Layer: 1
Undoes
EndUndoes
Redoes
EndRedoes
EndUndoRedoHistory
Fore
SplineSet
642 -208 m 1,0,1
 285 -204 285 -204 285 71 c 0,2,3
 285 84 285 84 287 110 c 2,4,-1
 307 340 l 2,5,6
 309 372 309 372 309 385 c 0,7,8
 309 555 309 555 152 563 c 1,9,-1
 165 710 l 1,10,11
 248 714 248 714 298 766 c 128,-1,12
 348 818 348 818 357 911 c 2,13,-1
 377 1140 l 2,14,15
 406 1480 406 1480 789 1480 c 1,16,-1
 777 1321 l 1,17,18
 686 1320 686 1320 639 1268 c 128,-1,19
 592 1216 592 1216 583 1111 c 2,20,-1
 561 861 l 2,21,22
 553 775 553 775 498 717 c 128,-1,23
 443 659 443 659 363 632 c 1,24,25
 434 600 434 600 476 538.5 c 128,-1,26
 518 477 518 477 518 396 c 0,27,28
 518 380 518 380 517 372 c 2,29,-1
 497 132 l 2,30,31
 495 108 495 108 495 99 c 0,32,33
 495 14 495 14 536.5 -17.5 c 128,-1,34
 578 -49 578 -49 655 -50 c 1,35,-1
 642 -208 l 1,0,1
EndSplineSet
EndChar

StartChar: bar
Encoding: 124 124 95
Width: 781
GlyphClass: 2
Flags: W
LayerCount: 2
UndoRedoHistory
Layer: 1
Undoes
EndUndoes
Redoes
EndRedoes
EndUndoRedoHistory
Fore
SplineSet
267 -474 m 1,0,-1
 442 1527 l 1,1,-1
 636 1527 l 1,2,-1
 461 -474 l 1,3,-1
 267 -474 l 1,0,-1
EndSplineSet
EndChar

StartChar: braceright
Encoding: 125 125 96
Width: 803
GlyphClass: 2
Flags: W
LayerCount: 2
UndoRedoHistory
Layer: 1
Undoes
EndUndoes
Redoes
EndRedoes
EndUndoRedoHistory
Fore
SplineSet
101 -212 m 1,0,-1
 113 -53 l 1,1,2
 204 -52 204 -52 251.5 0 c 128,-1,3
 299 52 299 52 308 157 c 2,4,-1
 330 407 l 2,5,6
 338 493 338 493 393 551 c 128,-1,7
 448 609 448 609 527 636 c 1,8,9
 457 668 457 668 415 729.5 c 128,-1,10
 373 791 373 791 373 872 c 2,11,-1
 373 896 l 1,12,-1
 394 1136 l 2,13,14
 396 1160 396 1160 396 1169 c 0,15,16
 396 1255 396 1255 354 1286.5 c 128,-1,17
 312 1318 312 1318 235 1318 c 1,18,-1
 249 1476 l 1,19,20
 605 1472 605 1472 605 1198 c 0,21,22
 605 1186 605 1186 603 1158 c 2,23,-1
 583 928 l 2,24,25
 581 898 581 898 581 885 c 0,26,27
 581 800 581 800 618.5 755 c 128,-1,28
 656 710 656 710 738 705 c 1,29,-1
 726 558 l 1,30,31
 642 554 642 554 591.5 501.5 c 128,-1,32
 541 449 541 449 533 356 c 2,33,-1
 514 128 l 1,34,35
 484 -212 484 -212 101 -212 c 1,0,-1
EndSplineSet
EndChar

StartChar: asciitilde
Encoding: 126 126 97
Width: 1329
GlyphClass: 2
Flags: W
LayerCount: 2
UndoRedoHistory
Layer: 1
Undoes
EndUndoes
Redoes
EndRedoes
EndUndoRedoHistory
Fore
SplineSet
333 362 m 1,0,-1
 187 435 l 1,1,2
 221 552 221 552 307.5 627.5 c 128,-1,3
 394 703 394 703 518 703 c 0,4,5
 556 703 556 703 606.5 689 c 128,-1,6
 657 675 657 675 689.5 662 c 128,-1,7
 722 649 722 649 779 623 c 0,8,9
 783 621 783 621 826.5 602.5 c 128,-1,10
 870 584 870 584 901.5 573 c 128,-1,11
 933 562 933 562 950 562 c 0,12,13
 1001 562 1001 562 1044.5 614 c 128,-1,14
 1088 666 1088 666 1112 740 c 1,15,-1
 1274 689 l 1,16,17
 1232 556 1232 556 1145 475.5 c 128,-1,18
 1058 395 1058 395 937 395 c 0,19,20
 869 395 869 395 715 469 c 0,21,22
 714 469 714 469 677 484.5 c 128,-1,23
 640 500 640 500 616.5 509.5 c 128,-1,24
 593 519 593 519 559.5 528.5 c 128,-1,25
 526 538 526 538 508 538 c 0,26,27
 446 538 446 538 402.5 489 c 128,-1,28
 359 440 359 440 333 362 c 1,0,-1
EndSplineSet
EndChar

StartChar: cent
Encoding: 162 162 100
Width: 1113
GlyphClass: 2
Flags: W
LayerCount: 2
UndoRedoHistory
Layer: 1
Undoes
EndUndoes
Redoes
EndRedoes
EndUndoRedoHistory
Fore
SplineSet
711.389718282 162.751271622 m 1,0,1
 846.005229259 170.448124294 846.005229259 170.448124294 969 257 c 1,2,-1
 1019 110 l 1,3,4
 878.222438601 10.208310907 878.222438601 10.208310907 696.957198486 -0.669260221411 c 1,5,-1
 679 -204 l 1,6,-1
 580 -204 l 1,7,-1
 598.018828964 0.0285864285595 l 1,8,9
 414.135411832 14.2393422192 414.135411832 14.2393422192 303 128 c 0,10,11
 176 258 176 258 176 467 c 0,12,13
 176 596 176 596 219 708.5 c 128,-1,14
 262 821 262 821 336.5 901 c 128,-1,15
 411 981 411 981 516 1026.5 c 0,16,17
 599.231955938 1062.56718091 599.231955938 1062.56718091 692.517511498 1070.04443789 c 1,18,-1
 710 1268 l 1,19,-1
 809 1268 l 1,20,-1
 791.536458909 1070.25898088 l 1,21,22
 874.252812725 1064.30619405 874.252812725 1064.30619405 943.5 1038 c 0,23,24
 1033 1004 1033 1004 1086 940 c 1,25,-1
 990 812 l 1,26,27
 909.123410619 898.328943721 909.123410619 898.328943721 777.048309938 906.208555611 c 1,28,-1
 711.389718282 162.751271622 l 1,0,1
677.553526781 900.606087855 m 1,29,30
 564.807072831 879.707312978 564.807072831 879.707312978 489 790.5 c 0,31,32
 390 674 390 674 390 480 c 0,33,34
 390 333 390 333 468.5 247.5 c 0,35,36
 525.188606855 185.756358139 525.188606855 185.756358139 612.906316677 168.600754994 c 1,37,-1
 677.553526781 900.606087855 l 1,29,30
EndSplineSet
EndChar

StartChar: sterling
Encoding: 163 163 101
Width: 1243
GlyphClass: 2
Flags: W
LayerCount: 2
UndoRedoHistory
Layer: 1
Undoes
EndUndoes
Redoes
EndRedoes
EndUndoRedoHistory
Fore
SplineSet
197 0 m 1,0,-1
 209 161 l 1,1,2
 248 188 248 188 277 217 c 128,-1,3
 306 246 306 246 335.5 291.5 c 128,-1,4
 365 337 365 337 384 403.5 c 128,-1,5
 403 470 403 470 411 555 c 2,6,-1
 424 696 l 1,7,-1
 229 696 l 1,8,-1
 240 826 l 1,9,-1
 433 826 l 1,10,-1
 441 912 l 2,11,12
 450 1011 450 1011 467.5 1089 c 128,-1,13
 485 1167 485 1167 522 1240.5 c 128,-1,14
 559 1314 559 1314 613 1362 c 128,-1,15
 667 1410 667 1410 750.5 1439 c 128,-1,16
 834 1468 834 1468 943 1468 c 0,17,18
 1128 1468 1128 1468 1241 1390 c 1,19,-1
 1174 1236 l 1,20,21
 1067 1298 1067 1298 939 1298 c 0,22,23
 801 1298 801 1298 734.5 1215.5 c 128,-1,24
 668 1133 668 1133 653 959 c 1,25,26
 644 873 644 873 644 826 c 1,27,-1
 965 826 l 1,28,-1
 953 696 l 1,29,-1
 638 696 l 1,30,31
 638 694 638 694 632 626.5 c 128,-1,32
 626 559 626 559 625 553 c 0,33,34
 614 451 614 451 559 336 c 128,-1,35
 504 221 504 221 452 169 c 1,36,-1
 1078 169 l 1,37,-1
 1064 0 l 1,38,-1
 197 0 l 1,0,-1
EndSplineSet
EndChar

StartChar: currency
Encoding: 164 164 102
Width: 1218
GlyphClass: 2
Flags: W
LayerCount: 2
UndoRedoHistory
Layer: 1
Undoes
EndUndoes
Redoes
EndRedoes
EndUndoRedoHistory
Fore
SplineSet
755 1332 m 0,0,1
 618 1332 618 1332 521 1234.5 c 128,-1,2
 424 1137 424 1137 424 993 c 0,3,4
 424 872 424 872 501.5 791.5 c 128,-1,5
 579 711 579 711 701 711 c 0,6,7
 837 711 837 711 934 810 c 128,-1,8
 1031 909 1031 909 1031 1053 c 0,9,10
 1031 1173 1031 1173 954 1252.5 c 128,-1,11
 877 1332 877 1332 755 1332 c 0,0,1
1122 1060 m 0,12,13
 1122 899 1122 899 1011 780 c 1,14,-1
 1181 595 l 1,15,-1
 1125 544 l 1,16,-1
 955 730 l 1,17,18
 838 640 838 640 696 640 c 0,19,20
 553 640 553 640 452 731 c 1,21,-1
 248 544 l 1,22,-1
 202 595 l 1,23,-1
 405 782 l 1,24,25
 336 875 336 875 336 992 c 0,26,27
 336 1153 336 1153 455 1277 c 1,28,-1
 277 1472 l 1,29,-1
 333 1523 l 1,30,-1
 513 1327 l 1,31,32
 626 1410 626 1410 763 1410 c 0,33,34
 898 1410 898 1410 999 1328 c 1,35,-1
 1211 1523 l 1,36,-1
 1257 1472 l 1,37,-1
 1047 1279 l 1,38,39
 1122 1183 1122 1183 1122 1060 c 0,12,13
EndSplineSet
EndChar

StartChar: yen
Encoding: 165 165 103
Width: 1243
GlyphClass: 2
Flags: W
LayerCount: 2
UndoRedoHistory
Layer: 1
Undoes
EndUndoes
Redoes
EndRedoes
EndUndoRedoHistory
Fore
SplineSet
762.215384615 381 m 1,0,-1
 1100 381 l 1,1,-1
 1086 264 l 1,2,-1
 752.015384615 264 l 1,3,-1
 729 0 l 1,4,-1
 518 0 l 1,5,-1
 541.134020619 264 l 1,6,-1
 189 264 l 1,7,-1
 202 381 l 1,8,-1
 551.386597938 381 l 1,9,-1
 568.386597938 575 l 1,10,-1
 214 575 l 1,11,-1
 227 697 l 1,12,-1
 512.552631579 697 l 1,13,-1
 140 1456 l 1,14,-1
 372 1456 l 1,15,-1
 695 774 l 1,16,-1
 1128 1456 l 1,17,-1
 1368 1456 l 1,18,-1
 855.609644087 697 l 1,19,-1
 1124 697 l 1,20,-1
 1110 575 l 1,21,-1
 779.128205128 575 l 1,22,-1
 762.215384615 381 l 1,0,-1
EndSplineSet
EndChar

StartChar: brokenbar
Encoding: 166 166 104
Width: 500
GlyphClass: 2
Flags: W
LayerCount: 2
UndoRedoHistory
Layer: 1
Undoes
EndUndoes
Redoes
EndRedoes
EndUndoRedoHistory
Fore
SplineSet
244 553 m 1,0,-1
 323 1456 l 1,1,-1
 485 1456 l 1,2,-1
 406 553 l 1,3,-1
 244 553 l 1,0,-1
149 -545 m 1,4,-1
 225 333 l 1,5,-1
 388 333 l 1,6,-1
 312 -545 l 1,7,-1
 149 -545 l 1,4,-1
EndSplineSet
EndChar

StartChar: section
Encoding: 167 167 105
Width: 1079
GlyphClass: 2
Flags: W
LayerCount: 2
UndoRedoHistory
Layer: 1
Undoes
EndUndoes
Redoes
EndRedoes
EndUndoRedoHistory
Fore
SplineSet
926 298 m 0,0,1
 926 216 926 216 890 151 c 128,-1,2
 854 86 854 86 792.5 46.5 c 128,-1,3
 731 7 731 7 655 -13.5 c 128,-1,4
 579 -34 579 -34 495 -34 c 0,5,6
 338 -34 338 -34 204 22 c 1,7,-1
 219 184 l 1,8,9
 368 117 368 117 502 117 c 0,10,11
 593 117 593 117 657 160.5 c 128,-1,12
 721 204 721 204 721 272 c 0,13,14
 721 297 721 297 709.5 316 c 128,-1,15
 698 335 698 335 661 357 c 128,-1,16
 624 379 624 379 598 391.5 c 128,-1,17
 572 404 572 404 501 434 c 0,18,19
 462 451 462 451 441 460 c 1,20,21
 333 513 333 513 286 569.5 c 128,-1,22
 239 626 239 626 239 705 c 0,23,24
 239 865 239 865 428 970 c 1,25,26
 371 1012 371 1012 342.5 1060 c 128,-1,27
 314 1108 314 1108 314 1175 c 0,28,29
 314 1254 314 1254 347 1315 c 128,-1,30
 380 1376 380 1376 436.5 1413 c 128,-1,31
 493 1450 493 1450 564.5 1468.5 c 128,-1,32
 636 1487 636 1487 718 1487 c 0,33,34
 841 1487 841 1487 971 1443 c 1,35,-1
 955 1285 l 1,36,37
 831 1330 831 1330 716 1330 c 0,38,39
 631 1330 631 1330 570 1299.5 c 128,-1,40
 509 1269 509 1269 509 1207 c 0,41,42
 509 1160 509 1160 560.5 1120.5 c 128,-1,43
 612 1081 612 1081 729 1026 c 0,44,45
 778 1002 778 1002 808.5 985 c 128,-1,46
 839 968 839 968 877 941.5 c 128,-1,47
 915 915 915 915 936.5 890 c 128,-1,48
 958 865 958 865 973 831.5 c 128,-1,49
 988 798 988 798 988 760 c 0,50,51
 988 619 988 619 802 497 c 1,52,53
 926 424 926 424 926 298 c 0,0,1
546 899 m 1,54,55
 439 831 439 831 439 743 c 0,56,57
 439 730 439 730 442.5 718 c 128,-1,58
 446 706 446 706 455 695 c 128,-1,59
 464 684 464 684 472.5 675 c 128,-1,60
 481 666 481 666 497.5 656 c 128,-1,61
 514 646 514 646 526.5 638.5 c 128,-1,62
 539 631 539 631 561.5 620.5 c 128,-1,63
 584 610 584 610 598 603.5 c 128,-1,64
 612 597 612 597 639 585.5 c 128,-1,65
 666 574 666 574 681 567 c 1,66,67
 781 640 781 640 781 724 c 0,68,69
 781 750 781 750 766.5 772.5 c 128,-1,70
 752 795 752 795 724 812.5 c 128,-1,71
 696 830 696 830 669.5 842.5 c 128,-1,72
 643 855 643 855 605 871.5 c 128,-1,73
 567 888 567 888 546 899 c 1,54,55
EndSplineSet
EndChar

StartChar: dieresis
Encoding: 168 168 106
Width: 743
GlyphClass: 2
Flags: W
LayerCount: 2
UndoRedoHistory
Layer: 1
Undoes
EndUndoes
Redoes
EndRedoes
EndUndoRedoHistory
Fore
SplineSet
574 1212 m 1,0,-1
 592 1407 l 1,1,-1
 795 1407 l 1,2,-1
 778 1212 l 1,3,-1
 574 1212 l 1,0,-1
179 1212 m 1,4,-1
 196 1407 l 1,5,-1
 400 1407 l 1,6,-1
 383 1212 l 1,7,-1
 179 1212 l 1,4,-1
EndSplineSet
EndChar

StartChar: copyright
Encoding: 169 169 107
Width: 1829
GlyphClass: 2
Flags: W
LayerCount: 2
UndoRedoHistory
Layer: 1
Undoes
EndUndoes
Redoes
EndRedoes
EndUndoRedoHistory
Fore
SplineSet
1040 1367 m 0,0,1
 846 1367 846 1367 682.5 1276.5 c 128,-1,2
 519 1186 519 1186 423 1025 c 128,-1,3
 327 864 327 864 327 669 c 0,4,5
 327 505 327 505 402.5 372 c 128,-1,6
 478 239 478 239 616 162.5 c 128,-1,7
 754 86 754 86 930 86 c 0,8,9
 1074 86 1074 86 1205.5 140 c 128,-1,10
 1337 194 1337 194 1433 286.5 c 128,-1,11
 1529 379 1529 379 1585.5 509.5 c 128,-1,12
 1642 640 1642 640 1642 786 c 0,13,14
 1642 950 1642 950 1566.5 1082.5 c 128,-1,15
 1491 1215 1491 1215 1353 1291 c 128,-1,16
 1215 1367 1215 1367 1040 1367 c 0,0,1
1048 1484 m 0,17,18
 1205 1484 1205 1484 1341.5 1430 c 128,-1,19
 1478 1376 1478 1376 1573 1283 c 128,-1,20
 1668 1190 1668 1190 1722.5 1062.5 c 128,-1,21
 1777 935 1777 935 1777 793 c 0,22,23
 1777 624 1777 624 1707 471 c 128,-1,24
 1637 318 1637 318 1520.5 209.5 c 128,-1,25
 1404 101 1404 101 1246.5 37 c 128,-1,26
 1089 -27 1089 -27 920 -27 c 0,27,28
 763 -27 763 -27 626 27 c 128,-1,29
 489 81 489 81 394 173 c 128,-1,30
 299 265 299 265 244.5 392.5 c 128,-1,31
 190 520 190 520 190 663 c 0,32,33
 190 776 190 776 222 884 c 128,-1,34
 254 992 254 992 311 1081.5 c 128,-1,35
 368 1171 368 1171 448 1246.5 c 128,-1,36
 528 1322 528 1322 622.5 1374 c 128,-1,37
 717 1426 717 1426 826 1455 c 128,-1,38
 935 1484 935 1484 1048 1484 c 0,17,18
1042 1028 m 0,39,40
 902 1028 902 1028 811.5 932.5 c 128,-1,41
 721 837 721 837 721 694 c 0,42,43
 721 575 721 575 795 499 c 128,-1,44
 869 423 869 423 1002 423 c 0,45,46
 1122 423 1122 423 1242 496 c 1,47,-1
 1276 359 l 1,48,49
 1132 270 1132 270 966 270 c 0,50,51
 779 270 779 270 657.5 384.5 c 128,-1,52
 536 499 536 499 536 681 c 0,53,54
 536 827 536 827 607 942.5 c 128,-1,55
 678 1058 678 1058 795 1119 c 128,-1,56
 912 1180 912 1180 1051 1180 c 0,57,58
 1212 1180 1212 1180 1338 1085 c 1,59,-1
 1284 948 l 1,60,61
 1173 1028 1173 1028 1042 1028 c 0,39,40
EndSplineSet
EndChar

StartChar: ordfeminine
Encoding: 170 170 108
Width: 828
GlyphClass: 2
Flags: W
LayerCount: 2
UndoRedoHistory
Layer: 1
Undoes
EndUndoes
Redoes
EndRedoes
EndUndoRedoHistory
Fore
SplineSet
455 869 m 0,0,1
 531 869 531 869 593 928.5 c 128,-1,2
 655 988 655 988 668 1069 c 1,3,4
 668 1103 668 1103 670 1107 c 1,5,6
 513 1101 513 1101 436.5 1068 c 128,-1,7
 360 1035 360 1035 360 946 c 0,8,9
 360 869 360 869 455 869 c 0,0,1
595 1189 m 0,10,11
 600 1189 600 1189 635.5 1190 c 128,-1,12
 671 1191 671 1191 678 1191 c 1,13,14
 678 1193 678 1193 679.5 1202.5 c 128,-1,15
 681 1212 681 1212 681 1214 c 0,16,17
 682 1224 682 1224 682 1241 c 0,18,19
 682 1301 682 1301 651 1327.5 c 128,-1,20
 620 1354 620 1354 556 1354 c 0,21,22
 461 1354 461 1354 322 1302 c 1,23,-1
 281 1415 l 1,24,25
 322 1438 322 1438 403.5 1458.5 c 128,-1,26
 485 1479 485 1479 580 1479 c 0,27,28
 700 1479 700 1479 772.5 1426 c 128,-1,29
 845 1373 845 1373 845 1255 c 0,30,31
 845 1246 845 1246 843 1222 c 128,-1,32
 841 1198 841 1198 833.5 1115.5 c 128,-1,33
 826 1033 826 1033 823 998 c 128,-1,34
 820 963 820 963 817 905.5 c 128,-1,35
 814 848 814 848 814 806 c 2,36,-1
 814 783 l 1,37,-1
 661 783 l 1,38,-1
 661 922 l 1,39,40
 623 835 623 835 562.5 796 c 128,-1,41
 502 757 502 757 415 757 c 0,42,43
 318 757 318 757 260.5 802.5 c 128,-1,44
 203 848 203 848 203 934 c 0,45,46
 203 1049 203 1049 307 1118.5 c 128,-1,47
 411 1188 411 1188 595 1189 c 0,10,11
EndSplineSet
EndChar

StartChar: guillemotleft
Encoding: 171 171 109
Width: 1156
GlyphClass: 2
Flags: W
LayerCount: 2
UndoRedoHistory
Layer: 1
Undoes
EndUndoes
Redoes
EndRedoes
EndUndoRedoHistory
Fore
SplineSet
811 165 m 1,0,-1
 571 541 l 1,1,-1
 883 918 l 1,2,-1
 1068 918 l 1,3,-1
 768 541 l 1,4,-1
 995 165 l 1,5,-1
 811 165 l 1,0,-1
413 165 m 1,6,-1
 174 541 l 1,7,-1
 485 918 l 1,8,-1
 674 918 l 1,9,-1
 370 541 l 1,10,-1
 598 165 l 1,11,-1
 413 165 l 1,6,-1
EndSplineSet
EndChar

StartChar: logicalnot
Encoding: 172 172 110
Width: 1458
GlyphClass: 2
Flags: W
LayerCount: 2
UndoRedoHistory
Layer: 1
Undoes
EndUndoes
Redoes
EndRedoes
EndUndoRedoHistory
Fore
SplineSet
1080 230 m 1,0,-1
 1116 636 l 1,1,-1
 249 636 l 1,2,-1
 264 806 l 1,3,-1
 1320 806 l 1,4,-1
 1270 230 l 1,5,-1
 1080 230 l 1,0,-1
EndSplineSet
EndChar

StartChar: uni00AD
Encoding: 173 173 111
Width: 728
GlyphClass: 2
Flags: W
LayerCount: 2
UndoRedoHistory
Layer: 1
Undoes
EndUndoes
Redoes
EndRedoes
EndUndoRedoHistory
Fore
SplineSet
173 1217 m 1,0,-1
 186 1371 l 1,1,-1
 782 1371 l 1,2,-1
 770 1217 l 1,3,-1
 173 1217 l 1,0,-1
EndSplineSet
EndChar

StartChar: registered
Encoding: 174 174 112
Width: 1829
GlyphClass: 2
Flags: W
LayerCount: 2
UndoRedoHistory
Layer: 1
Undoes
EndUndoes
Redoes
EndRedoes
EndUndoRedoHistory
Fore
SplineSet
1032 1484 m 0,0,1
 1189 1484 1189 1484 1325.5 1430 c 128,-1,2
 1462 1376 1462 1376 1557 1283 c 128,-1,3
 1652 1190 1652 1190 1706.5 1062.5 c 128,-1,4
 1761 935 1761 935 1761 793 c 0,5,6
 1761 657 1761 657 1716.5 531 c 128,-1,7
 1672 405 1672 405 1591.5 305 c 128,-1,8
 1511 205 1511 205 1404.5 129.5 c 128,-1,9
 1298 54 1298 54 1169.5 13.5 c 128,-1,10
 1041 -27 1041 -27 905 -27 c 0,11,12
 748 -27 748 -27 611 27 c 128,-1,13
 474 81 474 81 378.5 173 c 128,-1,14
 283 265 283 265 228.5 392.5 c 128,-1,15
 174 520 174 520 174 663 c 0,16,17
 174 776 174 776 206 884 c 128,-1,18
 238 992 238 992 295 1081.5 c 128,-1,19
 352 1171 352 1171 432 1246.5 c 128,-1,20
 512 1322 512 1322 606.5 1374 c 128,-1,21
 701 1426 701 1426 810 1455 c 128,-1,22
 919 1484 919 1484 1032 1484 c 0,0,1
1024 1367 m 0,23,24
 830 1367 830 1367 666.5 1276.5 c 128,-1,25
 503 1186 503 1186 407 1025 c 128,-1,26
 311 864 311 864 311 669 c 0,27,28
 311 505 311 505 386.5 372 c 128,-1,29
 462 239 462 239 600 162.5 c 128,-1,30
 738 86 738 86 914 86 c 0,31,32
 1058 86 1058 86 1189.5 140 c 128,-1,33
 1321 194 1321 194 1417 286.5 c 128,-1,34
 1513 379 1513 379 1569.5 509.5 c 128,-1,35
 1626 640 1626 640 1626 786 c 0,36,37
 1626 950 1626 950 1550.5 1082.5 c 128,-1,38
 1475 1215 1475 1215 1337 1291 c 128,-1,39
 1199 1367 1199 1367 1024 1367 c 0,23,24
1369 962 m 0,40,41
 1369 854 1369 854 1301.5 779 c 128,-1,42
 1234 704 1234 704 1099 683 c 1,43,44
 1148 642 1148 642 1199 558 c 128,-1,45
 1250 474 1250 474 1346 281 c 1,46,-1
 1127 281 l 1,47,48
 1079 404 1079 404 1016 521 c 128,-1,49
 953 638 953 638 920 658 c 1,50,-1
 809 658 l 1,51,-1
 775 281 l 1,52,-1
 592 281 l 1,53,-1
 673 1204 l 1,54,-1
 961 1204 l 2,55,56
 1369 1204 1369 1204 1369 962 c 0,40,41
931 803 m 2,57,58
 985 803 985 803 1019.5 805.5 c 128,-1,59
 1054 808 1054 808 1087.5 816.5 c 128,-1,60
 1121 825 1121 825 1139.5 840.5 c 128,-1,61
 1158 856 1158 856 1169.5 882.5 c 128,-1,62
 1181 909 1181 909 1181 947 c 0,63,64
 1181 1017 1181 1017 1131.5 1037 c 128,-1,65
 1082 1057 1082 1057 946 1057 c 2,66,-1
 843 1057 l 1,67,-1
 820 803 l 1,68,-1
 931 803 l 2,57,58
EndSplineSet
EndChar

StartChar: macron
Encoding: 175 175 113
Width: 728
GlyphClass: 2
Flags: W
LayerCount: 2
UndoRedoHistory
Layer: 1
Undoes
EndUndoes
Redoes
EndRedoes
EndUndoRedoHistory
Fore
SplineSet
170 1190 m 1,0,-1
 183 1345 l 1,1,-1
 780 1345 l 1,2,-1
 767 1190 l 1,3,-1
 170 1190 l 1,0,-1
EndSplineSet
EndChar

StartChar: degree
Encoding: 176 176 114
Width: 844
GlyphClass: 2
Flags: W
LayerCount: 2
UndoRedoHistory
Layer: 1
Undoes
EndUndoes
Redoes
EndRedoes
EndUndoRedoHistory
Fore
SplineSet
843 1209 m 0,0,1
 843 1076 843 1076 748.5 978 c 128,-1,2
 654 880 654 880 509 880 c 0,3,4
 381 880 381 880 304 958.5 c 128,-1,5
 227 1037 227 1037 227 1151 c 0,6,7
 227 1284 227 1284 321 1382 c 128,-1,8
 415 1480 415 1480 561 1480 c 0,9,10
 689 1480 689 1480 766 1401.5 c 128,-1,11
 843 1323 843 1323 843 1209 c 0,0,1
547 1352 m 0,12,13
 468 1352 468 1352 420.5 1296 c 128,-1,14
 373 1240 373 1240 373 1163 c 0,15,16
 373 1099 373 1099 411.5 1055 c 128,-1,17
 450 1011 450 1011 519 1011 c 0,18,19
 599 1011 599 1011 646 1066 c 128,-1,20
 693 1121 693 1121 693 1199 c 0,21,22
 693 1264 693 1264 654 1308 c 128,-1,23
 615 1352 615 1352 547 1352 c 0,12,13
EndSplineSet
EndChar

StartChar: plusminus
Encoding: 177 177 115
Width: 1243
GlyphClass: 2
Flags: W
LayerCount: 2
UndoRedoHistory
Layer: 1
Undoes
EndUndoes
Redoes
EndRedoes
EndUndoRedoHistory
Fore
SplineSet
182 0 m 1,0,-1
 195 137 l 1,1,-1
 1092 137 l 1,2,-1
 1078 0 l 1,3,-1
 182 0 l 1,0,-1
553 237 m 1,4,-1
 582 574 l 1,5,-1
 227 574 l 1,6,-1
 242 742 l 1,7,-1
 593 742 l 1,8,-1
 622 1082 l 1,9,-1
 813 1082 l 1,10,-1
 783 742 l 1,11,-1
 1138 742 l 1,12,-1
 1123 574 l 1,13,-1
 775 574 l 1,14,-1
 746 237 l 1,15,-1
 553 237 l 1,4,-1
EndSplineSet
EndChar

StartChar: uni00B2
Encoding: 178 178 116
Width: 946
GlyphClass: 2
Flags: W
LayerCount: 2
UndoRedoHistory
Layer: 1
Undoes
EndUndoes
Redoes
EndRedoes
EndUndoRedoHistory
Fore
SplineSet
256 638 m 1,0,-1
 267 767 l 1,1,2
 520 970 520 970 621 1072.5 c 128,-1,3
 722 1175 722 1175 722 1250 c 0,4,5
 722 1294 722 1294 689.5 1319 c 128,-1,6
 657 1344 657 1344 601 1344 c 0,7,8
 543 1344 543 1344 486.5 1314 c 128,-1,9
 430 1284 430 1284 387 1232 c 1,10,-1
 319 1335 l 1,11,12
 372 1403 372 1403 452 1441 c 128,-1,13
 532 1479 532 1479 621 1479 c 0,14,15
 733 1479 733 1479 803.5 1422.5 c 128,-1,16
 874 1366 874 1366 874 1265 c 0,17,18
 874 1234 874 1234 866.5 1203 c 128,-1,19
 859 1172 859 1172 849.5 1146 c 128,-1,20
 840 1120 840 1120 818.5 1089 c 128,-1,21
 797 1058 797 1058 780.5 1036.5 c 128,-1,22
 764 1015 764 1015 731 983.5 c 128,-1,23
 698 952 698 952 678 933 c 128,-1,24
 658 914 658 914 616 880.5 c 128,-1,25
 574 847 574 847 552.5 830.5 c 128,-1,26
 531 814 531 814 483 777 c 1,27,-1
 828 777 l 1,28,-1
 816 638 l 1,29,-1
 256 638 l 1,0,-1
EndSplineSet
EndChar

StartChar: uni00B3
Encoding: 179 179 117
Width: 943
GlyphClass: 2
Flags: W
LayerCount: 2
UndoRedoHistory
Layer: 1
Undoes
EndUndoes
Redoes
EndRedoes
EndUndoRedoHistory
Fore
SplineSet
851 893 m 0,0,1
 851 766 851 766 759 693 c 128,-1,2
 667 620 667 620 536 620 c 0,3,4
 373 620 373 620 267 715 c 1,5,-1
 334 823 l 1,6,7
 380 784 380 784 435 764.5 c 128,-1,8
 490 745 490 745 538 745 c 0,9,10
 610 745 610 745 656 783.5 c 128,-1,11
 702 822 702 822 702 890 c 0,12,13
 702 1001 702 1001 510 1001 c 2,14,-1
 443 1001 l 1,15,-1
 455 1124 l 1,16,-1
 517 1124 l 2,17,18
 708 1124 708 1124 708 1253 c 0,19,20
 708 1304 708 1304 678.5 1329.5 c 128,-1,21
 649 1355 649 1355 596 1355 c 0,22,23
 489 1355 489 1355 374 1277 c 1,24,-1
 322 1379 l 1,25,26
 381 1424 381 1424 459.5 1451.5 c 128,-1,27
 538 1479 538 1479 613 1479 c 0,28,29
 718 1479 718 1479 790.5 1424 c 128,-1,30
 863 1369 863 1369 863 1273 c 0,31,32
 863 1200 863 1200 824.5 1145.5 c 128,-1,33
 786 1091 786 1091 703 1068 c 1,34,35
 777 1046 777 1046 814 1000.5 c 128,-1,36
 851 955 851 955 851 893 c 0,0,1
EndSplineSet
EndChar

StartChar: acute
Encoding: 180 180 118
Width: 607
GlyphClass: 2
Flags: W
LayerCount: 2
UndoRedoHistory
Layer: 1
Undoes
EndUndoes
Redoes
EndRedoes
EndUndoRedoHistory
Fore
SplineSet
120 1170 m 1,0,-1
 393 1487 l 1,1,-1
 654 1487 l 1,2,-1
 297 1170 l 1,3,-1
 120 1170 l 1,0,-1
EndSplineSet
EndChar

StartChar: paragraph
Encoding: 182 182 119
Width: 1214
GlyphClass: 2
Flags: W
LayerCount: 2
UndoRedoHistory
Layer: 1
Undoes
EndUndoes
Redoes
EndRedoes
EndUndoRedoHistory
Fore
SplineSet
208 1102 m 0,0,1
 208 1184 208 1184 238.5 1246.5 c 128,-1,2
 269 1309 269 1309 319 1348 c 128,-1,3
 369 1387 369 1387 441.5 1412 c 128,-1,4
 514 1437 514 1437 590 1446.5 c 128,-1,5
 666 1456 666 1456 755 1456 c 2,6,-1
 1191 1456 l 1,7,-1
 1178 1300 l 1,8,-1
 1067 1300 l 1,9,-1
 942 -123 l 1,10,-1
 799 -123 l 1,11,-1
 923 1300 l 1,12,-1
 740 1300 l 1,13,-1
 617 -123 l 1,14,-1
 462 -123 l 1,15,-1
 541 780 l 1,16,17
 457 785 457 785 382 825 c 128,-1,18
 307 865 307 865 257.5 938.5 c 128,-1,19
 208 1012 208 1012 208 1102 c 0,0,1
EndSplineSet
EndChar

StartChar: periodcentered
Encoding: 183 183 120
Width: 444
GlyphClass: 2
Flags: W
LayerCount: 2
UndoRedoHistory
Layer: 1
Undoes
EndUndoes
Redoes
EndRedoes
EndUndoRedoHistory
Fore
SplineSet
158 532 m 1,0,-1
 178 771 l 1,1,-1
 430 771 l 1,2,-1
 409 532 l 1,3,-1
 158 532 l 1,0,-1
EndSplineSet
EndChar

StartChar: cedilla
Encoding: 184 184 121
Width: 529
GlyphClass: 4
Flags: W
AnchorPoint: "Anchor-0" 230 0 mark 0
LayerCount: 2
UndoRedoHistory
Layer: 1
Undoes
EndUndoes
Redoes
EndRedoes
EndUndoRedoHistory
Fore
SplineSet
483 -271 m 0,0,1
 483 -368 483 -368 397 -420.5 c 128,-1,2
 311 -473 311 -473 173 -473 c 0,3,4
 95 -473 95 -473 8 -454 c 1,5,-1
 29 -346 l 1,6,7
 101 -363 101 -363 161 -363 c 0,8,9
 307 -363 307 -363 307 -266 c 0,10,11
 307 -224 307 -224 269 -199 c 128,-1,12
 231 -174 231 -174 166 -174 c 2,13,-1
 137 -174 l 1,14,-1
 186 25 l 1,15,-1
 290 25 l 1,16,-1
 267 -95 l 1,17,18
 368 -99 368 -99 425.5 -150 c 128,-1,19
 483 -201 483 -201 483 -271 c 0,0,1
EndSplineSet
EndChar

StartChar: uni00B9
Encoding: 185 185 122
Width: 913
GlyphClass: 2
Flags: W
LayerCount: 2
UndoRedoHistory
Layer: 1
Undoes
EndUndoes
Redoes
EndRedoes
EndUndoRedoHistory
Fore
SplineSet
324 646 m 1,0,-1
 335 766 l 1,1,-1
 480 766 l 1,2,-1
 526 1303 l 1,3,4
 501 1291 501 1291 357 1240 c 1,5,-1
 372 1380 l 1,6,7
 495 1419 495 1419 566 1459 c 1,8,-1
 688 1476 l 1,9,-1
 625 763 l 1,10,-1
 768 763 l 1,11,-1
 758 646 l 1,12,-1
 324 646 l 1,0,-1
EndSplineSet
EndChar

StartChar: ordmasculine
Encoding: 186 186 123
Width: 882
GlyphClass: 2
Flags: W
LayerCount: 2
UndoRedoHistory
Layer: 1
Undoes
EndUndoes
Redoes
EndRedoes
EndUndoRedoHistory
Fore
SplineSet
920 1156 m 0,0,1
 920 986 920 986 810 872.5 c 128,-1,2
 700 759 700 759 519 759 c 0,3,4
 352 759 352 759 262.5 847.5 c 128,-1,5
 173 936 173 936 173 1080 c 0,6,7
 173 1254 173 1254 284.5 1366 c 128,-1,8
 396 1478 396 1478 580 1478 c 0,9,10
 742 1478 742 1478 831 1388 c 128,-1,11
 920 1298 920 1298 920 1156 c 0,0,1
567 1340 m 0,12,13
 473 1340 473 1340 414.5 1267.5 c 128,-1,14
 356 1195 356 1195 356 1091 c 0,15,16
 356 1005 356 1005 399.5 951.5 c 128,-1,17
 443 898 443 898 529 898 c 0,18,19
 624 898 624 898 681.5 969 c 128,-1,20
 739 1040 739 1040 739 1143 c 0,21,22
 739 1230 739 1230 694.5 1285 c 128,-1,23
 650 1340 650 1340 567 1340 c 0,12,13
EndSplineSet
EndChar

StartChar: guillemotright
Encoding: 187 187 124
Width: 1156
GlyphClass: 2
Flags: W
LayerCount: 2
UndoRedoHistory
Layer: 1
Undoes
EndUndoes
Redoes
EndRedoes
EndUndoRedoHistory
Fore
SplineSet
579 165 m 1,0,-1
 876 543 l 1,1,-1
 653 918 l 1,2,-1
 834 918 l 1,3,-1
 1074 542 l 1,4,-1
 762 165 l 1,5,-1
 579 165 l 1,0,-1
150 165 m 1,6,-1
 451 542 l 1,7,-1
 223 918 l 1,8,-1
 407 918 l 1,9,-1
 649 542 l 1,10,-1
 337 165 l 1,11,-1
 150 165 l 1,6,-1
EndSplineSet
EndChar

StartChar: onequarter
Encoding: 188 188 125
Width: 2101
GlyphClass: 2
Flags: W
LayerCount: 2
UndoRedoHistory
Layer: 1
Undoes
EndUndoes
Redoes
EndRedoes
EndUndoRedoHistory
Fore
SplineSet
304 595 m 1,0,-1
 315 726 l 1,1,-1
 453 726 l 1,2,-1
 498 1254 l 1,3,4
 437 1225 437 1225 345 1193 c 1,5,-1
 358 1331 l 1,6,7
 445 1359 445 1359 570 1428 c 1,8,-1
 671 1428 l 1,9,-1
 610 724 l 1,10,-1
 748 724 l 1,11,-1
 737 595 l 1,12,-1
 304 595 l 1,0,-1
529 0 m 1,13,-1
 1550 1430 l 1,14,-1
 1746 1430 l 1,15,-1
 726 0 l 1,16,-1
 529 0 l 1,13,-1
1462 290 m 1,17,-1
 1678 290 l 1,18,-1
 1715 614 l 1,19,-1
 1462 290 l 1,17,-1
1652 0 m 1,20,-1
 1669 181 l 1,21,-1
 1304 181 l 1,22,-1
 1313 293 l 1,23,-1
 1721 805 l 1,24,-1
 1882 805 l 1,25,-1
 1840 290 l 1,26,-1
 1951 290 l 1,27,-1
 1944 181 l 1,28,-1
 1826 181 l 1,29,-1
 1810 0 l 1,30,-1
 1652 0 l 1,20,-1
EndSplineSet
EndChar

StartChar: onehalf
Encoding: 189 189 126
Width: 2253
GlyphClass: 2
Flags: W
LayerCount: 2
UndoRedoHistory
Layer: 1
Undoes
EndUndoes
Redoes
EndRedoes
EndUndoRedoHistory
Fore
SplineSet
541 0 m 1,0,-1
 1562 1430 l 1,1,-1
 1759 1430 l 1,2,-1
 738 0 l 1,3,-1
 541 0 l 1,0,-1
1394 0 m 1,4,-1
 1407 119 l 1,5,6
 1663 318 1663 318 1759.5 426 c 128,-1,7
 1856 534 1856 534 1856 610 c 0,8,9
 1856 653 1856 653 1825 676 c 128,-1,10
 1794 699 1794 699 1741 699 c 0,11,12
 1685 699 1685 699 1626 671.5 c 128,-1,13
 1567 644 1567 644 1518 597 c 1,14,-1
 1455 714 l 1,15,16
 1515 775 1515 775 1596 809 c 128,-1,17
 1677 843 1677 843 1763 843 c 0,18,19
 1877 843 1877 843 1949.5 786.5 c 128,-1,20
 2022 730 2022 730 2022 626 c 0,21,22
 2022 595 2022 595 2013.5 563 c 128,-1,23
 2005 531 2005 531 1994.5 505 c 128,-1,24
 1984 479 1984 479 1959.5 446.5 c 128,-1,25
 1935 414 1935 414 1918 392 c 128,-1,26
 1901 370 1901 370 1864.5 336 c 128,-1,27
 1828 302 1828 302 1808.5 284.5 c 128,-1,28
 1789 267 1789 267 1743.5 231.5 c 128,-1,29
 1698 196 1698 196 1679.5 181.5 c 128,-1,30
 1661 167 1661 167 1611 130 c 1,31,-1
 1975 130 l 1,32,-1
 1961 0 l 1,33,-1
 1394 0 l 1,4,-1
304 595 m 1,34,-1
 315 726 l 1,35,-1
 453 726 l 1,36,-1
 498 1254 l 1,37,38
 437 1225 437 1225 345 1193 c 1,39,-1
 358 1331 l 1,40,41
 445 1359 445 1359 570 1428 c 1,42,-1
 671 1428 l 1,43,-1
 610 724 l 1,44,-1
 748 724 l 1,45,-1
 737 595 l 1,46,-1
 304 595 l 1,34,-1
EndSplineSet
EndChar

StartChar: threequarters
Encoding: 190 190 127
Width: 2244
GlyphClass: 2
Flags: W
LayerCount: 2
UndoRedoHistory
Layer: 1
Undoes
EndUndoes
Redoes
EndRedoes
EndUndoRedoHistory
Fore
SplineSet
629 0 m 1,0,-1
 1649 1430 l 1,1,-1
 1846 1430 l 1,2,-1
 826 0 l 1,3,-1
 629 0 l 1,0,-1
893 1220 m 0,4,5
 893 1093 893 1093 752 1027 c 1,6,7
 812 996 812 996 846 945 c 128,-1,8
 880 894 880 894 880 830 c 0,9,10
 880 708 880 708 785 640 c 128,-1,11
 690 572 690 572 559 572 c 0,12,13
 402 572 402 572 284 667 c 1,14,-1
 348 762 l 1,15,16
 392 729 392 729 448.5 708 c 128,-1,17
 505 687 505 687 558 687 c 0,18,19
 637 687 637 687 686 723 c 128,-1,20
 735 759 735 759 735 835 c 0,21,22
 735 895 735 895 682 928.5 c 128,-1,23
 629 962 629 962 536 962 c 2,24,-1
 463 962 l 1,25,-1
 476 1084 l 1,26,-1
 544 1084 l 2,27,28
 630 1084 630 1084 682.5 1114 c 128,-1,29
 735 1144 735 1144 735 1203 c 0,30,31
 735 1259 735 1259 700.5 1284.5 c 128,-1,32
 666 1310 666 1310 609 1310 c 128,-1,33
 552 1310 552 1310 486 1287.5 c 128,-1,34
 420 1265 420 1265 381 1234 c 1,35,-1
 338 1334 l 1,36,37
 479 1433 479 1433 635 1433 c 0,38,39
 742 1433 742 1433 817.5 1375.5 c 128,-1,40
 893 1318 893 1318 893 1220 c 0,4,5
1468 290 m 1,41,-1
 1684 290 l 1,42,-1
 1721 614 l 1,43,-1
 1468 290 l 1,41,-1
1658 0 m 1,44,-1
 1675 181 l 1,45,-1
 1310 181 l 1,46,-1
 1319 293 l 1,47,-1
 1727 805 l 1,48,-1
 1888 805 l 1,49,-1
 1846 290 l 1,50,-1
 1957 290 l 1,51,-1
 1950 181 l 1,52,-1
 1832 181 l 1,53,-1
 1816 0 l 1,54,-1
 1658 0 l 1,44,-1
EndSplineSet
EndChar

StartChar: AE
Encoding: 198 198 135
Width: 2074
GlyphClass: 2
Flags: W
LayerCount: 2
UndoRedoHistory
Layer: 1
Undoes
EndUndoes
Redoes
EndRedoes
EndUndoRedoHistory
Fore
SplineSet
623 552 m 1,0,-1
 1087 552 l 1,1,-1
 1085 1253 l 1,2,-1
 1062 1253 l 1,3,-1
 623 552 l 1,0,-1
37 0 m 1,4,-1
 967 1456 l 1,5,-1
 1978 1456 l 1,6,-1
 1973 1276 l 1,7,-1
 1284 1276 l 1,8,-1
 1296 836 l 1,9,-1
 1922 836 l 1,10,-1
 1917 655 l 1,11,-1
 1305 655 l 1,12,-1
 1318 180 l 1,13,-1
 1943 180 l 1,14,-1
 1938 0 l 1,15,-1
 1101 0 l 1,16,-1
 1094 379 l 1,17,-1
 526 379 l 1,18,-1
 288 0 l 1,19,-1
 37 0 l 1,4,-1
EndSplineSet
EndChar

StartChar: Eth
Encoding: 208 208 145
Width: 1505
GlyphClass: 2
Flags: W
LayerCount: 2
UndoRedoHistory
Layer: 1
Undoes
EndUndoes
Redoes
EndRedoes
EndUndoRedoHistory
Fore
SplineSet
647 172 m 2,0,1
 953 172 953 172 1114 340 c 128,-1,2
 1275 508 1275 508 1275 808 c 0,3,4
 1275 1052 1275 1052 1127 1168 c 128,-1,5
 979 1284 979 1284 666 1284 c 2,6,-1
 514 1284 l 1,7,-1
 472.755395683 816 l 1,8,-1
 727 816 l 1,9,-1
 714 668 l 1,10,-1
 459.712230216 668 l 1,11,-1
 416 172 l 1,12,-1
 647 172 l 2,0,1
247.725274725 668 m 1,13,-1
 92 668 l 1,14,-1
 105 816 l 1,15,-1
 260.736263736 816 l 1,16,-1
 317 1456 l 1,17,-1
 659 1456 l 2,18,19
 857 1456 857 1456 1010 1419 c 128,-1,20
 1163 1382 1163 1382 1273 1305 c 128,-1,21
 1383 1228 1383 1228 1440.5 1105.5 c 128,-1,22
 1498 983 1498 983 1498 817 c 0,23,24
 1498 425 1498 425 1265.5 212.5 c 128,-1,25
 1033 0 1033 0 617 0 c 2,26,-1
 189 0 l 1,27,-1
 247.725274725 668 l 1,13,-1
EndSplineSet
EndChar

StartChar: multiply
Encoding: 215 215 152
Width: 1243
GlyphClass: 2
Flags: W
LayerCount: 2
UndoRedoHistory
Layer: 1
Undoes
EndUndoes
Redoes
EndRedoes
EndUndoRedoHistory
Fore
SplineSet
365 136 m 1,0,-1
 246 267 l 1,1,-1
 554 551 l 1,2,-1
 296 834 l 1,3,-1
 438 965 l 1,4,-1
 697 681 l 1,5,-1
 1005 965 l 1,6,-1
 1125 835 l 1,7,-1
 815 551 l 1,8,-1
 1075 267 l 1,9,-1
 933 136 l 1,10,-1
 674 420 l 1,11,-1
 365 136 l 1,0,-1
EndSplineSet
EndChar

StartChar: Oslash
Encoding: 216 216 153
Width: 1663
GlyphClass: 2
Flags: W
LayerCount: 2
UndoRedoHistory
Layer: 1
Undoes
EndUndoes
Redoes
EndRedoes
EndUndoRedoHistory
Fore
SplineSet
1601 821 m 0,0,1
 1601 572 1601 572 1506 381 c 128,-1,2
 1411 190 1411 190 1233.5 83.5 c 128,-1,3
 1056 -23 1056 -23 820 -23 c 0,4,5
 657.842127567 -23 657.842127567 -23 533.609597047 24.7125269216 c 1,6,-1
 438 -131 l 1,7,-1
 331 -72 l 1,8,-1
 424.628034745 80.4852978287 l 1,9,10
 377.306332941 111.765239468 377.306332941 111.765239468 337.5 152.5 c 0,11,12
 166 328 166 328 166 633 c 0,13,14
 166 818 166 818 222 975.5 c 128,-1,15
 278 1133 278 1133 380 1245 c 128,-1,16
 482 1357 482 1357 630.5 1420 c 128,-1,17
 779 1483 779 1483 957 1483 c 0,18,19
 1124.96078988 1483 1124.96078988 1483 1252.20732986 1428.30463032 c 1,20,-1
 1330 1555 l 1,21,-1
 1437 1496 l 1,22,-1
 1358.43172759 1368.04146225 l 1,23,24
 1397.02032639 1339.95238653 1397.02032639 1339.95238653 1430.5 1305 c 0,25,26
 1601 1127 1601 1127 1601 821 c 0,0,1
936 1303 m 0,27,28
 768 1303 768 1303 643 1211.5 c 128,-1,29
 518 1120 518 1120 456 972.5 c 128,-1,30
 394 825 394 825 394 646 c 0,31,32
 394 503 394 503 440 395 c 0,33,34
 473.370989487 316.650720336 473.370989487 316.650720336 535.424611389 260.931774505 c 1,35,-1
 1148.29110995 1259.06369959 l 1,36,37
 1059.34159764 1303 1059.34159764 1303 936 1303 c 0,27,28
637.76315498 194.339993145 m 1,38,39
 722.099810606 157 722.099810606 157 832 157 c 0,40,41
 960 157 960 157 1063 207 c 128,-1,42
 1166 257 1166 257 1233 345.5 c 128,-1,43
 1300 434 1300 434 1336 554 c 128,-1,44
 1372 674 1372 674 1372 815 c 0,45,46
 1372 1036 1372 1036 1261.5 1169.5 c 0,47,48
 1254.35766325 1178.12897697 1254.35766325 1178.12897697 1246.77873792 1186.2002068 c 1,49,-1
 637.76315498 194.339993145 l 1,38,39
EndSplineSet
EndChar

StartChar: Thorn
Encoding: 222 222 159
Width: 1285
GlyphClass: 2
Flags: W
LayerCount: 2
UndoRedoHistory
Layer: 1
Undoes
EndUndoes
Redoes
EndRedoes
EndUndoRedoHistory
Fore
SplineSet
666 518 m 2,0,1
 832 518 832 518 927 590 c 128,-1,2
 1022 662 1022 662 1022 811 c 0,3,4
 1022 940 1022 940 933 989 c 128,-1,5
 844 1038 844 1038 666 1038 c 2,6,-1
 465 1038 l 1,7,-1
 420 518 l 1,8,-1
 666 518 l 2,0,1
1248 832 m 0,9,10
 1248 704 1248 704 1199 607 c 128,-1,11
 1150 510 1150 510 1063.5 452.5 c 128,-1,12
 977 395 977 395 867.5 366.5 c 128,-1,13
 758 338 758 338 628 338 c 2,14,-1
 404 338 l 1,15,-1
 374 0 l 1,16,-1
 165 0 l 1,17,-1
 292 1449 l 1,18,-1
 502 1449 l 1,19,-1
 482 1218 l 1,20,-1
 668 1218 l 2,21,22
 772 1218 772 1218 853.5 1208.5 c 128,-1,23
 935 1199 935 1199 1011 1173 c 128,-1,24
 1087 1147 1087 1147 1137.5 1105 c 128,-1,25
 1188 1063 1188 1063 1218 994 c 128,-1,26
 1248 925 1248 925 1248 832 c 0,9,10
EndSplineSet
EndChar

StartChar: germandbls
Encoding: 223 223 160
Width: 1284
GlyphClass: 2
Flags: W
LayerCount: 2
UndoRedoHistory
Layer: 1
Undoes
EndUndoes
Redoes
EndRedoes
EndUndoRedoHistory
Fore
SplineSet
1230 383 m 0,0,1
 1230 292 1230 292 1193 214 c 128,-1,2
 1156 136 1156 136 1096 85 c 128,-1,3
 1036 34 1036 34 960.5 5.5 c 128,-1,4
 885 -23 885 -23 806 -23 c 0,5,6
 714 -23 714 -23 629 20 c 128,-1,7
 544 63 544 63 483 150 c 1,8,-1
 580 289 l 1,9,10
 636 216 636 216 698 178.5 c 128,-1,11
 760 141 760 141 815 141 c 0,12,13
 892 141 892 141 946.5 197.5 c 128,-1,14
 1001 254 1001 254 1001 350 c 0,15,16
 1001 391 1001 391 988.5 428.5 c 128,-1,17
 976 466 976 466 947.5 501 c 128,-1,18
 919 536 919 536 891 564 c 128,-1,19
 863 592 863 592 814 626 c 128,-1,20
 765 660 765 660 730 682 c 128,-1,21
 695 704 695 704 636 740 c 1,22,-1
 664 889 l 1,23,24
 769 933 769 933 842.5 1011.5 c 128,-1,25
 916 1090 916 1090 916 1185 c 0,26,27
 916 1254 916 1254 868.5 1294 c 128,-1,28
 821 1334 821 1334 742 1334 c 0,29,30
 629 1334 629 1334 559 1242 c 128,-1,31
 489 1150 489 1150 478 1020 c 0,32,33
 467 897 467 897 436 518.5 c 128,-1,34
 405 140 405 140 393 0 c 1,35,-1
 189 0 l 1,36,-1
 280 1052 l 1,37,38
 299 1254 299 1254 425.5 1375 c 128,-1,39
 552 1496 552 1496 756 1496 c 0,40,41
 934 1496 934 1496 1039.5 1412 c 128,-1,42
 1145 1328 1145 1328 1145 1201 c 0,43,44
 1145 1124 1145 1124 1098.5 1051 c 128,-1,45
 1052 978 1052 978 990.5 929.5 c 128,-1,46
 929 881 929 881 859 849 c 0,47,48
 846 843 846 843 791 818 c 1,49,50
 794 817 794 817 819 807 c 128,-1,51
 844 797 844 797 860 792 c 0,52,53
 935 766 935 766 997.5 730.5 c 128,-1,54
 1060 695 1060 695 1114.5 645.5 c 128,-1,55
 1169 596 1169 596 1199.5 528.5 c 128,-1,56
 1230 461 1230 461 1230 383 c 0,0,1
EndSplineSet
EndChar

StartChar: ae
Encoding: 230 230 167
Width: 1723
GlyphClass: 2
Flags: W
LayerCount: 2
UndoRedoHistory
Layer: 1
Undoes
EndUndoes
Redoes
EndRedoes
EndUndoRedoHistory
Fore
SplineSet
1018 618 m 1,0,-1
 1258 618 l 2,1,2
 1378 618 1378 618 1440.5 661.5 c 128,-1,3
 1503 705 1503 705 1503 764 c 0,4,5
 1503 814 1503 814 1459.5 851 c 128,-1,6
 1416 888 1416 888 1344 888 c 0,7,8
 1227 888 1227 888 1136.5 809.5 c 128,-1,9
 1046 731 1046 731 1018 618 c 1,0,-1
720 462 m 2,10,11
 650 462 650 462 598 458.5 c 128,-1,12
 546 455 546 455 490 444 c 128,-1,13
 434 433 434 433 398 413.5 c 128,-1,14
 362 394 362 394 339 360 c 128,-1,15
 316 326 316 326 316 279 c 0,16,17
 316 208 316 208 368 174.5 c 128,-1,18
 420 141 420 141 503 141 c 0,19,20
 579 141 579 141 636.5 167 c 128,-1,21
 694 193 694 193 728 239.5 c 128,-1,22
 762 286 762 286 780.5 340.5 c 128,-1,23
 799 395 799 395 806 462 c 1,24,-1
 720 462 l 2,10,11
468 -25 m 0,25,26
 315 -25 315 -25 223.5 58.5 c 128,-1,27
 132 142 132 142 132 259 c 0,28,29
 132 325 132 325 151.5 378.5 c 128,-1,30
 171 432 171 432 203 469 c 128,-1,31
 235 506 235 506 284.5 533.5 c 128,-1,32
 334 561 334 561 385.5 577 c 128,-1,33
 437 593 437 593 503.5 602.5 c 128,-1,34
 570 612 570 612 629 615 c 128,-1,35
 688 618 688 618 759 618 c 2,36,-1
 820 618 l 1,37,38
 821 629 821 629 821 652 c 0,39,40
 821 751 821 751 773.5 819 c 128,-1,41
 726 887 726 887 631 887 c 0,42,43
 436 887 436 887 305 748 c 1,44,-1
 240 891 l 1,45,46
 380 1053 380 1053 662 1053 c 0,47,48
 697 1053 697 1053 731.5 1046 c 128,-1,49
 766 1039 766 1039 802 1021.5 c 128,-1,50
 838 1004 838 1004 866.5 977.5 c 128,-1,51
 895 951 895 951 915.5 908.5 c 128,-1,52
 936 866 936 866 941 812 c 1,53,54
 972 880 972 880 1019 928.5 c 128,-1,55
 1066 977 1066 977 1120.5 1003 c 128,-1,56
 1175 1029 1175 1029 1229.5 1040 c 128,-1,57
 1284 1051 1284 1051 1343 1051 c 0,58,59
 1490 1051 1490 1051 1584.5 964.5 c 128,-1,60
 1679 878 1679 878 1679 765 c 0,61,62
 1679 710 1679 710 1653 661 c 128,-1,63
 1627 612 1627 612 1575.5 571.5 c 128,-1,64
 1524 531 1524 531 1435.5 507.5 c 128,-1,65
 1347 484 1347 484 1232 484 c 2,66,-1
 1003 484 l 1,67,68
 1003 477 1003 477 1002 460.5 c 128,-1,69
 1001 444 1001 444 1001 436 c 0,70,71
 1001 300 1001 300 1073.5 220.5 c 128,-1,72
 1146 141 1146 141 1285 141 c 0,73,74
 1459 141 1459 141 1622 268 c 1,75,-1
 1669 111 l 1,76,77
 1487 -22 1487 -22 1260 -22 c 0,78,79
 1133 -22 1133 -22 1032.5 41 c 128,-1,80
 932 104 932 104 880 210 c 1,81,82
 817 100 817 100 710.5 37.5 c 128,-1,83
 604 -25 604 -25 468 -25 c 0,25,26
EndSplineSet
EndChar

StartChar: eth
Encoding: 240 240 177
Width: 1220
GlyphClass: 2
Flags: W
LayerCount: 2
UndoRedoHistory
Layer: 1
Undoes
EndUndoes
Redoes
EndRedoes
EndUndoRedoHistory
Fore
SplineSet
598 753 m 0,0,1
 534 753 534 753 477.5 730.5 c 128,-1,2
 421 708 421 708 379 666.5 c 128,-1,3
 337 625 337 625 312.5 562 c 128,-1,4
 288 499 288 499 288 422 c 0,5,6
 288 292 288 292 360 215 c 128,-1,7
 432 138 432 138 543 138 c 0,8,9
 675 138 675 138 765 238.5 c 128,-1,10
 855 339 855 339 855 496 c 0,11,12
 855 534 855 534 845.5 569.5 c 128,-1,13
 836 605 836 605 818 632.5 c 128,-1,14
 800 660 800 660 776 683 c 128,-1,15
 752 706 752 706 723.5 721.5 c 128,-1,16
 695 737 695 737 662.5 745 c 128,-1,17
 630 753 630 753 598 753 c 0,0,1
74 412 m 0,18,19
 74 521 74 521 115.5 614.5 c 128,-1,20
 157 708 157 708 228.5 772 c 128,-1,21
 300 836 300 836 396.5 872 c 128,-1,22
 493 908 493 908 601 908 c 0,23,24
 675 908 675 908 739 882.5 c 128,-1,25
 803 857 803 857 843 819.5 c 128,-1,26
 883 782 883 782 903 739 c 1,27,28
 904 750 904 750 904.5 761 c 128,-1,29
 905 772 905 772 905 783 c 0,30,31
 905 1000 905 1000 717 1192 c 1,32,-1
 469 1046 l 1,33,-1
 409 1156 l 1,34,-1
 618 1279 l 1,35,36
 482 1379 482 1379 321 1416 c 1,37,-1
 411 1553 l 1,38,39
 609 1511 609 1511 779 1373 c 1,40,-1
 1020 1515 l 1,41,-1
 1079 1404 l 1,42,-1
 874 1284 l 1,43,44
 978 1170 978 1170 1038 1024.5 c 128,-1,45
 1098 879 1098 879 1098 710 c 0,46,47
 1098 539 1098 539 1055.5 401 c 128,-1,48
 1013 263 1013 263 937 170.5 c 128,-1,49
 861 78 861 78 755 28 c 128,-1,50
 649 -22 649 -22 522 -22 c 0,51,52
 463 -22 463 -22 409 -10.5 c 128,-1,53
 355 1 355 1 310 22 c 128,-1,54
 265 43 265 43 227.5 72.5 c 128,-1,55
 190 102 190 102 161.5 139.5 c 128,-1,56
 133 177 133 177 113.5 220 c 128,-1,57
 94 263 94 263 84 311.5 c 128,-1,58
 74 360 74 360 74 412 c 0,18,19
EndSplineSet
EndChar

StartChar: divide
Encoding: 247 247 184
Width: 1350
GlyphClass: 2
Flags: W
LayerCount: 2
UndoRedoHistory
Layer: 1
Undoes
EndUndoes
Redoes
EndRedoes
EndUndoRedoHistory
Fore
SplineSet
620 858 m 1,0,-1
 641 1096 l 1,1,-1
 896 1096 l 1,2,-1
 875 858 l 1,3,-1
 620 858 l 1,0,-1
210 468 m 1,4,-1
 225 639 l 1,5,-1
 1226 639 l 1,6,-1
 1212 468 l 1,7,-1
 210 468 l 1,4,-1
547 2 m 1,8,-1
 567 242 l 1,9,-1
 824 242 l 1,10,-1
 803 2 l 1,11,-1
 547 2 l 1,8,-1
EndSplineSet
EndChar

StartChar: oslash
Encoding: 248 248 185
Width: 1256
GlyphClass: 2
Flags: W
LayerCount: 2
UndoRedoHistory
Layer: 1
Undoes
EndUndoes
Redoes
EndRedoes
EndUndoRedoHistory
Fore
SplineSet
1206 575 m 0,0,1
 1206 313 1206 313 1045.5 145 c 128,-1,2
 885 -23 885 -23 627 -23 c 0,3,4
 542.558094913 -23 542.558094913 -23 471.164302907 -4.00137380886 c 1,5,-1
 355 -222 l 1,6,-1
 263 -176 l 1,7,-1
 374.39118029 33.5912997565 l 1,8,9
 317.733768518 63.5929975099 317.733768518 63.5929975099 272 109.5 c 0,10,11
 140 242 140 242 140 453 c 0,12,13
 140 716 140 716 303 883.5 c 128,-1,14
 466 1051 466 1051 726 1051 c 0,15,16
 823.398205698 1051 823.398205698 1051 902.294514356 1026.88309938 c 1,17,-1
 1023 1254 l 1,18,-1
 1117 1208 l 1,19,-1
 998.036539347 984.748361242 l 1,20,21
 1042.96077544 957.839038877 1042.96077544 957.839038877 1079.5 920 c 0,22,23
 1206 789 1206 789 1206 575 c 0,0,1
707 887 m 0,24,25
 546 887 546 887 450 768.5 c 128,-1,26
 354 650 354 650 354 462 c 0,27,28
 354 317 354 317 428.5 229 c 0,29,30
 443.533205665 211.242656395 443.533205665 211.242656395 461.274184607 197.068531562 c 1,31,-1
 818.470288805 869.161201304 l 1,32,33
 769.310015922 887 769.310015922 887 707 887 c 0,24,25
554.086265299 151.613332516 m 1,34,35
 595.032981443 141 595.032981443 141 644 141 c 0,36,37
 806 141 806 141 899 259.5 c 128,-1,38
 992 378 992 378 992 566 c 0,39,40
 992 712 992 712 918.5 799.5 c 0,41,42
 912.667864346 806.443018636 912.667864346 806.443018636 906.429621883 812.835117183 c 1,43,-1
 554.086265299 151.613332516 l 1,34,35
EndSplineSet
EndChar

StartChar: thorn
Encoding: 254 254 191
Width: 1233
GlyphClass: 2
Flags: W
LayerCount: 2
UndoRedoHistory
Layer: 1
Undoes
EndUndoes
Redoes
EndRedoes
EndUndoRedoHistory
Fore
SplineSet
646 141 m 0,0,1
 751 141 751 141 825.5 204 c 128,-1,2
 900 267 900 267 934 364.5 c 128,-1,3
 968 462 968 462 968 582 c 0,4,5
 968 717 968 717 908.5 801 c 128,-1,6
 849 885 849 885 718 885 c 0,7,8
 635 885 635 885 570.5 849 c 128,-1,9
 506 813 506 813 467 751 c 128,-1,10
 428 689 428 689 408.5 611 c 128,-1,11
 389 533 389 533 389 444 c 0,12,13
 389 307 389 307 455 224 c 128,-1,14
 521 141 521 141 646 141 c 0,0,1
1184 588 m 0,15,16
 1184 468 1184 468 1146 357 c 128,-1,17
 1108 246 1108 246 1042.5 162 c 128,-1,18
 977 78 977 78 882 27.5 c 128,-1,19
 787 -23 787 -23 680 -23 c 0,20,21
 569 -23 569 -23 486 17 c 128,-1,22
 403 57 403 57 360 132 c 1,23,-1
 311 -412 l 1,24,-1
 115 -412 l 1,25,-1
 279 1459 l 1,26,-1
 480 1459 l 1,27,-1
 427 889 l 1,28,29
 481 964 481 964 566.5 1007.5 c 128,-1,30
 652 1051 652 1051 758 1051 c 0,31,32
 894 1051 894 1051 992 988 c 128,-1,33
 1090 925 1090 925 1137 822 c 128,-1,34
 1184 719 1184 719 1184 588 c 0,15,16
EndSplineSet
EndChar

StartChar: dcroat
Encoding: 273 273 210
Width: 1255
GlyphClass: 2
Flags: W
LayerCount: 2
UndoRedoHistory
Layer: 1
Undoes
EndUndoes
Redoes
EndRedoes
EndUndoRedoHistory
Fore
SplineSet
682 886 m 0,0,1
 532 886 532 886 443.5 766 c 128,-1,2
 355 646 355 646 355 457 c 0,3,4
 355 314 355 314 421.5 227.5 c 128,-1,5
 488 141 488 141 615 141 c 0,6,7
 716 141 716 141 791.5 199.5 c 128,-1,8
 867 258 867 258 905 357.5 c 128,-1,9
 943 457 943 457 943 583 c 0,10,11
 943 721 943 721 875.5 803.5 c 128,-1,12
 808 886 808 886 682 886 c 0,0,1
139 444 m 0,13,14
 139 709 139 709 287 880 c 128,-1,15
 435 1051 435 1051 674 1051 c 0,16,17
 782 1051 782 1051 860.5 1005.5 c 128,-1,18
 939 960 939 960 969 893 c 1,19,-1
 997.130360206 1221 l 1,20,-1
 707 1221 l 1,21,-1
 721 1358 l 1,22,-1
 1008.87993139 1358 l 1,23,-1
 1019 1476 l 1,24,-1
 1222 1476 l 1,25,-1
 1211.76878613 1358 l 1,26,-1
 1334 1358 l 1,27,-1
 1321 1221 l 1,28,-1
 1199.89017341 1221 l 1,29,-1
 1117 265 l 2,30,31
 1110 178 1110 178 1101 0 c 1,32,-1
 893 0 l 1,33,-1
 906 164 l 1,34,35
 869 87 869 87 781.5 32 c 128,-1,36
 694 -23 694 -23 570 -23 c 0,37,38
 380 -23 380 -23 259.5 104 c 128,-1,39
 139 231 139 231 139 444 c 0,13,14
EndSplineSet
EndChar

StartChar: Hbar
Encoding: 294 294 231
Width: 1538
GlyphClass: 2
Flags: W
LayerCount: 2
UndoRedoHistory
Layer: 1
Undoes
EndUndoes
Redoes
EndRedoes
EndUndoRedoHistory
Fore
SplineSet
174 1114 m 1,0,-1
 187 1268 l 1,1,-1
 300.472527473 1268 l 1,2,-1
 317 1456 l 1,3,-1
 527 1456 l 1,4,-1
 511.083067093 1268 l 1,5,-1
 1249.48242812 1268 l 1,6,-1
 1266 1456 l 1,7,-1
 1476 1456 l 1,8,-1
 1459.47252747 1268 l 1,9,-1
 1543 1268 l 1,10,-1
 1529 1114 l 1,11,-1
 1445.93406593 1114 l 1,12,-1
 1348 0 l 1,13,-1
 1140 0 l 1,14,-1
 1196 657 l 1,15,-1
 460 657 l 1,16,-1
 402 0 l 1,17,-1
 189 0 l 1,18,-1
 286.934065934 1114 l 1,19,-1
 174 1114 l 1,0,-1
498.044728435 1114 m 1,20,-1
 474 830 l 1,21,-1
 1211 830 l 1,22,-1
 1235.95207668 1114 l 1,23,-1
 498.044728435 1114 l 1,20,-1
EndSplineSet
EndChar

StartChar: hbar
Encoding: 295 295 232
Width: 1199
GlyphClass: 2
Flags: W
LayerCount: 2
UndoRedoHistory
Layer: 1
Undoes
EndUndoes
Redoes
EndRedoes
EndUndoRedoHistory
Fore
SplineSet
101 1189 m 1,0,-1
 114 1334 l 1,1,-1
 270.589430894 1334 l 1,2,-1
 283 1476 l 1,3,-1
 487 1476 l 1,4,-1
 474.713810316 1334 l 1,5,-1
 710 1334 l 1,6,-1
 697 1189 l 1,7,-1
 462.168053245 1189 l 1,8,-1
 435 875 l 1,9,10
 491 961 491 961 584.5 1006 c 128,-1,11
 678 1051 678 1051 778 1051 c 0,12,13
 870 1051 870 1051 937.5 1020 c 128,-1,14
 1005 989 1005 989 1043 934.5 c 128,-1,15
 1081 880 1081 880 1098.5 814 c 128,-1,16
 1116 748 1116 748 1116 670 c 0,17,18
 1116 638 1116 638 1113 605 c 2,19,-1
 1060 0 l 1,20,-1
 855 0 l 1,21,-1
 908 604 l 2,22,23
 911 637 911 637 911 666 c 0,24,25
 911 778 911 778 867 832 c 128,-1,26
 823 886 823 886 729 886 c 0,27,28
 606 886 606 886 513.5 805.5 c 128,-1,29
 421 725 421 725 411 604 c 2,30,-1
 358 0 l 1,31,-1
 154 0 l 1,32,-1
 257.916666667 1189 l 1,33,-1
 101 1189 l 1,0,-1
EndSplineSet
EndChar

StartChar: dotlessi
Encoding: 305 305 242
Width: 526
GlyphClass: 2
Flags: W
LayerCount: 2
UndoRedoHistory
Layer: 1
Undoes
EndUndoes
Redoes
EndRedoes
EndUndoRedoHistory
Fore
SplineSet
175 0 m 1,0,-1
 265 1026 l 1,1,-1
 469 1026 l 1,2,-1
 380 0 l 1,3,-1
 175 0 l 1,0,-1
EndSplineSet
EndChar

StartChar: kgreenlandic
Encoding: 312 312 249
Width: 1093
GlyphClass: 2
Flags: W
LayerCount: 2
UndoRedoHistory
Layer: 1
Undoes
EndUndoes
Redoes
EndRedoes
EndUndoRedoHistory
Fore
SplineSet
151 0 m 1,0,-1
 241 1026 l 1,1,-1
 444 1026 l 1,2,-1
 406 591 l 1,3,-1
 858 1026 l 1,4,-1
 1136 1026 l 1,5,-1
 570 510 l 1,6,7
 609 472 609 472 827 255 c 128,-1,8
 1045 38 1045 38 1083 0 c 1,9,-1
 812 0 l 1,10,-1
 392 431 l 1,11,-1
 354 0 l 1,12,-1
 151 0 l 1,0,-1
EndSplineSet
EndChar

StartChar: Lslash
Encoding: 321 321 258
Width: 1141
GlyphClass: 2
Flags: W
LayerCount: 2
UndoRedoHistory
Layer: 1
Undoes
EndUndoes
Redoes
EndRedoes
EndUndoRedoHistory
Fore
SplineSet
254.279340722 765.30250071 m 1,0,-1
 315 1456 l 1,1,-1
 525 1456 l 1,2,-1
 476.87608133 909.176003787 l 1,3,-1
 752 1087 l 1,4,-1
 737 909 l 1,5,-1
 461.157002022 730.562748645 l 1,6,-1
 412 172 l 1,7,-1
 1088 172 l 1,8,-1
 1073 0 l 1,9,-1
 187 0 l 1,10,-1
 238.566921454 586.573731534 l 1,11,-1
 80 484 l 1,12,-1
 96 663 l 1,13,-1
 254.279340722 765.30250071 l 1,0,-1
EndSplineSet
EndChar

StartChar: lslash
Encoding: 322 322 259
Width: 519
GlyphClass: 2
Flags: W
LayerCount: 2
UndoRedoHistory
Layer: 1
Undoes
EndUndoes
Redoes
EndRedoes
EndUndoRedoHistory
Fore
SplineSet
61 607 m 1,0,-1
 77 782 l 1,1,-1
 244.836021885 886.015377366 l 1,2,-1
 296 1476 l 1,3,-1
 500 1476 l 1,4,-1
 460.095766204 1019.42132494 l 1,5,-1
 624 1121 l 1,6,-1
 607 944 l 1,7,-1
 444.751799198 843.857795476 l 1,8,-1
 371 0 l 1,9,-1
 168 0 l 1,10,-1
 229.667586135 711.104352614 l 1,11,-1
 61 607 l 1,0,-1
EndSplineSet
EndChar

StartChar: Eng
Encoding: 330 330 267
Width: 1585
GlyphClass: 2
Flags: W
LayerCount: 2
UndoRedoHistory
Layer: 1
Undoes
EndUndoes
Redoes
EndRedoes
EndUndoRedoHistory
Fore
SplineSet
521 -387 m 1,0,-1
 562 -222 l 1,1,2
 740 -272 740 -272 866 -272 c 0,3,4
 1010 -272 1010 -272 1089.5 -213 c 128,-1,5
 1169 -154 1169 -154 1186 -13 c 0,6,7
 1186 -11 1186 -11 1189 27.5 c 128,-1,8
 1192 66 1192 66 1193 68 c 1,9,-1
 576 1024 l 1,10,-1
 490 1175 l 1,11,-1
 388 0 l 1,12,-1
 187 0 l 1,13,-1
 314 1456 l 1,14,-1
 543 1456 l 1,15,-1
 1133 521 l 1,16,-1
 1221 370 l 1,17,-1
 1316 1456 l 1,18,-1
 1519 1456 l 1,19,-1
 1398 73 l 2,20,21
 1376 -183 1376 -183 1244 -308 c 128,-1,22
 1112 -433 1112 -433 858 -433 c 0,23,24
 709 -433 709 -433 521 -387 c 1,0,-1
EndSplineSet
EndChar

StartChar: eng
Encoding: 331 331 268
Width: 1221
GlyphClass: 2
Flags: W
LayerCount: 2
UndoRedoHistory
Layer: 1
Undoes
EndUndoes
Redoes
EndRedoes
EndUndoRedoHistory
Fore
SplineSet
203 -352 m 1,0,-1
 243 -187 l 1,1,2
 420 -237 420 -237 548 -237 c 0,3,4
 699 -237 699 -237 779.5 -159.5 c 128,-1,5
 860 -82 860 -82 874 85 c 2,6,-1
 916 565 l 2,7,8
 931 734 931 734 894.5 810 c 128,-1,9
 858 886 858 886 734 886 c 0,10,11
 662 886 662 886 591.5 848 c 128,-1,12
 521 810 521 810 475 751.5 c 128,-1,13
 429 693 429 693 424 634 c 2,14,-1
 369 0 l 1,15,-1
 165 0 l 1,16,-1
 227 711 l 2,17,18
 234 791 234 791 238 869.5 c 128,-1,19
 242 948 242 948 242 987 c 2,20,-1
 242 1026 l 1,21,-1
 454 1026 l 1,22,-1
 443 881 l 1,23,24
 500 963 500 963 593.5 1007 c 128,-1,25
 687 1051 687 1051 787 1051 c 0,26,27
 983 1051 983 1051 1061.5 932.5 c 128,-1,28
 1140 814 1140 814 1119 567 c 2,29,-1
 1081 124 l 2,30,31
 1036 -398 1036 -398 539 -398 c 0,32,33
 391 -398 391 -398 203 -352 c 1,0,-1
EndSplineSet
EndChar

StartChar: OE
Encoding: 338 338 275
Width: 2102
GlyphClass: 2
Flags: W
LayerCount: 2
UndoRedoHistory
Layer: 1
Undoes
EndUndoes
Redoes
EndRedoes
EndUndoRedoHistory
Fore
SplineSet
745 148 m 0,0,1
 917 148 917 148 1076 250 c 1,2,-1
 1160 1209 l 1,3,4
 1021 1302 1021 1302 845 1302 c 0,5,6
 711 1302 711 1302 597.5 1221.5 c 128,-1,7
 484 1141 484 1141 417 1010 c 128,-1,8
 350 879 350 879 336 725 c 0,9,10
 322 564 322 564 366 433.5 c 128,-1,11
 410 303 410 303 509 225.5 c 128,-1,12
 608 148 608 148 745 148 c 0,0,1
703 -23 m 0,13,14
 511 -23 511 -23 369 72.5 c 128,-1,15
 227 168 227 168 159 339.5 c 128,-1,16
 91 511 91 511 110 730 c 0,17,18
 128 938 128 938 227.5 1109.5 c 128,-1,19
 327 1281 327 1281 489 1382 c 128,-1,20
 651 1483 651 1483 842 1483 c 0,21,22
 1020 1483 1020 1483 1176 1393 c 1,23,-1
 1182 1456 l 1,24,-1
 2000 1456 l 1,25,-1
 1984 1276 l 1,26,-1
 1376 1276 l 1,27,-1
 1337 836 l 1,28,-1
 1908 836 l 1,29,-1
 1892 655 l 1,30,-1
 1323 655 l 1,31,-1
 1281 180 l 1,32,-1
 1918 180 l 1,33,-1
 1902 0 l 1,34,-1
 1054 0 l 1,35,-1
 1061 77 l 1,36,37
 886 -23 886 -23 703 -23 c 0,13,14
EndSplineSet
EndChar

StartChar: oe
Encoding: 339 339 276
Width: 1985
GlyphClass: 2
Flags: W
LayerCount: 2
UndoRedoHistory
Layer: 1
Undoes
EndUndoes
Redoes
EndRedoes
EndUndoRedoHistory
Fore
SplineSet
1156 624 m 1,0,1
 1715 624 l 1,2,3
 1716 626 1716 626 1716 631.5 c 128,-1,4
 1716 637 1716 637 1716 639 c 0,5,6
 1716 752 1716 752 1653.5 821.5 c 128,-1,7
 1591 891 1591 891 1475 891 c 0,8,9
 1360 891 1360 891 1270 814.5 c 128,-1,10
 1180 738 1180 738 1156 624 c 1,0,1
631 141 m 0,11,12
 727 141 727 141 799 193.5 c 128,-1,13
 871 246 871 246 907.5 327.5 c 128,-1,14
 944 409 944 409 953 511 c 0,15,16
 962 621 962 621 939 703 c 128,-1,17
 916 785 916 785 852 835.5 c 128,-1,18
 788 886 788 886 687 886 c 0,19,20
 540 886 540 886 448 779.5 c 128,-1,21
 356 673 356 673 343 514 c 0,22,23
 336 438 336 438 350 371.5 c 128,-1,24
 364 305 364 305 397.5 253 c 128,-1,25
 431 201 431 201 491 171 c 128,-1,26
 551 141 551 141 631 141 c 0,11,12
611 -30 m 0,27,28
 495 -30 495 -30 398.5 13.5 c 128,-1,29
 302 57 302 57 241 131.5 c 128,-1,30
 180 206 180 206 150 305.5 c 128,-1,31
 120 405 120 405 130 516 c 128,-1,32
 140 627 140 627 184 724.5 c 128,-1,33
 228 822 228 822 300.5 895.5 c 128,-1,34
 373 969 373 969 478 1011.5 c 128,-1,35
 583 1054 583 1054 707 1054 c 0,36,37
 784 1054 784 1054 847.5 1032.5 c 128,-1,38
 911 1011 911 1011 953.5 973.5 c 128,-1,39
 996 936 996 936 1024 895.5 c 128,-1,40
 1052 855 1052 855 1069 808 c 1,41,42
 1126 917 1126 917 1237 984 c 128,-1,43
 1348 1051 1348 1051 1485 1051 c 0,44,45
 1702 1051 1702 1051 1809.5 905.5 c 128,-1,46
 1917 760 1917 760 1896 513 c 1,47,-1
 1892 484 l 1,48,-1
 1136 484 l 1,49,-1
 1136 431 l 2,50,51
 1136 298 1136 298 1216.5 219.5 c 128,-1,52
 1297 141 1297 141 1428 141 c 0,53,54
 1490 141 1490 141 1551.5 156 c 128,-1,55
 1613 171 1613 171 1661 194.5 c 128,-1,56
 1709 218 1709 218 1737 235 c 128,-1,57
 1765 252 1765 252 1786 268 c 1,58,-1
 1832 110 l 1,59,60
 1811 94 1811 94 1783.5 78.5 c 128,-1,61
 1756 63 1756 63 1700.5 36.5 c 128,-1,62
 1645 10 1645 10 1567 -6 c 128,-1,63
 1489 -22 1489 -22 1404 -22 c 0,64,65
 1271 -22 1271 -22 1165 43 c 128,-1,66
 1059 108 1059 108 1022 212 c 1,67,68
 975 108 975 108 871 39 c 128,-1,69
 767 -30 767 -30 611 -30 c 0,27,28
EndSplineSet
EndChar

StartChar: Tbar
Encoding: 358 358 295
Width: 1155
GlyphClass: 2
Flags: W
LayerCount: 2
UndoRedoHistory
Layer: 1
Undoes
EndUndoes
Redoes
EndRedoes
EndUndoRedoHistory
Fore
SplineSet
269 621 m 1,0,-1
 282 777 l 1,1,-1
 539.170560748 777 l 1,2,-1
 583 1284 l 1,3,-1
 124 1284 l 1,4,-1
 140 1456 l 1,5,-1
 1274 1456 l 1,6,-1
 1259 1284 l 1,7,-1
 793 1284 l 1,8,-1
 749.170560748 777 l 1,9,-1
 1013 777 l 1,10,-1
 999 621 l 1,11,-1
 735.684579439 621 l 1,12,-1
 682 0 l 1,13,-1
 472 0 l 1,14,-1
 525.684579439 621 l 1,15,-1
 269 621 l 1,0,-1
EndSplineSet
EndChar

StartChar: tbar
Encoding: 359 359 296
Width: 778
GlyphClass: 2
Flags: W
LayerCount: 2
UndoRedoHistory
Layer: 1
Undoes
EndUndoes
Redoes
EndRedoes
EndUndoRedoHistory
Fore
SplineSet
713 0 m 1,0,-1
 653 0 l 2,1,2
 566 0 566 0 506 6 c 128,-1,3
 446 12 446 12 392 29.5 c 128,-1,4
 338 47 338 47 307 78.5 c 128,-1,5
 276 110 276 110 258 162 c 128,-1,6
 240 214 240 214 240 287 c 0,7,8
 240 318 240 318 243 355 c 2,9,-1
 260.712686567 557 l 1,10,-1
 92 557 l 1,11,-1
 106 712 l 1,12,-1
 274.304104478 712 l 1,13,-1
 290 891 l 1,14,-1
 124 891 l 1,15,-1
 136 1026 l 1,16,-1
 308 1026 l 1,17,-1
 331 1283 l 1,18,-1
 534 1342 l 1,19,-1
 506 1026 l 1,20,-1
 787 1026 l 1,21,-1
 775 891 l 1,22,-1
 494 891 l 1,23,-1
 478.54676259 712 l 1,24,-1
 727 712 l 1,25,-1
 714 557 l 1,26,-1
 465.165467626 557 l 1,27,-1
 446 335 l 2,28,29
 444 307 444 307 444 296 c 0,30,31
 444 208 444 208 501.5 182.5 c 128,-1,32
 559 157 559 157 727 157 c 1,33,-1
 713 0 l 1,0,-1
EndSplineSet
EndChar

StartChar: florin
Encoding: 402 402 321
Width: 1092
GlyphClass: 2
Flags: W
LayerCount: 2
UndoRedoHistory
Layer: 1
Undoes
EndUndoes
Redoes
EndRedoes
EndUndoRedoHistory
Fore
SplineSet
195 -224 m 0,0,1
 145 -224 145 -224 88 -208 c 1,2,-1
 108 -42 l 1,3,4
 142 -55 142 -55 193 -55 c 0,5,6
 251 -55 251 -55 294.5 -5.5 c 128,-1,7
 338 44 338 44 361 143 c 2,8,-1
 525 828 l 1,9,-1
 372 828 l 1,10,-1
 392 983 l 1,11,-1
 562 983 l 1,12,-1
 594 1135 l 2,13,14
 606 1190 606 1190 620 1232.5 c 128,-1,15
 634 1275 634 1275 661.5 1323.5 c 128,-1,16
 689 1372 689 1372 725 1404 c 128,-1,17
 761 1436 761 1436 818.5 1457 c 128,-1,18
 876 1478 876 1478 948 1478 c 0,19,20
 978 1478 978 1478 1008 1473.5 c 128,-1,21
 1038 1469 1038 1469 1054.5 1464.5 c 128,-1,22
 1071 1460 1071 1460 1090.5 1453.5 c 128,-1,23
 1110 1447 1110 1447 1113 1446 c 1,24,-1
 1095 1282 l 1,25,26
 1044 1302 1044 1302 970 1302 c 0,27,28
 908 1302 908 1302 872 1265.5 c 128,-1,29
 836 1229 836 1229 818 1152 c 2,30,-1
 778 983 l 1,31,-1
 956 983 l 1,32,-1
 935 828 l 1,33,-1
 738 828 l 1,34,-1
 586 180 l 2,35,36
 539 -24 539 -24 449.5 -124 c 128,-1,37
 360 -224 360 -224 195 -224 c 0,0,1
EndSplineSet
EndChar

StartChar: uni0237
Encoding: 567 567 364
Width: 542
GlyphClass: 2
Flags: W
LayerCount: 2
UndoRedoHistory
Layer: 1
Undoes
EndUndoes
Redoes
EndRedoes
EndUndoRedoHistory
Fore
SplineSet
39 -391 m 0,0,1
 -36 -391 -36 -391 -118 -373 c 1,2,-1
 -88 -222 l 1,3,4
 -25 -235 -25 -235 12 -235 c 0,5,6
 109 -235 109 -235 150 -170 c 128,-1,7
 191 -105 191 -105 204 48 c 2,8,-1
 289 1026 l 1,9,-1
 493 1026 l 1,10,-1
 404 15 l 2,11,12
 396 -78 396 -78 374 -148.5 c 128,-1,13
 352 -219 352 -219 311 -275.5 c 128,-1,14
 270 -332 270 -332 201.5 -361.5 c 128,-1,15
 133 -391 133 -391 39 -391 c 0,0,1
EndSplineSet
EndChar

StartChar: circumflex
Encoding: 710 710 365
Width: 699
GlyphClass: 2
Flags: W
LayerCount: 2
UndoRedoHistory
Layer: 1
Undoes
EndUndoes
Redoes
EndRedoes
EndUndoRedoHistory
Fore
SplineSet
110 1124 m 1,0,-1
 393 1507 l 1,1,-1
 571 1507 l 1,2,-1
 795 1124 l 1,3,-1
 621 1124 l 1,4,-1
 476 1374 l 1,5,-1
 282 1124 l 1,6,-1
 110 1124 l 1,0,-1
EndSplineSet
EndChar

StartChar: caron
Encoding: 711 711 366
Width: 699
GlyphClass: 2
Flags: W
LayerCount: 2
UndoRedoHistory
Layer: 1
Undoes
EndUndoes
Redoes
EndRedoes
EndUndoRedoHistory
Fore
SplineSet
366 1124 m 1,0,-1
 123 1507 l 1,1,-1
 318 1507 l 1,2,-1
 464 1254 l 1,3,-1
 633 1507 l 1,4,-1
 836 1507 l 1,5,-1
 542 1124 l 1,6,-1
 366 1124 l 1,0,-1
EndSplineSet
EndChar

StartChar: uni02C9
Encoding: 713 713 367
Width: 728
GlyphClass: 2
Flags: W
LayerCount: 2
UndoRedoHistory
Layer: 1
Undoes
EndUndoes
Redoes
EndRedoes
EndUndoRedoHistory
Fore
SplineSet
172 1188 m 1,0,-1
 184 1335 l 1,1,-1
 772 1335 l 1,2,-1
 760 1188 l 1,3,-1
 172 1188 l 1,0,-1
EndSplineSet
EndChar

StartChar: breve
Encoding: 728 728 368
Width: 628
GlyphClass: 2
Flags: W
LayerCount: 2
UndoRedoHistory
Layer: 1
Undoes
EndUndoes
Redoes
EndRedoes
EndUndoRedoHistory
Fore
SplineSet
428 1192 m 0,0,1
 292 1192 292 1192 220.5 1257.5 c 128,-1,2
 149 1323 149 1323 150 1456 c 1,3,-1
 282 1456 l 1,4,5
 285 1390 285 1390 329 1360.5 c 128,-1,6
 373 1331 373 1331 437 1331 c 0,7,8
 500 1331 500 1331 550.5 1361 c 128,-1,9
 601 1391 601 1391 618 1456 c 1,10,-1
 747 1456 l 1,11,12
 726 1325 726 1325 643 1258.5 c 128,-1,13
 560 1192 560 1192 428 1192 c 0,0,1
EndSplineSet
EndChar

StartChar: dotaccent
Encoding: 729 729 369
Width: 524
GlyphClass: 2
Flags: W
LayerCount: 2
UndoRedoHistory
Layer: 1
Undoes
EndUndoes
Redoes
EndRedoes
EndUndoRedoHistory
Fore
SplineSet
280 1241 m 1,0,-1
 296 1435 l 1,1,-1
 496 1435 l 1,2,-1
 480 1241 l 1,3,-1
 280 1241 l 1,0,-1
EndSplineSet
EndChar

StartChar: ring
Encoding: 730 730 370
Width: 605
GlyphClass: 2
Flags: W
LayerCount: 2
UndoRedoHistory
Layer: 1
Undoes
EndUndoes
Redoes
EndRedoes
EndUndoRedoHistory
Fore
SplineSet
415 1121 m 0,0,1
 314 1121 314 1121 258.5 1179.5 c 128,-1,2
 203 1238 203 1238 210 1321 c 0,3,4
 218 1405 218 1405 284 1464.5 c 128,-1,5
 350 1524 350 1524 449 1524 c 128,-1,6
 548 1524 548 1524 604 1463.5 c 128,-1,7
 660 1403 660 1403 653 1321 c 128,-1,8
 646 1239 646 1239 580 1180 c 128,-1,9
 514 1121 514 1121 415 1121 c 0,0,1
423 1219 m 0,10,11
 467 1219 467 1219 498 1249 c 128,-1,12
 529 1279 529 1279 533 1321 c 0,13,14
 537 1364 537 1364 511.5 1395.5 c 128,-1,15
 486 1427 486 1427 440 1427 c 0,16,17
 396 1427 396 1427 364 1396 c 128,-1,18
 332 1365 332 1365 328 1323 c 0,19,20
 324 1280 324 1280 349.5 1249.5 c 128,-1,21
 375 1219 375 1219 423 1219 c 0,10,11
EndSplineSet
EndChar

StartChar: ogonek
Encoding: 731 731 371
Width: 508
GlyphClass: 4
Flags: W
AnchorPoint: "Anchor-1" 355 0 mark 0
LayerCount: 2
UndoRedoHistory
Layer: 1
Undoes
EndUndoes
Redoes
EndRedoes
EndUndoRedoHistory
Fore
SplineSet
330 21 m 1,0,-1
 439 21 l 1,1,2
 339 -35 339 -35 284.5 -106 c 128,-1,3
 230 -177 230 -177 230 -239 c 0,4,5
 230 -294 230 -294 274.5 -328 c 128,-1,6
 319 -362 319 -362 403 -362 c 0,7,8
 431 -362 431 -362 458 -358 c 1,9,-1
 416 -471 l 1,10,11
 394 -474 394 -474 370 -474 c 0,12,13
 232 -474 232 -474 162 -417 c 128,-1,14
 92 -360 92 -360 92 -273 c 0,15,16
 92 -185 92 -185 157 -101.5 c 128,-1,17
 222 -18 222 -18 330 21 c 1,0,-1
EndSplineSet
EndChar

StartChar: tilde
Encoding: 732 732 372
Width: 663
GlyphClass: 2
Flags: W
LayerCount: 2
UndoRedoHistory
Layer: 1
Undoes
EndUndoes
Redoes
EndRedoes
EndUndoRedoHistory
Fore
SplineSet
112 1172 m 1,0,1
 130 1283 130 1283 188.5 1352 c 128,-1,2
 247 1421 247 1421 334 1421 c 0,3,4
 379 1421 379 1421 430 1399 c 128,-1,5
 481 1377 481 1377 524.5 1355 c 128,-1,6
 568 1333 568 1333 595 1333 c 0,7,8
 652 1333 652 1333 673 1431 c 1,9,-1
 807 1431 l 1,10,11
 787 1321 787 1321 731 1249 c 128,-1,12
 675 1177 675 1177 587 1177 c 0,13,14
 541 1177 541 1177 448.5 1221.5 c 128,-1,15
 356 1266 356 1266 324 1266 c 0,16,17
 259 1266 259 1266 242 1172 c 1,18,-1
 112 1172 l 1,0,1
EndSplineSet
EndChar

StartChar: hungarumlaut
Encoding: 733 733 373
Width: 969
GlyphClass: 2
Flags: W
LayerCount: 2
UndoRedoHistory
Layer: 1
Undoes
EndUndoes
Redoes
EndRedoes
EndUndoRedoHistory
Fore
SplineSet
571 1147 m 1,0,-1
 831 1485 l 1,1,-1
 1066 1485 l 1,2,-1
 722 1147 l 1,3,-1
 571 1147 l 1,0,-1
235 1147 m 1,4,-1
 472 1485 l 1,5,-1
 699 1485 l 1,6,-1
 381 1147 l 1,7,-1
 235 1147 l 1,4,-1
EndSplineSet
EndChar

StartChar: uni0307
Encoding: 775 775 374
Width: 524
GlyphClass: 2
Flags: W
LayerCount: 2
UndoRedoHistory
Layer: 1
Undoes
EndUndoes
Redoes
EndRedoes
EndUndoRedoHistory
Fore
SplineSet
293 1246 m 1,0,-1
 305 1409 l 1,1,-1
 462 1409 l 1,2,-1
 451 1246 l 1,3,-1
 293 1246 l 1,0,-1
EndSplineSet
EndChar

StartChar: uni030F
Encoding: 783 783 375
Width: 969
GlyphClass: 2
Flags: W
LayerCount: 2
UndoRedoHistory
Layer: 1
Undoes
EndUndoes
Redoes
EndRedoes
EndUndoRedoHistory
Fore
SplineSet
694 1174 m 1,0,-1
 447 1487 l 1,1,-1
 623 1487 l 1,2,-1
 812 1174 l 1,3,-1
 694 1174 l 1,0,-1
365 1174 m 1,4,-1
 117 1487 l 1,5,-1
 293 1487 l 1,6,-1
 485 1174 l 1,7,-1
 365 1174 l 1,4,-1
EndSplineSet
EndChar

StartChar: uni0311
Encoding: 785 785 376
Width: 629
GlyphClass: 2
Flags: W
LayerCount: 2
UndoRedoHistory
Layer: 1
Undoes
EndUndoes
Redoes
EndRedoes
EndUndoRedoHistory
Fore
SplineSet
152 1218 m 1,0,1
 165 1296 165 1296 213.5 1354 c 128,-1,2
 262 1412 262 1412 326 1439.5 c 128,-1,3
 390 1467 390 1467 461 1467 c 0,4,5
 512 1467 512 1467 557.5 1451.5 c 128,-1,6
 603 1436 603 1436 639 1406 c 128,-1,7
 675 1376 675 1376 696 1327.5 c 128,-1,8
 717 1279 717 1279 716 1218 c 1,9,-1
 605 1218 l 1,10,11
 599 1261 599 1261 575.5 1291 c 128,-1,12
 552 1321 552 1321 520 1335 c 128,-1,13
 488 1349 488 1349 450 1349 c 0,14,15
 391 1349 391 1349 341.5 1314 c 128,-1,16
 292 1279 292 1279 278 1218 c 1,17,-1
 152 1218 l 1,0,1
EndSplineSet
EndChar

StartChar: uni03A9
Encoding: 937 937 377
Width: 1603
GlyphClass: 2
Flags: W
LayerCount: 2
UndoRedoHistory
Layer: 1
Undoes
EndUndoes
Redoes
EndRedoes
EndUndoRedoHistory
Fore
SplineSet
105 0 m 1,0,-1
 90 170 l 1,1,-1
 407 169 l 1,2,3
 285 279 285 279 224.5 431.5 c 128,-1,4
 164 584 164 584 180 772 c 0,5,6
 198 973 198 973 302 1126.5 c 128,-1,7
 406 1280 406 1280 571 1361.5 c 128,-1,8
 736 1443 736 1443 936 1443 c 0,9,10
 1139 1443 1139 1443 1286 1353.5 c 128,-1,11
 1433 1264 1433 1264 1501 1110.5 c 128,-1,12
 1569 957 1569 957 1552 764 c 0,13,14
 1536 580 1536 580 1444 429.5 c 128,-1,15
 1352 279 1352 279 1214 169 c 1,16,17
 1237 169 1237 169 1357 169.5 c 128,-1,18
 1477 170 1477 170 1498 170 c 1,19,-1
 1468 0 l 1,20,-1
 928 0 l 1,21,-1
 936 144 l 1,22,23
 1101 249 1101 249 1208.5 407.5 c 128,-1,24
 1316 566 1316 566 1332 750 c 0,25,26
 1341 856 1341 856 1319.5 949 c 128,-1,27
 1298 1042 1298 1042 1248.5 1114 c 128,-1,28
 1199 1186 1199 1186 1114 1228 c 128,-1,29
 1029 1270 1029 1270 918 1270 c 0,30,31
 709 1270 709 1270 564 1126 c 128,-1,32
 419 982 419 982 399 753 c 0,33,34
 383 566 383 566 460 405.5 c 128,-1,35
 537 245 537 245 682 144 c 1,36,-1
 674 0 l 1,37,-1
 105 0 l 1,0,-1
EndSplineSet
EndChar

StartChar: pi
Encoding: 960 960 378
Width: 1288
GlyphClass: 2
Flags: W
LayerCount: 2
UndoRedoHistory
Layer: 1
Undoes
EndUndoes
Redoes
EndRedoes
EndUndoRedoHistory
Fore
SplineSet
1015 -8 m 0,0,1
 899 -8 899 -8 857.5 57.5 c 128,-1,2
 816 123 816 123 830 279 c 2,3,-1
 885 907 l 1,4,-1
 514 907 l 1,5,6
 510 877 510 877 501.5 826 c 128,-1,7
 493 775 493 775 468.5 639 c 128,-1,8
 444 503 444 503 419.5 389.5 c 128,-1,9
 395 276 395 276 360.5 161.5 c 128,-1,10
 326 47 326 47 296 0 c 1,11,-1
 127 0 l 1,12,13
 204 119 204 119 258 372 c 128,-1,14
 312 625 312 625 345 907 c 1,15,16
 175 903 175 903 63 846 c 1,17,-1
 57 977 l 1,18,19
 108 1014 108 1014 189.5 1027 c 128,-1,20
 271 1040 271 1040 415 1040 c 2,21,-1
 1260 1040 l 1,22,-1
 1248 907 l 1,23,-1
 1044 907 l 1,24,-1
 990 288 l 1,25,26
 989 256 989 256 988.5 224.5 c 128,-1,27
 988 193 988 193 1009.5 170 c 128,-1,28
 1031 147 1031 147 1076 147 c 0,29,30
 1109 147 1109 147 1157 160 c 1,31,32
 1151 120 1151 120 1149 100 c 0,33,34
 1144 48 1144 48 1153 6 c 1,35,36
 1071 -8 1071 -8 1015 -8 c 0,0,1
EndSplineSet
EndChar

StartChar: endash
Encoding: 8211 8211 401
Width: 1085
GlyphClass: 2
Flags: W
LayerCount: 2
UndoRedoHistory
Layer: 1
Undoes
EndUndoes
Redoes
EndRedoes
EndUndoRedoHistory
Fore
SplineSet
36 472 m 1,0,-1
 51 641 l 1,1,-1
 1148 641 l 1,2,-1
 1133 472 l 1,3,-1
 36 472 l 1,0,-1
EndSplineSet
EndChar

StartChar: emdash
Encoding: 8212 8212 402
Width: 2171
GlyphClass: 2
Flags: W
LayerCount: 2
UndoRedoHistory
Layer: 1
Undoes
EndUndoes
Redoes
EndRedoes
EndUndoRedoHistory
Fore
SplineSet
50 472 m 1,0,-1
 65 641 l 1,1,-1
 2200 641 l 1,2,-1
 2184 472 l 1,3,-1
 50 472 l 1,0,-1
EndSplineSet
EndChar

StartChar: afii00208
Encoding: 8213 8213 403
Width: 2220
GlyphClass: 2
Flags: W
LayerCount: 2
UndoRedoHistory
Layer: 1
Undoes
EndUndoes
Redoes
EndRedoes
EndUndoRedoHistory
Fore
SplineSet
86 472 m 1,0,-1
 100 633 l 1,1,-1
 2134 633 l 1,2,-1
 2120 472 l 1,3,-1
 86 472 l 1,0,-1
EndSplineSet
EndChar

StartChar: quoteleft
Encoding: 8216 8216 404
Width: 595
GlyphClass: 2
Flags: W
LayerCount: 2
UndoRedoHistory
Layer: 1
Undoes
EndUndoes
Redoes
EndRedoes
EndUndoRedoHistory
Fore
SplineSet
241 996 m 1,0,-1
 405 1456 l 1,1,-1
 614 1456 l 1,2,-1
 430 996 l 1,3,-1
 241 996 l 1,0,-1
EndSplineSet
EndChar

StartChar: quoteright
Encoding: 8217 8217 405
Width: 508
GlyphClass: 2
Flags: W
LayerCount: 2
UndoRedoHistory
Layer: 1
Undoes
EndUndoes
Redoes
EndRedoes
EndUndoRedoHistory
Fore
SplineSet
185 997 m 1,0,-1
 333 1456 l 1,1,-1
 557 1456 l 1,2,-1
 357 997 l 1,3,-1
 185 997 l 1,0,-1
EndSplineSet
EndChar

StartChar: quotesinglbase
Encoding: 8218 8218 406
Width: 553
GlyphClass: 2
Flags: W
LayerCount: 2
UndoRedoHistory
Layer: 1
Undoes
EndUndoes
Redoes
EndRedoes
EndUndoRedoHistory
Fore
SplineSet
86 -230 m 1,0,-1
 238 230 l 1,1,-1
 462 230 l 1,2,-1
 260 -230 l 1,3,-1
 86 -230 l 1,0,-1
EndSplineSet
EndChar

StartChar: quotedblleft
Encoding: 8220 8220 407
Width: 1024
GlyphClass: 2
Flags: W
LayerCount: 2
UndoRedoHistory
Layer: 1
Undoes
EndUndoes
Redoes
EndRedoes
EndUndoRedoHistory
Fore
SplineSet
599 990 m 1,0,-1
 789 1450 l 1,1,-1
 963 1450 l 1,2,-1
 814 990 l 1,3,-1
 599 990 l 1,0,-1
216 990 m 1,4,-1
 416 1450 l 1,5,-1
 591 1450 l 1,6,-1
 441 990 l 1,7,-1
 216 990 l 1,4,-1
EndSplineSet
EndChar

StartChar: quotedblright
Encoding: 8221 8221 408
Width: 1024
GlyphClass: 2
Flags: W
LayerCount: 2
UndoRedoHistory
Layer: 1
Undoes
EndUndoes
Redoes
EndRedoes
EndUndoRedoHistory
Fore
SplineSet
583 990 m 1,0,-1
 731 1450 l 1,1,-1
 956 1450 l 1,2,-1
 754 990 l 1,3,-1
 583 990 l 1,0,-1
236 990 m 1,4,-1
 382 1450 l 1,5,-1
 609 1450 l 1,6,-1
 408 990 l 1,7,-1
 236 990 l 1,4,-1
EndSplineSet
EndChar

StartChar: quotedblbase
Encoding: 8222 8222 409
Width: 1024
GlyphClass: 2
Flags: W
LayerCount: 2
UndoRedoHistory
Layer: 1
Undoes
EndUndoes
Redoes
EndRedoes
EndUndoRedoHistory
Fore
SplineSet
478 -230 m 1,0,-1
 626 230 l 1,1,-1
 851 230 l 1,2,-1
 650 -230 l 1,3,-1
 478 -230 l 1,0,-1
131 -230 m 1,4,-1
 279 230 l 1,5,-1
 504 230 l 1,6,-1
 307 -230 l 1,7,-1
 131 -230 l 1,4,-1
EndSplineSet
EndChar

StartChar: dagger
Encoding: 8224 8224 410
Width: 1022
GlyphClass: 2
Flags: W
LayerCount: 2
UndoRedoHistory
Layer: 1
Undoes
EndUndoes
Redoes
EndRedoes
EndUndoRedoHistory
Fore
SplineSet
380 78 m 1,0,-1
 453 911 l 1,1,-1
 130 911 l 1,2,-1
 144 1074 l 1,3,-1
 467 1074 l 1,4,-1
 499 1446 l 1,5,-1
 674 1446 l 1,6,-1
 641 1074 l 1,7,-1
 975 1074 l 1,8,-1
 961 911 l 1,9,-1
 620 911 l 1,10,-1
 547 78 l 1,11,-1
 380 78 l 1,0,-1
EndSplineSet
EndChar

StartChar: daggerdbl
Encoding: 8225 8225 411
Width: 1071
GlyphClass: 2
Flags: W
LayerCount: 2
UndoRedoHistory
Layer: 1
Undoes
EndUndoes
Redoes
EndRedoes
EndUndoRedoHistory
Fore
SplineSet
404 -6 m 1,0,-1
 454 414 l 1,1,-1
 113 414 l 1,2,-1
 126 557 l 1,3,-1
 466 557 l 1,4,-1
 499 928 l 1,5,-1
 163 928 l 1,6,-1
 176 1078 l 1,7,-1
 512 1078 l 1,8,-1
 531 1446 l 1,9,-1
 717 1446 l 1,10,-1
 676 1078 l 1,11,-1
 1014 1078 l 1,12,-1
 1001 928 l 1,13,-1
 662 928 l 1,14,-1
 630 557 l 1,15,-1
 960 557 l 1,16,-1
 947 414 l 1,17,-1
 618 414 l 1,18,-1
 590 -6 l 1,19,-1
 404 -6 l 1,0,-1
EndSplineSet
EndChar

StartChar: bullet
Encoding: 8226 8226 412
Width: 988
GlyphClass: 2
Flags: W
LayerCount: 2
UndoRedoHistory
Layer: 1
Undoes
EndUndoes
Redoes
EndRedoes
EndUndoRedoHistory
Fore
SplineSet
526 372 m 0,0,1
 382 372 382 372 294 465 c 128,-1,2
 206 558 206 558 217 688 c 0,3,4
 228 819 228 819 336 914.5 c 128,-1,5
 444 1010 444 1010 583 1010 c 0,6,7
 726 1010 726 1010 815 917.5 c 128,-1,8
 904 825 904 825 893 695 c 0,9,10
 882 564 882 564 774 468 c 128,-1,11
 666 372 666 372 526 372 c 0,0,1
EndSplineSet
EndChar

StartChar: ellipsis
Encoding: 8230 8230 413
Width: 1620
GlyphClass: 2
Flags: W
LayerCount: 2
UndoRedoHistory
Layer: 1
Undoes
EndUndoes
Redoes
EndRedoes
EndUndoRedoHistory
Fore
SplineSet
1190 -6 m 1,0,-1
 1211 233 l 1,1,-1
 1466 233 l 1,2,-1
 1446 -6 l 1,3,-1
 1190 -6 l 1,0,-1
659 -6 m 1,4,-1
 679 233 l 1,5,-1
 936 233 l 1,6,-1
 916 -6 l 1,7,-1
 659 -6 l 1,4,-1
128 -6 m 1,8,-1
 148 233 l 1,9,-1
 405 233 l 1,10,-1
 385 -6 l 1,11,-1
 128 -6 l 1,8,-1
EndSplineSet
EndChar

StartChar: perthousand
Encoding: 8240 8240 414
Width: 2478
GlyphClass: 2
Flags: W
LayerCount: 2
UndoRedoHistory
Layer: 1
Undoes
EndUndoes
Redoes
EndRedoes
EndUndoRedoHistory
Fore
SplineSet
2038 -24 m 128,-1,1
 1876 -24 1876 -24 1790.5 77.5 c 128,-1,2
 1705 179 1705 179 1719 343 c 0,3,4
 1733 502 1733 502 1837.5 606 c 128,-1,5
 1942 710 1942 710 2104 710 c 0,6,7
 2267 710 2267 710 2352 608 c 128,-1,8
 2437 506 2437 506 2422 342 c 0,9,10
 2408 182 2408 182 2304 79 c 128,-1,0
 2200 -24 2200 -24 2038 -24 c 128,-1,1
2051 109 m 128,-1,12
 2136 109 2136 109 2187 175.5 c 128,-1,13
 2238 242 2238 242 2247 343 c 128,-1,14
 2256 444 2256 444 2217 510.5 c 128,-1,15
 2178 577 2178 577 2091 577 c 0,16,17
 2005 577 2005 577 1954.5 510 c 128,-1,18
 1904 443 1904 443 1895 343 c 0,19,20
 1886 240 1886 240 1926 174.5 c 128,-1,11
 1966 109 1966 109 2051 109 c 128,-1,12
1231 -24 m 0,21,22
 1068 -24 1068 -24 982.5 77.5 c 128,-1,23
 897 179 897 179 911 343 c 0,24,25
 925 502 925 502 1029.5 606 c 128,-1,26
 1134 710 1134 710 1296 710 c 0,27,28
 1459 710 1459 710 1544 607.5 c 128,-1,29
 1629 505 1629 505 1614 342 c 0,30,31
 1600 182 1600 182 1496.5 79 c 128,-1,32
 1393 -24 1393 -24 1231 -24 c 0,21,22
1243 109 m 128,-1,34
 1328 109 1328 109 1379 175.5 c 128,-1,35
 1430 242 1430 242 1439 343 c 128,-1,36
 1448 444 1448 444 1409.5 510.5 c 128,-1,37
 1371 577 1371 577 1284 577 c 128,-1,38
 1197 577 1197 577 1146.5 510 c 128,-1,39
 1096 443 1096 443 1087 343 c 0,40,41
 1078 240 1078 240 1118 174.5 c 128,-1,33
 1158 109 1158 109 1243 109 c 128,-1,34
273 -9 m 1,42,-1
 1321 1424 l 1,43,-1
 1495 1424 l 1,44,-1
 449 -9 l 1,45,-1
 273 -9 l 1,42,-1
470 694 m 128,-1,47
 308 694 308 694 222 796.5 c 128,-1,48
 136 899 136 899 150 1063 c 0,49,50
 164 1222 164 1222 268 1325.5 c 128,-1,51
 372 1429 372 1429 534 1429 c 0,52,53
 697 1429 697 1429 783 1326.5 c 128,-1,54
 869 1224 869 1224 854 1061 c 0,55,56
 840 901 840 901 736 797.5 c 128,-1,46
 632 694 632 694 470 694 c 128,-1,47
484 828 m 0,57,58
 568 828 568 828 618.5 894 c 128,-1,59
 669 960 669 960 678 1061 c 128,-1,60
 687 1162 687 1162 648.5 1229 c 128,-1,61
 610 1296 610 1296 523 1296 c 0,62,63
 437 1296 437 1296 386.5 1229.5 c 128,-1,64
 336 1163 336 1163 327 1063 c 0,65,66
 318 960 318 960 358 894 c 128,-1,67
 398 828 398 828 484 828 c 0,57,58
EndSplineSet
EndChar

StartChar: guilsinglleft
Encoding: 8249 8249 415
Width: 642
GlyphClass: 2
Flags: W
LayerCount: 2
UndoRedoHistory
Layer: 1
Undoes
EndUndoes
Redoes
EndRedoes
EndUndoRedoHistory
Fore
SplineSet
347 165 m 1,0,-1
 107 541 l 1,1,-1
 417 918 l 1,2,-1
 624 918 l 1,3,-1
 324 541 l 1,4,-1
 550 165 l 1,5,-1
 347 165 l 1,0,-1
EndSplineSet
EndChar

StartChar: guilsinglright
Encoding: 8250 8250 416
Width: 642
GlyphClass: 2
Flags: W
LayerCount: 2
UndoRedoHistory
Layer: 1
Undoes
EndUndoes
Redoes
EndRedoes
EndUndoRedoHistory
Fore
SplineSet
108 165 m 1,0,-1
 405 543 l 1,1,-1
 183 918 l 1,2,-1
 381 918 l 1,3,-1
 624 542 l 1,4,-1
 310 165 l 1,5,-1
 108 165 l 1,0,-1
EndSplineSet
EndChar

StartChar: fraction
Encoding: 8260 8260 417
Width: 1152
GlyphClass: 2
Flags: W
LayerCount: 2
UndoRedoHistory
Layer: 1
Undoes
EndUndoes
Redoes
EndRedoes
EndUndoRedoHistory
Fore
SplineSet
34 0 m 1,0,-1
 1057 1456 l 1,1,-1
 1253 1456 l 1,2,-1
 231 0 l 1,3,-1
 34 0 l 1,0,-1
EndSplineSet
EndChar

StartChar: uni2074
Encoding: 8308 8308 418
Width: 897
GlyphClass: 2
Flags: W
LayerCount: 2
UndoRedoHistory
Layer: 1
Undoes
EndUndoes
Redoes
EndRedoes
EndUndoRedoHistory
Fore
SplineSet
356 953 m 1,0,-1
 579 953 l 1,1,-1
 607 1274 l 1,2,-1
 356 953 l 1,0,-1
555 655 m 1,3,-1
 571 838 l 1,4,-1
 202 838 l 1,5,-1
 211 942 l 1,6,-1
 619 1456 l 1,7,-1
 771 1456 l 1,8,-1
 726 953 l 1,9,-1
 838 953 l 1,10,-1
 835 838 l 1,11,-1
 716 838 l 1,12,-1
 700 655 l 1,13,-1
 555 655 l 1,3,-1
EndSplineSet
EndChar

StartChar: Euro
Encoding: 8364 8364 419
Width: 1190
GlyphClass: 2
Flags: W
LayerCount: 2
UndoRedoHistory
Layer: 1
Undoes
EndUndoes
Redoes
EndRedoes
EndUndoRedoHistory
Fore
SplineSet
750 -21 m 0,0,1
 513 -21 513 -21 391 122.5 c 128,-1,2
 269 266 269 266 259 516 c 1,3,-1
 124 516 l 1,4,-1
 156 654 l 1,5,-1
 258 654 l 1,6,7
 260 701 260 701 262 724 c 0,8,9
 264 750 264 750 268 784 c 1,10,-1
 144 784 l 1,11,-1
 178 922 l 1,12,-1
 299 922 l 1,13,14
 364 1161 364 1161 522 1304.5 c 128,-1,15
 680 1448 680 1448 910 1448 c 0,16,17
 1111 1448 1111 1448 1223 1330 c 1,18,-1
 1170 1141 l 1,19,20
 1123 1221 1123 1221 1051.5 1262 c 128,-1,21
 980 1303 980 1303 891 1303 c 0,22,23
 739 1303 739 1303 633.5 1197.5 c 128,-1,24
 528 1092 528 1092 476 922 c 1,25,-1
 1068 922 l 1,26,-1
 1036 784 l 1,27,-1
 446 784 l 1,28,29
 441 749 441 749 440 739 c 2,30,-1
 436 654 l 1,31,-1
 1011 654 l 1,32,-1
 980 516 l 1,33,-1
 438 516 l 1,34,35
 447 332 447 332 529 228.5 c 128,-1,36
 611 125 611 125 779 125 c 0,37,38
 935 125 935 125 1107 253 c 1,39,-1
 1090 75 l 1,40,41
 940 -21 940 -21 750 -21 c 0,0,1
EndSplineSet
EndChar

StartChar: trademark
Encoding: 8482 8482 420
Width: 1869
GlyphClass: 2
Flags: W
LayerCount: 2
UndoRedoHistory
Layer: 1
Undoes
EndUndoes
Redoes
EndRedoes
EndUndoRedoHistory
Fore
SplineSet
392 663 m 1,0,-1
 448 1302 l 1,1,-1
 200 1302 l 1,2,-1
 211 1436 l 1,3,-1
 870 1436 l 1,4,-1
 857 1302 l 1,5,-1
 605 1302 l 1,6,-1
 549 663 l 1,7,-1
 392 663 l 1,0,-1
871 663 m 1,8,-1
 939 1436 l 1,9,-1
 1158 1436 l 1,10,-1
 1326 934 l 1,11,-1
 1593 1436 l 1,12,-1
 1802 1436 l 1,13,-1
 1735 663 l 1,14,-1
 1580 663 l 1,15,-1
 1624 1163 l 1,16,-1
 1348 663 l 1,17,-1
 1238 663 l 1,18,-1
 1067 1157 l 1,19,-1
 1023 663 l 1,20,-1
 871 663 l 1,8,-1
EndSplineSet
EndChar

StartChar: partialdiff
Encoding: 8706 8706 421
Width: 1167
GlyphClass: 2
Flags: W
LayerCount: 2
UndoRedoHistory
Layer: 1
Undoes
EndUndoes
Redoes
EndRedoes
EndUndoRedoHistory
Fore
SplineSet
513 143 m 0,0,1
 652 143 652 143 765 291 c 128,-1,2
 878 439 878 439 916 694 c 1,3,4
 893 755 893 755 829.5 797.5 c 128,-1,5
 766 840 766 840 684 840 c 0,6,7
 549 840 549 840 443.5 715.5 c 128,-1,8
 338 591 338 591 324 420 c 0,9,10
 313 294 313 294 364 218.5 c 128,-1,11
 415 143 415 143 513 143 c 0,0,1
496 -24 m 0,12,13
 296 -24 296 -24 197.5 101 c 128,-1,14
 99 226 99 226 116 424 c 0,15,16
 127 544 127 544 177 651 c 128,-1,17
 227 758 227 758 302.5 835 c 128,-1,18
 378 912 378 912 477 957 c 128,-1,19
 576 1002 576 1002 680 1002 c 0,20,21
 835 1002 835 1002 947 887 c 1,22,23
 948 898 948 898 951 940 c 0,24,25
 964 1131 964 1131 893 1241 c 128,-1,26
 822 1351 822 1351 687 1351 c 0,27,28
 566 1351 566 1351 390 1239 c 1,29,-1
 393 1418 l 1,30,31
 541 1515 541 1515 721 1515 c 0,32,33
 957 1515 957 1515 1071 1347.5 c 128,-1,34
 1185 1180 1185 1180 1155 838 c 0,35,36
 1143 708 1143 708 1110 584.5 c 128,-1,37
 1077 461 1077 461 1020 350 c 128,-1,38
 963 239 963 239 888 156 c 128,-1,39
 813 73 813 73 712 24.5 c 128,-1,40
 611 -24 611 -24 496 -24 c 0,12,13
EndSplineSet
EndChar

StartChar: Delta
Encoding: 8710 8710 422
Width: 1314
GlyphClass: 2
Flags: W
LayerCount: 2
UndoRedoHistory
Layer: 1
Undoes
EndUndoes
Redoes
EndRedoes
EndUndoRedoHistory
Fore
SplineSet
301 108 m 1,0,-1
 1125 108 l 1,1,-1
 837 1131 l 1,2,-1
 812 1228 l 1,3,-1
 771 1131 l 1,4,-1
 301 108 l 1,0,-1
128 0 m 1,5,-1
 135 80 l 1,6,-1
 775 1429 l 1,7,-1
 882 1429 l 1,8,-1
 1283 80 l 1,9,-1
 1276 0 l 1,10,-1
 128 0 l 1,5,-1
EndSplineSet
EndChar

StartChar: product
Encoding: 8719 8719 423
Width: 1568
GlyphClass: 2
Flags: W
LayerCount: 2
UndoRedoHistory
Layer: 1
Undoes
EndUndoes
Redoes
EndRedoes
EndUndoRedoHistory
Fore
SplineSet
218 -270 m 1,0,-1
 355 1285 l 1,1,-1
 178 1285 l 1,2,-1
 196 1456 l 1,3,-1
 1616 1456 l 1,4,-1
 1600 1285 l 1,5,-1
 1445 1285 l 1,6,-1
 1309 -270 l 1,7,-1
 1082 -270 l 1,8,-1
 1219 1285 l 1,9,-1
 576 1285 l 1,10,-1
 440 -270 l 1,11,-1
 218 -270 l 1,0,-1
EndSplineSet
EndChar

StartChar: summation
Encoding: 8721 8721 424
Width: 1264
GlyphClass: 2
Flags: W
LayerCount: 2
UndoRedoHistory
Layer: 1
Undoes
EndUndoes
Redoes
EndRedoes
EndUndoRedoHistory
Fore
SplineSet
58 -270 m 1,0,-1
 68 -158 l 1,1,-1
 749 600 l 1,2,-1
 221 1345 l 1,3,-1
 232 1456 l 1,4,-1
 1337 1456 l 1,5,-1
 1321 1284 l 1,6,-1
 517 1284 l 1,7,-1
 998 606 l 1,8,-1
 375 -91 l 1,9,-1
 1244 -91 l 1,10,-1
 1229 -270 l 1,11,-1
 58 -270 l 1,0,-1
EndSplineSet
EndChar

StartChar: minus
Encoding: 8722 8722 425
Width: 1350
GlyphClass: 2
Flags: W
LayerCount: 2
UndoRedoHistory
Layer: 1
Undoes
EndUndoes
Redoes
EndRedoes
EndUndoRedoHistory
Fore
SplineSet
200 396 m 1,0,-1
 214 564 l 1,1,-1
 1201 564 l 1,2,-1
 1186 396 l 1,3,-1
 200 396 l 1,0,-1
EndSplineSet
EndChar

StartChar: radical
Encoding: 8730 8730 428
Width: 1314
GlyphClass: 2
Flags: W
LayerCount: 2
UndoRedoHistory
Layer: 1
Undoes
EndUndoes
Redoes
EndRedoes
EndUndoRedoHistory
Fore
SplineSet
546 -148 m 1,0,-1
 298 664 l 1,1,-1
 129 635 l 1,2,-1
 110 779 l 1,3,-1
 445 834 l 1,4,-1
 640 146 l 1,5,-1
 1148 1576 l 1,6,-1
 1325 1576 l 1,7,-1
 714 -148 l 1,8,-1
 546 -148 l 1,0,-1
EndSplineSet
EndChar

StartChar: infinity
Encoding: 8734 8734 429
Width: 1724
GlyphClass: 2
Flags: W
LayerCount: 2
UndoRedoHistory
Layer: 1
Undoes
EndUndoes
Redoes
EndRedoes
EndUndoRedoHistory
Fore
SplineSet
1282 355 m 0,0,1
 1390 355 1390 355 1452 428 c 128,-1,2
 1514 501 1514 501 1524 618 c 0,3,4
 1532 705 1532 705 1474 767 c 128,-1,5
 1416 829 1416 829 1319 829 c 0,6,7
 1152 829 1152 829 969 592 c 1,8,9
 1053 468 1053 468 1123.5 411.5 c 128,-1,10
 1194 355 1194 355 1282 355 c 0,0,1
482 355 m 0,11,12
 644 355 644 355 831 589 c 1,13,14
 764 702 764 702 687.5 765.5 c 128,-1,15
 611 829 611 829 514 829 c 0,16,17
 410 829 410 829 342.5 760.5 c 128,-1,18
 275 692 275 692 266 592 c 0,19,20
 257 497 257 497 317.5 426 c 128,-1,21
 378 355 378 355 482 355 c 0,11,12
469 236 m 0,22,23
 364 236 364 236 284.5 287.5 c 128,-1,24
 205 339 205 339 167 425 c 128,-1,25
 129 511 129 511 138 612 c 0,26,27
 150 749 150 749 266 846.5 c 128,-1,28
 382 944 382 944 526 944 c 0,29,30
 642 944 642 944 735 879 c 128,-1,31
 828 814 828 814 911 692 c 1,32,33
 1013 814 1013 814 1114 879 c 128,-1,34
 1215 944 1215 944 1333 944 c 0,35,36
 1495 944 1495 944 1585 846.5 c 128,-1,37
 1675 749 1675 749 1661 595 c 0,38,39
 1647 439 1647 439 1532 337.5 c 128,-1,40
 1417 236 1417 236 1269 236 c 0,41,42
 1160 236 1160 236 1070.5 297.5 c 128,-1,43
 981 359 981 359 891 488 c 1,44,45
 787 367 787 367 684.5 301.5 c 128,-1,46
 582 236 582 236 469 236 c 0,22,23
EndSplineSet
EndChar

StartChar: integral
Encoding: 8747 8747 430
Width: 734
GlyphClass: 2
Flags: W
LayerCount: 2
UndoRedoHistory
Layer: 1
Undoes
EndUndoes
Redoes
EndRedoes
EndUndoRedoHistory
Fore
SplineSet
130 -405 m 0,0,1
 73 -405 73 -405 -21 -382 c 1,2,-1
 -7 -218 l 1,3,4
 47 -241 47 -241 116 -241 c 0,5,6
 195 -241 195 -241 225.5 -195.5 c 128,-1,7
 256 -150 256 -150 265 -48 c 2,8,-1
 382 1289 l 2,9,10
 397 1465 397 1465 480 1566.5 c 128,-1,11
 563 1668 563 1668 725 1668 c 0,12,13
 794 1668 794 1668 878 1645 c 1,14,-1
 864 1479 l 1,15,16
 812 1503 812 1503 741 1503 c 0,17,18
 660 1503 660 1503 628.5 1457.5 c 128,-1,19
 597 1412 597 1412 588 1311 c 2,20,-1
 472 -26 l 2,21,22
 465 -111 465 -111 442.5 -178 c 128,-1,23
 420 -245 420 -245 380 -297 c 128,-1,24
 340 -349 340 -349 277 -377 c 128,-1,25
 214 -405 214 -405 130 -405 c 0,0,1
EndSplineSet
EndChar

StartChar: approxequal
Encoding: 8776 8776 431
Width: 1351
GlyphClass: 2
Flags: W
LayerCount: 2
UndoRedoHistory
Layer: 1
Undoes
EndUndoes
Redoes
EndRedoes
EndUndoRedoHistory
Fore
SplineSet
360 608 m 1,0,-1
 206 643 l 1,1,2
 246 773 246 773 335 847 c 128,-1,3
 424 921 424 921 544 921 c 0,4,5
 606 921 606 921 662 899.5 c 128,-1,6
 718 878 718 878 789 834 c 0,7,8
 909 761 909 761 967 761 c 0,9,10
 1062 761 1062 761 1134 926 c 1,11,-1
 1280 890 l 1,12,13
 1239 759 1239 759 1156.5 686 c 128,-1,14
 1074 613 1074 613 950 613 c 0,15,16
 886 613 886 613 826 635.5 c 128,-1,17
 766 658 766 658 686 708 c 0,18,19
 583 772 583 772 528 772 c 0,20,21
 424 772 424 772 360 608 c 1,0,-1
328 245 m 1,22,-1
 176 286 l 1,23,24
 221 416 221 416 308.5 489.5 c 128,-1,25
 396 563 396 563 514 563 c 0,26,27
 619 563 619 563 769 477 c 1,28,29
 790 467 790 467 829.5 445 c 128,-1,30
 869 423 869 423 893 413 c 128,-1,31
 917 403 917 403 937 403 c 0,32,33
 987 403 987 403 1027 444.5 c 128,-1,34
 1067 486 1067 486 1104 569 c 1,35,-1
 1250 530 l 1,36,37
 1161 253 1161 253 920 253 c 0,38,39
 815 253 815 253 659 350 c 1,40,41
 552 411 552 411 500 411 c 0,42,43
 387 411 387 411 328 245 c 1,22,-1
EndSplineSet
EndChar

StartChar: notequal
Encoding: 8800 8800 432
Width: 1351
GlyphClass: 2
Flags: W
LayerCount: 2
UndoRedoHistory
Layer: 1
Undoes
EndUndoes
Redoes
EndRedoes
EndUndoRedoHistory
Fore
SplineSet
478 41 m 1,0,-1
 317 65 l 1,1,-1
 458 313 l 1,2,-1
 188 313 l 1,3,-1
 177 465 l 1,4,-1
 549 465 l 1,5,-1
 694 702 l 1,6,-1
 224 702 l 1,7,-1
 211 855 l 1,8,-1
 780 855 l 1,9,-1
 935 1123 l 1,10,-1
 1100 1099 l 1,11,-1
 958 855 l 1,12,-1
 1246 855 l 1,13,-1
 1257 702 l 1,14,-1
 872 702 l 1,15,-1
 725 465 l 1,16,-1
 1212 465 l 1,17,-1
 1223 313 l 1,18,-1
 637 313 l 1,19,-1
 478 41 l 1,0,-1
EndSplineSet
EndChar

StartChar: lessequal
Encoding: 8804 8804 433
Width: 1351
GlyphClass: 2
Flags: W
LayerCount: 2
UndoRedoHistory
Layer: 1
Undoes
EndUndoes
Redoes
EndRedoes
EndUndoRedoHistory
Fore
SplineSet
136 4 m 1,0,-1
 150 156 l 1,1,-1
 1145 156 l 1,2,-1
 1131 4 l 1,3,-1
 136 4 l 1,0,-1
1139 238 m 1,4,-1
 209 651 l 1,5,-1
 217 747 l 1,6,-1
 1222 1191 l 1,7,-1
 1207 1017 l 1,8,-1
 436 703 l 1,9,-1
 1155 416 l 1,10,-1
 1139 238 l 1,4,-1
EndSplineSet
EndChar

StartChar: greaterequal
Encoding: 8805 8805 434
Width: 1350
GlyphClass: 2
Flags: W
LayerCount: 2
UndoRedoHistory
Layer: 1
Undoes
EndUndoes
Redoes
EndRedoes
EndUndoRedoHistory
Fore
SplineSet
191 4 m 1,0,-1
 204 156 l 1,1,-1
 1193 156 l 1,2,-1
 1180 4 l 1,3,-1
 191 4 l 1,0,-1
225 238 m 1,4,-1
 241 417 l 1,5,-1
 1012 701 l 1,6,-1
 295 1018 l 1,7,-1
 310 1192 l 1,8,-1
 1236 748 l 1,9,-1
 1228 652 l 1,10,-1
 225 238 l 1,4,-1
EndSplineSet
EndChar

StartChar: lozenge
Encoding: 9674 9674 435
Width: 1248
GlyphClass: 2
Flags: W
LayerCount: 2
UndoRedoHistory
Layer: 1
Undoes
EndUndoes
Redoes
EndRedoes
EndUndoRedoHistory
Fore
SplineSet
540 -42 m 1,0,-1
 161 705 l 1,1,-1
 678 1455 l 1,2,-1
 812 1455 l 1,3,-1
 1194 706 l 1,4,-1
 672 -42 l 1,5,-1
 540 -42 l 1,0,-1
625 159 m 1,6,-1
 998 705 l 1,7,-1
 728 1244 l 1,8,-1
 355 706 l 1,9,-1
 625 159 l 1,6,-1
EndSplineSet
EndChar

StartChar: uniFB00
Encoding: 64256 64256 436
Width: 1430
GlyphClass: 2
Flags: W
LayerCount: 2
UndoRedoHistory
Layer: 1
Undoes
EndUndoes
Redoes
EndRedoes
EndUndoRedoHistory
Fore
SplineSet
921 0 m 1,0,-1
 1000 901 l 1,1,-1
 506 901 l 1,2,-1
 427 0 l 1,3,-1
 237 0 l 1,4,-1
 316 901 l 1,5,-1
 132 901 l 1,6,-1
 143 1026 l 1,7,-1
 327 1026 l 1,8,-1
 336 1129 l 2,9,10
 346 1234 346 1234 367.5 1297.5 c 128,-1,11
 389 1361 389 1361 438 1406.5 c 128,-1,12
 487 1452 487 1452 568 1470.5 c 128,-1,13
 649 1489 649 1489 778 1489 c 2,14,-1
 812 1489 l 1,15,-1
 797 1341 l 1,16,17
 738 1341 738 1341 701 1338.5 c 128,-1,18
 664 1336 664 1336 633 1327 c 128,-1,19
 602 1318 602 1318 585 1305.5 c 128,-1,20
 568 1293 568 1293 555 1267.5 c 128,-1,21
 542 1242 542 1242 536.5 1211.5 c 128,-1,22
 531 1181 531 1181 526 1133 c 2,23,-1
 517 1026 l 1,24,-1
 1011 1026 l 1,25,-1
 1020 1129 l 2,26,27
 1030 1234 1030 1234 1051.5 1297.5 c 128,-1,28
 1073 1361 1073 1361 1122 1406.5 c 128,-1,29
 1171 1452 1171 1452 1252 1470.5 c 128,-1,30
 1333 1489 1333 1489 1462 1489 c 2,31,-1
 1496 1489 l 1,32,-1
 1481 1341 l 1,33,34
 1422 1341 1422 1341 1385 1338.5 c 128,-1,35
 1348 1336 1348 1336 1317 1327 c 128,-1,36
 1286 1318 1286 1318 1269 1305.5 c 128,-1,37
 1252 1293 1252 1293 1239 1267.5 c 128,-1,38
 1226 1242 1226 1242 1220.5 1211.5 c 128,-1,39
 1215 1181 1215 1181 1210 1133 c 2,40,-1
 1201 1026 l 1,41,-1
 1463 1026 l 1,42,-1
 1452 901 l 1,43,-1
 1190 901 l 1,44,-1
 1111 0 l 1,45,-1
 921 0 l 1,0,-1
EndSplineSet
EndChar

StartChar: uniFB01
Encoding: 64257 64257 437
Width: 1214
GlyphClass: 2
Flags: W
LayerCount: 2
UndoRedoHistory
Layer: 1
Undoes
EndUndoes
Redoes
EndRedoes
EndUndoRedoHistory
Fore
SplineSet
428 0 m 1,0,-1
 238 0 l 1,1,-1
 316 901 l 1,2,-1
 132 901 l 1,3,-1
 143 1026 l 1,4,-1
 327 1026 l 1,5,-1
 334 1109 l 2,6,7
 342 1195 342 1195 354.5 1249.5 c 128,-1,8
 367 1304 367 1304 395.5 1352.5 c 128,-1,9
 424 1401 424 1401 472 1426.5 c 128,-1,10
 520 1452 520 1452 594 1466.5 c 128,-1,11
 668 1481 668 1481 777 1482 c 1,12,-1
 812 1482 l 1,13,-1
 799 1334 l 1,14,-1
 755 1334 l 1,15,16
 703 1333 703 1333 670 1330.5 c 128,-1,17
 637 1328 637 1328 611.5 1317.5 c 128,-1,18
 586 1307 586 1307 572.5 1295 c 128,-1,19
 559 1283 559 1283 549 1255.5 c 128,-1,20
 539 1228 539 1228 535 1201 c 128,-1,21
 531 1174 531 1174 526 1124 c 2,22,-1
 517 1026 l 1,23,-1
 1106 1026 l 1,24,-1
 1016 0 l 1,25,-1
 826 0 l 1,26,-1
 904 901 l 1,27,-1
 506 901 l 1,28,-1
 428 0 l 1,0,-1
1126 1288 m 1,29,-1
 948 1288 l 1,30,-1
 964 1462 l 1,31,-1
 1142 1462 l 1,32,-1
 1126 1288 l 1,29,-1
EndSplineSet
EndChar

StartChar: uniFB02
Encoding: 64258 64258 438
Width: 1277
GlyphClass: 2
Flags: W
LayerCount: 2
UndoRedoHistory
Layer: 1
Undoes
EndUndoes
Redoes
EndRedoes
EndUndoRedoHistory
Fore
SplineSet
519 901 m 1,0,-1
 440 0 l 1,1,-1
 250 0 l 1,2,-1
 329 901 l 1,3,-1
 132 901 l 1,4,-1
 143 1026 l 1,5,-1
 340 1026 l 1,6,-1
 345 1092 l 2,7,8
 352 1175 352 1175 369 1233 c 128,-1,9
 386 1291 386 1291 419.5 1337.5 c 128,-1,10
 453 1384 453 1384 508 1410.5 c 128,-1,11
 563 1437 563 1437 642.5 1451 c 128,-1,12
 722 1465 722 1465 834 1465 c 2,13,-1
 1235 1465 l 1,14,-1
 1107 0 l 1,15,-1
 918 0 l 1,16,-1
 1033 1317 l 1,17,-1
 837 1317 l 2,18,19
 716 1317 716 1317 654.5 1298.5 c 128,-1,20
 593 1280 593 1280 569 1241 c 128,-1,21
 545 1202 545 1202 538 1124 c 2,22,-1
 530 1026 l 1,23,-1
 773 1026 l 1,24,-1
 762 901 l 1,25,-1
 519 901 l 1,0,-1
EndSplineSet
EndChar

StartChar: commaaccent
Encoding: 65538 -1 441
Width: 540
GlyphClass: 2
Flags: W
LayerCount: 2
UndoRedoHistory
Layer: 1
Undoes
EndUndoes
Redoes
EndRedoes
EndUndoRedoHistory
Fore
SplineSet
68 -575 m 1,0,-1
 220 -92 l 1,1,-1
 450 -92 l 1,2,-1
 237 -575 l 1,3,-1
 68 -575 l 1,0,-1
EndSplineSet
EndChar

StartChar: uni007F
Encoding: 127 127 442
Width: 1521
GlyphClass: 2
Flags: W
LayerCount: 2
UndoRedoHistory
Layer: 1
Undoes
EndUndoes
Redoes
EndRedoes
EndUndoRedoHistory
Fore
SplineSet
478 1330 m 1,0,-1
 372 124 l 1,1,-1
 1173 124 l 1,2,-1
 1279 1330 l 1,3,-1
 478 1330 l 1,0,-1
189 0 m 1,4,-1
 317 1456 l 1,5,-1
 1462 1456 l 1,6,-1
 1334 0 l 1,7,-1
 189 0 l 1,4,-1
EndSplineSet
EndChar

StartChar: acutecomb
Encoding: 769 769 443
Width: 0
GlyphClass: 2
Flags: W
LayerCount: 2
UndoRedoHistory
Layer: 1
Undoes
EndUndoes
Redoes
EndRedoes
EndUndoRedoHistory
Fore
SplineSet
-272 1154 m 1,0,-1
 6 1531 l 1,1,-1
 272 1532 l 1,2,-1
 -92 1154 l 1,3,-1
 -272 1154 l 1,0,-1
EndSplineSet
EndChar

StartChar: caroncomb
Encoding: 780 780 444
Width: 0
GlyphClass: 2
Flags: W
LayerCount: 2
UndoRedoHistory
Layer: 1
Undoes
EndUndoes
Redoes
EndRedoes
EndUndoRedoHistory
Fore
SplineSet
-119 1139 m 1,0,-1
 -342 1512 l 1,1,-1
 -158 1512 l 1,2,-1
 -22 1278 l 1,3,-1
 154 1512 l 1,4,-1
 342 1512 l 1,5,-1
 55 1139 l 1,6,-1
 -119 1139 l 1,0,-1
EndSplineSet
EndChar

StartChar: circumflexcomb
Encoding: 770 770 445
Width: 0
GlyphClass: 2
Flags: W
LayerCount: 2
UndoRedoHistory
Layer: 1
Undoes
EndUndoes
Redoes
EndRedoes
EndUndoRedoHistory
Fore
SplineSet
-63 1505 m 1,0,-1
 125 1505 l 1,1,-1
 337 1139 l 1,2,-1
 157 1139 l 1,3,-1
 18 1365 l 1,4,-1
 -161 1139 l 1,5,-1
 -337 1139 l 1,6,-1
 -63 1505 l 1,0,-1
EndSplineSet
EndChar

StartChar: gravecomb
Encoding: 768 768 446
Width: 0
GlyphClass: 2
Flags: W
LayerCount: 2
UndoRedoHistory
Layer: 1
Undoes
EndUndoes
Redoes
EndRedoes
EndUndoRedoHistory
Fore
SplineSet
64 1153 m 1,0,-1
 -242 1532 l 1,1,-1
 24 1532 l 1,2,-1
 242 1153 l 1,3,-1
 64 1153 l 1,0,-1
EndSplineSet
EndChar

StartChar: uni018F
Encoding: 399 399 447
Width: 1489
GlyphClass: 2
Flags: W
LayerCount: 2
UndoRedoHistory
Layer: 1
Undoes
EndUndoes
Redoes
EndRedoes
EndUndoRedoHistory
Fore
SplineSet
282 642 m 1,0,1
 282 637 282 637 282 631 c 0,2,3
 282 515 282 515 312.5 424 c 128,-1,4
 343 333 343 333 396.5 275.5 c 128,-1,5
 450 218 450 218 521.5 188 c 128,-1,6
 593 158 593 158 678 158 c 0,7,8
 850 158 850 158 976.5 294 c 128,-1,9
 1103 430 1103 430 1145 642 c 1,10,-1
 282 642 l 1,0,1
1388 835 m 0,11,12
 1388 685 1388 685 1351 550 c 128,-1,13
 1314 415 1314 415 1247.5 312 c 128,-1,14
 1181 209 1181 209 1092.5 133 c 128,-1,15
 1004 57 1004 57 898 17.5 c 128,-1,16
 792 -22 792 -22 680 -22 c 0,17,18
 628 -22 628 -22 578.5 -15.5 c 128,-1,19
 529 -9 529 -9 480 5.5 c 128,-1,20
 431 20 431 20 387 41.5 c 128,-1,21
 343 63 343 63 302.5 94.5 c 128,-1,22
 262 126 262 126 228 165.5 c 128,-1,23
 194 205 194 205 166 256.5 c 128,-1,24
 138 308 138 308 118.5 368.5 c 128,-1,25
 99 429 99 429 88.5 503.5 c 128,-1,26
 78 578 78 578 78 661 c 0,27,28
 78 698 78 698 80.5 740.5 c 128,-1,29
 83 783 83 783 87 821 c 1,30,-1
 1163 821 l 1,31,32
 1163 826 1163 826 1163 831 c 0,33,34
 1163 950 1163 950 1130 1040.5 c 128,-1,35
 1097 1131 1097 1131 1038.5 1187 c 128,-1,36
 980 1243 980 1243 903 1271 c 128,-1,37
 826 1299 826 1299 733 1299 c 0,38,39
 504 1299 504 1299 261 1150 c 1,40,-1
 205 1321 l 1,41,42
 489 1483 489 1483 764 1483 c 0,43,44
 852 1483 852 1483 932 1464.5 c 128,-1,45
 1012 1446 1012 1446 1081.5 1411 c 128,-1,46
 1151 1376 1151 1376 1207.5 1321 c 128,-1,47
 1264 1266 1264 1266 1304 1195 c 128,-1,48
 1344 1124 1344 1124 1366 1032.5 c 128,-1,49
 1388 941 1388 941 1388 835 c 0,11,12
EndSplineSet
EndChar

StartChar: uni0259
Encoding: 601 601 448
Width: 1168
GlyphClass: 2
Flags: W
LayerCount: 2
UndoRedoHistory
Layer: 1
Undoes
EndUndoes
Redoes
EndRedoes
EndUndoRedoHistory
Fore
SplineSet
840 419 m 1,0,-1
 284 419 l 1,1,2
 287 284 287 284 353 212 c 128,-1,3
 419 140 419 140 532 140 c 0,4,5
 644 140 644 140 726.5 214 c 128,-1,6
 809 288 809 288 840 419 c 1,0,-1
109 436 m 0,7,8
 109 502 109 502 120 559 c 1,9,-1
 857 559 l 1,10,11
 857 567 857 567 857.5 574 c 128,-1,12
 858 581 858 581 858 589 c 0,13,14
 858 734 858 734 774 809.5 c 128,-1,15
 690 885 690 885 549 885 c 0,16,17
 369 885 369 885 218 772 c 1,18,-1
 172 924 l 1,19,20
 349 1051 349 1051 577 1051 c 0,21,22
 807 1051 807 1051 938 923.5 c 128,-1,23
 1069 796 1069 796 1069 581 c 0,24,25
 1069 453 1069 453 1028 341.5 c 128,-1,26
 987 230 987 230 915.5 150 c 128,-1,27
 844 70 844 70 742.5 24 c 128,-1,28
 641 -22 641 -22 525 -22 c 0,29,30
 421 -22 421 -22 340.5 12 c 128,-1,31
 260 46 260 46 210 107.5 c 128,-1,32
 160 169 160 169 134.5 251.5 c 128,-1,33
 109 334 109 334 109 436 c 0,7,8
EndSplineSet
EndChar

StartChar: uni02BC
Encoding: 700 700 449
Width: 525
GlyphClass: 2
Flags: W
LayerCount: 2
UndoRedoHistory
Layer: 1
Undoes
EndUndoes
Redoes
EndRedoes
EndUndoRedoHistory
Fore
SplineSet
49 -272 m 1,0,-1
 210 248 l 1,1,-1
 432 248 l 1,2,-1
 218 -272 l 1,3,-1
 49 -272 l 1,0,-1
EndSplineSet
EndChar

StartChar: f_j
Encoding: 65539 -1 455
Width: 1253
GlyphClass: 2
Flags: W
LayerCount: 2
UndoRedoHistory
Layer: 1
Undoes
EndUndoes
Redoes
EndRedoes
EndUndoRedoHistory
Fore
SplineSet
1198 1288 m 1,0,-1
 1020 1288 l 1,1,-1
 1036 1462 l 1,2,-1
 1214 1462 l 1,3,-1
 1198 1288 l 1,0,-1
428 0 m 1,4,-1
 238 0 l 1,5,-1
 316 901 l 1,6,-1
 132 901 l 1,7,-1
 143 1026 l 1,8,-1
 327 1026 l 1,9,-1
 334 1109 l 2,10,11
 342 1195 342 1195 354.5 1249.5 c 128,-1,12
 367 1304 367 1304 395.5 1352.5 c 128,-1,13
 424 1401 424 1401 472 1426.5 c 128,-1,14
 520 1452 520 1452 594 1466.5 c 128,-1,15
 668 1481 668 1481 777 1482 c 1,16,-1
 812 1482 l 1,17,-1
 799 1334 l 1,18,-1
 755 1334 l 1,19,20
 703 1333 703 1333 670 1330.5 c 128,-1,21
 637 1328 637 1328 611.5 1317.5 c 128,-1,22
 586 1307 586 1307 572.5 1295 c 128,-1,23
 559 1283 559 1283 549 1255.5 c 128,-1,24
 539 1228 539 1228 535 1201 c 128,-1,25
 531 1174 531 1174 526 1124 c 2,26,-1
 517 1026 l 1,27,-1
 1182 1026 l 1,28,-1
 1092 8 l 2,29,30
 1075 -183 1075 -183 992.5 -286.5 c 128,-1,31
 910 -390 910 -390 738 -390 c 0,32,33
 653 -390 653 -390 582 -372 c 1,34,-1
 610 -229 l 1,35,36
 659 -241 659 -241 718 -241 c 0,37,38
 815 -241 815 -241 854 -176.5 c 128,-1,39
 893 -112 893 -112 906 45 c 2,40,-1
 981 901 l 1,41,-1
 506 901 l 1,42,-1
 428 0 l 1,4,-1
EndSplineSet
EndChar

StartChar: middot
Encoding: 65540 -1 457
Width: 444
GlyphClass: 2
Flags: W
LayerCount: 2
UndoRedoHistory
Layer: 1
Undoes
EndUndoes
Redoes
EndRedoes
EndUndoRedoHistory
Fore
SplineSet
147 513 m 1,0,-1
 165 723 l 1,1,-1
 382 723 l 1,2,-1
 364 513 l 1,3,-1
 147 513 l 1,0,-1
EndSplineSet
EndChar
